<svg width="16" height="16" viewBox="0 0 16 16" fill="none" xmlns="http://www.w3.org/2000/svg">
<path d="M8 16C12.4183 16 16 12.4183 16 8C16 3.58172 12.4183 0 8 0C3.58172 0 0 3.58172 0 8C0 12.4183 3.58172 16 8 16Z" fill="#D80027"/>
<path d="M4.37812 4.86914L5.06875 6.99414H7.30312L5.49687 8.30977L6.1875 10.4348L4.37812 9.12227L2.56875 10.4348L3.2625 8.30977L1.45312 6.99414H3.6875L4.37812 4.86914Z" fill="#FFDA44"/>
<path d="M9.48435 12.3908L8.95623 11.7408L8.17498 12.0439L8.6281 11.3408L8.09998 10.6877L8.90935 10.9033L9.3656 10.2002L9.40935 11.0377L10.2219 11.2533L9.43748 11.5533L9.48435 12.3908Z" fill="#FFDA44"/>
<path d="M10.5344 10.4846L10.7844 9.68457L10.1 9.2002L10.9375 9.1877L11.1844 8.3877L11.4562 9.18145L12.2937 9.17207L11.6219 9.67207L11.8906 10.4658L11.2062 9.98145L10.5344 10.4846Z" fill="#FFDA44"/>
<path d="M11.95 5.87197L11.5813 6.6251L12.1813 7.20947L11.3531 7.09072L10.9844 7.84072L10.8406 7.01572L10.0094 6.89697L10.7531 6.50635L10.6094 5.67822L11.2094 6.2626L11.95 5.87197Z" fill="#FFDA44"/>
<path d="M9.5062 3.59082L9.4437 4.4252L10.2218 4.74082L9.4062 4.94082L9.34683 5.77832L8.9062 5.06582L8.09058 5.26582L8.6312 4.6252L8.18745 3.91582L8.96558 4.23145L9.5062 3.59082Z" fill="#FFDA44"/>
</svg>
