<svg width="16" height="16" viewBox="0 0 16 16" fill="none" xmlns="http://www.w3.org/2000/svg">
<path fill-rule="evenodd" clip-rule="evenodd" d="M8 0C3.58171 0 0 3.58171 0 8C0 12.4183 3.58171 16 8 16C12.4183 16 16 12.4183 16 8C16 3.58171 12.4183 0 8 0Z" fill="#E92B2B"/>
<path fill-rule="evenodd" clip-rule="evenodd" d="M14.9298 12H1.07031C1.50579 12.7528 2.06042 13.4281 2.70839 14H13.2917C13.9397 13.4281 14.4943 12.7528 14.9298 12Z" fill="#FBFBFB"/>
<path fill-rule="evenodd" clip-rule="evenodd" d="M16 8H0C0 8.69061 0.0875071 9.36075 0.252036 10H15.748C15.9125 9.36075 16 8.69061 16 8Z" fill="#FBFBFB"/>
<path fill-rule="evenodd" clip-rule="evenodd" d="M14.9299 4H1.07042C0.71234 4.619 0.434822 5.29046 0.252197 6H15.7481C15.5655 5.29046 15.288 4.619 14.9299 4Z" fill="#FBFBFB"/>
<path fill-rule="evenodd" clip-rule="evenodd" d="M13.2908 2H2.70752C4.11781 0.755271 5.97031 0 7.9992 0C10.0281 0 11.8806 0.755271 13.2908 2Z" fill="#FBFBFB"/>
<path fill-rule="evenodd" clip-rule="evenodd" d="M7.20021 0.0395508V8.00007H0C0 3.85171 3.15746 0.440826 7.20021 0.0395508Z" fill="#2A2FAF"/>
<path fill-rule="evenodd" clip-rule="evenodd" d="M1.21992 3.75293H1.56143L1.0912 4.09457L1.27081 4.64736L0.875 4.35979C0.981325 4.15207 1.09646 3.94964 1.21992 3.75293Z" fill="#FBFBFB"/>
<path fill-rule="evenodd" clip-rule="evenodd" d="M0.189697 6.26206C0.197783 6.22556 0.206115 6.18917 0.214697 6.15288H0.620644L0.800254 5.6001L0.979869 6.15288H1.5611L1.09087 6.49453L1.27048 7.04731L0.800254 6.70567L0.330029 7.04731L0.50964 6.49453L0.189697 6.26206Z" fill="#FBFBFB"/>
<path fill-rule="evenodd" clip-rule="evenodd" d="M2.84987 1.87795C3.07234 1.69058 3.30519 1.51511 3.54741 1.35254H3.96105L3.4908 1.69418L3.67041 2.24697L3.20019 1.90532L2.72998 2.24697L2.84987 1.87795Z" fill="#FBFBFB"/>
<path d="M3.20055 3.2002L3.38016 3.75298H3.96141L3.49116 4.09462L3.6708 4.64741L3.20055 4.30577L2.73034 4.64741L2.90995 4.09462L2.4397 3.75298H3.02095L3.20055 3.2002Z" fill="#FBFBFB"/>
<path d="M3.20055 5.6001L3.38016 6.15288H3.96141L3.49116 6.49453L3.6708 7.04731L3.20055 6.70567L2.73034 7.04731L2.90995 6.49453L2.4397 6.15288H3.02095L3.20055 5.6001Z" fill="#FBFBFB"/>
<path d="M5.60009 0.799805L5.7797 1.35259H6.36091L5.8907 1.69423L6.0703 2.24702L5.60009 1.90538L5.12984 2.24702L5.30945 1.69423L4.83923 1.35259H5.42048L5.60009 0.799805Z" fill="#FBFBFB"/>
<path d="M5.60009 3.2002L5.7797 3.75298H6.36091L5.8907 4.09462L6.0703 4.64741L5.60009 4.30577L5.12984 4.64741L5.30945 4.09462L4.83923 3.75298H5.42048L5.60009 3.2002Z" fill="#FBFBFB"/>
<path d="M5.60009 5.6001L5.7797 6.15288H6.36091L5.8907 6.49453L6.0703 7.04731L5.60009 6.70567L5.12984 7.04731L5.30945 6.49453L4.83923 6.15288H5.42048L5.60009 5.6001Z" fill="#FBFBFB"/>
</svg>
