<svg width="67" height="67" viewBox="0 0 67 67" fill="none" xmlns="http://www.w3.org/2000/svg">
<path d="M33.2334 66.4668C51.5877 66.4668 66.4668 51.5877 66.4668 33.2334C66.4668 14.8791 51.5877 0 33.2334 0C14.8791 0 0 14.8791 0 33.2334C0 51.5877 14.8791 66.4668 33.2334 66.4668Z" fill="#E4022E"/>
<path d="M38.0674 33.2331L46.5167 41.6825C46.8162 41.9831 46.9844 42.3903 46.9844 42.8147C46.9844 43.2391 46.8162 43.6462 46.5167 43.9469L43.9474 46.5162C43.6467 46.8157 43.2396 46.9839 42.8152 46.9839C42.3908 46.9839 41.9836 46.8157 41.6829 46.5162L33.2336 38.0669L24.7843 46.5162C24.4836 46.8157 24.0765 46.9839 23.6521 46.9839C23.2277 46.9839 22.8206 46.8157 22.5199 46.5162L19.9506 43.9469C19.6511 43.6462 19.4829 43.2391 19.4829 42.8147C19.4829 42.3903 19.6511 41.9831 19.9506 41.6825L28.3999 33.2331L19.9506 24.7838C19.6511 24.4831 19.4829 24.076 19.4829 23.6516C19.4829 23.2272 19.6511 22.8201 19.9506 22.5194L22.5199 19.9501C22.8206 19.6506 23.2277 19.4824 23.6521 19.4824C24.0765 19.4824 24.4836 19.6506 24.7843 19.9501L33.2336 28.3994L41.6829 19.9501C41.9836 19.6506 42.3908 19.4824 42.8152 19.4824C43.2396 19.4824 43.6467 19.6506 43.9474 19.9501L46.5167 22.5194C46.8162 22.8201 46.9844 23.2272 46.9844 23.6516C46.9844 24.076 46.8162 24.4831 46.5167 24.7838L38.0674 33.2331Z" fill="white"/>
</svg>
