<svg width="16" height="16" viewBox="0 0 16 16" fill="none" xmlns="http://www.w3.org/2000/svg">
<path d="M12.3685 4.5098C12.3685 2.01961 10.3489 0 7.85868 0C5.36848 0 3.34888 2.01961 3.34888 4.5098C3.34888 7 5.36848 9.01961 7.85868 9.01961C10.3489 9.01961 12.3685 7 12.3685 4.5098ZM4.52535 4.5098C4.52535 2.66667 6.01554 1.17647 7.85868 1.17647C9.70182 1.17647 11.192 2.66667 11.192 4.5098C11.192 6.35294 9.70182 7.84314 7.85868 7.84314C6.01554 7.84314 4.52535 6.35294 4.52535 4.5098Z" fill="#BABABA"/>
<path d="M0.309504 15.9217C0.407544 15.9805 0.505583 16.0001 0.603622 16.0001C0.7997 16.0001 1.01539 15.9021 1.11343 15.706C2.48598 13.2747 5.07421 11.7648 7.85852 11.7648C10.6428 11.7648 13.2311 13.2747 14.6232 15.706C14.7801 15.9805 15.1526 16.0786 15.4272 15.9217C15.7017 15.7648 15.7997 15.3923 15.6428 15.1178C14.0546 12.3335 11.0742 10.5884 7.85852 10.5884C4.64284 10.5884 1.66245 12.3335 0.07421 15.1178C-0.0826527 15.3923 0.0153867 15.7648 0.309504 15.9217Z" fill="#BABABA"/>
</svg>
