<svg width="16" height="16" viewBox="0 0 16 16" fill="none" xmlns="http://www.w3.org/2000/svg">
<path d="M8 16C12.4183 16 16 12.4183 16 8C16 3.58172 12.4183 0 8 0C3.58172 0 0 3.58172 0 8C0 12.4183 3.58172 16 8 16Z" fill="#F0F0F0"/>
<path d="M10.7826 7.99988C10.7826 8.69554 9.53678 10.4347 8 10.4347C6.46322 10.4347 5.21741 8.69554 5.21741 7.99988C5.21741 6.46307 6.46322 5.21729 8 5.21729C9.53678 5.21729 10.7826 6.46307 10.7826 7.99988Z" fill="#D80027"/>
<path d="M10.7826 8C10.7826 9.53681 9.53678 10.7826 8 10.7826C6.46322 10.7826 5.21741 9.53681 5.21741 8" fill="#0052B4"/>
<path d="M10.9492 10.46L11.687 9.72223L12.1788 10.2141L11.441 10.9518L10.9492 10.46Z" fill="black"/>
<path d="M9.71924 11.6895L10.457 10.9517L10.9488 11.4436L10.2111 12.1813L9.71924 11.6895Z" fill="black"/>
<path d="M12.4248 11.9351L13.1625 11.1973L13.6544 11.6892L12.9166 12.4269L12.4248 11.9351Z" fill="black"/>
<path d="M11.1949 13.165L11.9327 12.4273L12.4245 12.9191L11.6868 13.6569L11.1949 13.165Z" fill="black"/>
<path d="M11.687 11.1973L12.4247 10.4595L12.9166 10.9514L12.1788 11.6891L11.687 11.1973Z" fill="black"/>
<path d="M10.4574 12.4268L11.1951 11.689L11.687 12.1809L10.9492 12.9186L10.4574 12.4268Z" fill="black"/>
<path d="M12.4281 5.54199L10.4608 3.5747L10.9526 3.08287L12.9199 5.05016L12.4281 5.54199Z" fill="black"/>
<path d="M10.4603 5.0498L9.72259 4.31207L10.2144 3.82027L10.9521 4.558L10.4603 5.0498Z" fill="black"/>
<path d="M11.6899 6.28027L10.9522 5.54254L11.444 5.05073L12.1817 5.78847L11.6899 6.28027Z" fill="black"/>
<path d="M11.9357 3.57422L11.1979 2.83649L11.6898 2.34466L12.4275 3.08239L11.9357 3.57422Z" fill="black"/>
<path d="M13.1659 4.80469L12.4282 4.06696L12.92 3.57513L13.6577 4.31286L13.1659 4.80469Z" fill="black"/>
<path d="M2.83606 11.1963L4.80335 13.1636L4.31152 13.6554L2.34423 11.6881L2.83606 11.1963Z" fill="black"/>
<path d="M4.80322 11.6875L5.54095 12.4252L5.04915 12.917L4.31142 12.1793L4.80322 11.6875Z" fill="black"/>
<path d="M3.57361 10.458L4.31134 11.1957L3.81951 11.6876L3.08178 10.9498L3.57361 10.458Z" fill="black"/>
<path d="M4.3114 9.72021L6.2787 11.6875L5.78687 12.1793L3.81957 10.212L4.3114 9.72021Z" fill="black"/>
<path d="M4.80322 2.83496L2.83593 4.80225L2.3441 4.31043L4.31139 2.34313L4.80322 2.83496Z" fill="black"/>
<path d="M5.54089 3.57275L3.5736 5.54005L3.08177 5.04822L5.04906 3.08092L5.54089 3.57275Z" fill="black"/>
<path d="M6.2793 4.31104L4.312 6.27833L3.8202 5.78652L5.78749 3.81923L6.2793 4.31104Z" fill="black"/>
</svg>
