<svg width="12" height="16" viewBox="0 0 12 16" fill="none" xmlns="http://www.w3.org/2000/svg">
<path fill-rule="evenodd" clip-rule="evenodd" d="M5.98844 0C3.70518 0 1.84623 1.86299 1.84623 4.1499V6.27679H1.76401C0.791886 6.27679 0 7.07066 0 8.04389V14.2329C0 15.2061 0.791886 16 1.76401 16H10.2129C11.185 16 11.9769 15.2061 11.9769 14.2329V8.04389C11.9769 7.07066 11.185 6.27679 10.2129 6.27679H10.1306V4.1499C10.1306 1.86299 8.2717 0 5.98844 0ZM2.79578 4.1499C2.79578 2.38605 4.22876 0.950751 5.98844 0.950751C7.74812 0.950751 9.1811 2.38605 9.1811 4.1499V6.27679H2.79578V4.1499ZM0.949542 8.04389C0.949542 7.59372 1.31546 7.22754 1.76401 7.22754H10.2129C10.6614 7.22754 11.0273 7.59372 11.0273 8.04389V14.2329C11.0273 14.6831 10.6614 15.0492 10.2129 15.0492H1.76401C1.31546 15.0492 0.949542 14.6831 0.949542 14.2329V8.04389Z" fill="#BABABA"/>
</svg>
