<svg width="60" height="78" viewBox="0 0 60 78" fill="none" xmlns="http://www.w3.org/2000/svg">
<path d="M30.5429 77.4247C30.0152 77.5998 29.4451 77.5998 28.9174 77.4247C21.5171 75.0047 0 64.6723 0 26.4863V14.3682C0.0029595 13.8335 0.171233 13.3128 0.481752 12.8775C0.79227 12.4422 1.22983 12.1136 1.73445 11.9367C10.9522 8.76848 19.9069 4.88127 28.516 0.310928C28.8891 0.106922 29.3074 0 29.7326 0C30.1578 0 30.5762 0.106922 30.9492 0.310928C39.5588 4.88145 48.5141 8.76867 57.7325 11.9367C58.2371 12.1136 58.6747 12.4422 58.9852 12.8775C59.2957 13.3128 59.464 13.8335 59.4669 14.3682V26.4863C59.4669 64.6558 37.9762 74.9931 30.5429 77.4247Z" fill="#26A94B"/>
<path d="M20.9307 52.1329L12.4683 43.3781C11.8818 42.77 11.5569 41.9564 11.5631 41.1116C11.5692 40.2668 11.906 39.4581 12.5013 38.8586L14.7231 36.6269C15.0258 36.3217 15.3872 36.0809 15.7854 35.9188C16.1836 35.7568 16.6104 35.6769 17.0403 35.684C17.4701 35.6911 17.8941 35.785 18.2868 35.9601C18.6794 36.1352 19.0326 36.3879 19.3251 36.7029L22.7362 40.3651L39.7504 19.5946C40.0166 19.2684 40.3448 18.9982 40.716 18.7995C41.0872 18.6008 41.4941 18.4775 41.9131 18.4368C42.3322 18.3961 42.7552 18.4388 43.1577 18.5624C43.5602 18.686 43.9343 18.888 44.2583 19.1569L46.7361 21.2019C47.3916 21.747 47.8052 22.529 47.8868 23.3776C47.9685 24.2263 47.7116 25.0728 47.1722 25.7329L25.698 51.938C25.4124 52.2867 25.0563 52.571 24.653 52.7722C24.2497 52.9734 23.8084 53.0869 23.3581 53.1053C22.9078 53.1237 22.4587 53.0466 22.0403 52.879C21.622 52.7114 21.2438 52.4571 20.9307 52.1329Z" fill="white"/>
</svg>
