<svg width="41" height="46" viewBox="0 0 41 46" fill="none" xmlns="http://www.w3.org/2000/svg">
<path d="M27.2404 12.3125H5.44809C4.00253 12.3125 2.61508 12.8864 1.59811 13.9106C0.573865 14.9348 0 16.315 0 17.7606V39.5529C0 40.9985 0.573865 42.386 1.59811 43.4029C2.62235 44.4272 4.00253 45.001 5.44809 45.001H27.2404C27.7199 45.001 28.1848 44.8122 28.5262 44.4708C28.8676 44.1293 29.0565 43.6717 29.0565 43.185V14.1285C29.0565 13.6491 28.8676 13.1842 28.5262 12.8428C28.1848 12.5014 27.7271 12.3125 27.2404 12.3125ZM5.44809 15.9446H25.4244V34.1049H5.44809C4.83064 34.1049 4.21319 34.2211 3.63206 34.4317V17.7606C3.63206 17.2812 3.82093 16.8163 4.16234 16.4748C4.50375 16.1334 4.96139 15.9446 5.44809 15.9446ZM5.44809 41.369C4.96866 41.369 4.50375 41.1801 4.16234 40.8387C3.82093 40.4973 3.63206 40.0396 3.63206 39.5529C3.63206 39.0662 3.82093 38.6086 4.16234 38.2672C4.50375 37.9258 4.96139 37.7369 5.44809 37.7369H25.4244V41.369H5.44809Z" fill="#0E276C"/>
<path d="M13.0099 29.2873L13.8598 29.0548V24.6019C13.8598 24.3985 13.8453 24.2678 13.8162 24.2097C13.7872 24.137 13.7072 24.0789 13.5692 24.0208L12.9663 23.6721L13.0244 22.6406H16.7582L16.8018 23.8247L15.9664 24.0571V28.5899C15.9664 28.7788 15.9809 28.895 16.0027 28.9531C16.0318 29.004 16.1044 29.0621 16.2206 29.113L16.8163 29.4762L16.78 30.4786H13.0753L13.0172 29.2946L13.0099 29.2873Z" fill="#0E276C"/>
<path d="M13.0102 29.2872L12.9158 28.9385L12.6325 29.0184L12.647 29.309L13.0102 29.2945V29.2872ZM13.8601 29.0548L13.9545 29.4034L14.2233 29.3308V29.0548H13.8601ZM13.8165 24.2096L13.4824 24.3549V24.3694L13.8092 24.2096H13.8165ZM13.5695 24.0207L13.3879 24.3331L13.4097 24.3476H13.4315L13.5695 24.0207ZM12.9666 23.6721L12.6034 23.6503L12.5889 23.8754L12.785 23.9844L12.9666 23.6721ZM13.0247 22.6405V22.2773H12.6833L12.6615 22.6188L13.0247 22.6405ZM16.7585 22.6405L17.1217 22.626L17.1071 22.2773H16.7585V22.6405ZM16.8021 23.8246L16.8965 24.1733L17.1725 24.0934L17.158 23.8028L16.7948 23.8173L16.8021 23.8246ZM15.9667 24.0571L15.8722 23.7084L15.6035 23.781V24.0571H15.9667ZM16.003 28.9531L15.6689 29.0984V29.1201L15.6906 29.1347L16.003 28.9531ZM16.2209 29.1129L16.4098 28.8005H16.3953L16.3807 28.7787L16.2282 29.1056L16.2209 29.1129ZM16.8166 29.4761L17.1798 29.4906V29.28L17.0055 29.171L16.8166 29.4833V29.4761ZM16.7803 30.4785V30.8417H17.1289L17.1435 30.4931L16.7803 30.4785ZM13.0756 30.4785L12.7124 30.4931L12.7269 30.8417H13.0756V30.4785ZM13.1119 29.6432L13.9618 29.4107L13.7729 28.7134L12.923 28.9458L13.1119 29.6432ZM14.2306 29.062V24.6091H13.5041V29.062H14.2306ZM14.2306 24.6091C14.2306 24.5002 14.2306 24.3985 14.216 24.3186C14.2088 24.2387 14.187 24.1442 14.1434 24.0498L13.4969 24.3767C13.4969 24.3767 13.4896 24.3476 13.4896 24.3621C13.4896 24.3621 13.4896 24.3839 13.4896 24.4057C13.4896 24.4493 13.4969 24.522 13.4969 24.6164H14.2233L14.2306 24.6091ZM14.1507 24.0643C14.0635 23.8609 13.8674 23.752 13.7148 23.6866L13.4388 24.3549C13.4388 24.3549 13.4824 24.3694 13.4896 24.3767C13.5041 24.3839 13.5114 24.3912 13.5114 24.3912C13.5187 24.3912 13.4969 24.3912 13.4824 24.3476L14.1434 24.0498L14.1507 24.0643ZM13.7584 23.7084L13.1555 23.3597L12.7923 23.9917L13.3952 24.3404L13.7584 23.7084ZM13.3371 23.6938L13.3952 22.6623L12.6688 22.6188L12.6107 23.6503L13.3371 23.6938ZM13.032 23.0038H16.7657V22.2773H13.032V23.0038ZM16.4025 22.6551L16.4461 23.8391L17.1725 23.8101L17.1289 22.626L16.4025 22.6551ZM16.7149 23.4759L15.8795 23.7084L16.0756 24.4057L16.911 24.1733L16.7149 23.4759ZM15.6107 24.0571V28.5899H16.3372V24.0571H15.6107ZM15.6107 28.5899C15.6107 28.6916 15.6107 28.7787 15.618 28.8514C15.618 28.9167 15.6398 29.0112 15.6689 29.0911L16.3372 28.8078C16.3372 28.8078 16.3444 28.8368 16.3372 28.8296C16.3372 28.8296 16.3372 28.8078 16.3372 28.786C16.3372 28.7424 16.3372 28.677 16.3372 28.5899H15.6107ZM15.6906 29.1274C15.7851 29.2872 15.9449 29.3817 16.0756 29.4398L16.3807 28.7787C16.3372 28.7569 16.3081 28.7424 16.3008 28.7351C16.3008 28.7351 16.3154 28.7497 16.3226 28.7642L15.6906 29.1274ZM16.0393 29.418L16.635 29.7812L17.0127 29.1637L16.4171 28.8005L16.0393 29.418ZM16.4606 29.4543L16.4243 30.4567L17.1507 30.4785L17.1871 29.4761L16.4606 29.4543ZM16.7875 30.1008H13.0828V30.8272H16.7875V30.1008ZM13.446 30.4495L13.3879 29.2654L12.6615 29.3017L12.7196 30.4858L13.446 30.4495Z" fill="#0E276C"/>
<path d="M39.4658 5.40356C38.7394 3.85631 37.5844 2.56329 36.1316 1.64801C34.1122 0.384057 31.715 -0.0154698 29.3905 0.522075C27.066 1.05236 25.0901 2.46159 23.8262 4.48828C22.5622 6.50771 22.1554 8.90487 22.693 11.2294C23.2305 13.5539 24.6398 15.5297 26.6592 16.7937C28.0829 17.6799 29.7174 18.1521 31.3881 18.1521H31.4971C33.1606 18.1303 34.7805 17.6509 36.1824 16.7646C36.5892 16.5031 36.7127 15.9729 36.4512 15.5588C36.1897 15.1447 35.6594 15.0285 35.2454 15.29C34.1194 16.0019 32.8119 16.3942 31.4753 16.4087C30.1024 16.4232 28.7585 16.0455 27.589 15.3191C25.9618 14.3021 24.8286 12.7113 24.4 10.8444C23.9715 8.97751 24.2911 7.05252 25.308 5.41809C27.4074 2.06207 31.853 1.03056 35.209 3.13716C36.3786 3.87083 37.3084 4.9096 37.8968 6.15177C38.4706 7.36488 38.6886 8.70147 38.5433 10.0308C38.4924 10.5102 38.8338 10.9388 39.3133 10.9969C39.7927 11.0478 40.2213 10.7064 40.2794 10.2269C40.461 8.57798 40.185 6.90724 39.4803 5.40356H39.4658Z" fill="#0E276C"/>
<path d="M31.3808 18.4424C29.6592 18.4424 27.974 17.9557 26.4993 17.0404C24.4145 15.7329 22.9617 13.6989 22.4024 11.2945C21.8503 8.89007 22.2644 6.42026 23.5719 4.33546C24.8722 2.2434 26.9134 0.790573 29.3178 0.2385C31.715 -0.313573 34.1848 0.100482 36.2769 1.40076C37.7805 2.33783 38.9718 3.68169 39.7273 5.27253C40.461 6.82706 40.7443 8.54865 40.5554 10.2485C40.5264 10.5535 40.3738 10.8296 40.1341 11.0257C39.8944 11.2218 39.582 11.309 39.2769 11.2727C38.9646 11.2364 38.6885 11.0838 38.4924 10.8441C38.2963 10.6044 38.2091 10.2993 38.2454 9.99421C38.3907 8.72299 38.1728 7.42998 37.628 6.27498C37.0686 5.08367 36.1752 4.08122 35.0492 3.38386C33.4874 2.41047 31.6423 2.09811 29.8481 2.51217C28.0539 2.92622 26.5211 4.01584 25.5477 5.57036C24.5744 7.13215 24.262 8.97724 24.6761 10.7787C25.0901 12.573 26.1725 14.0984 27.7415 15.0791C28.8675 15.7837 30.1605 16.1542 31.4753 16.1251C32.761 16.1106 34.0105 15.7401 35.0928 15.05C35.6376 14.7086 36.3568 14.8684 36.6982 15.406C37.0396 15.9508 36.8798 16.6699 36.3422 17.0114C34.8894 17.9266 33.2187 18.4206 31.5043 18.4424H31.3954H31.3808ZM31.4099 0.579914C30.7561 0.579914 30.1024 0.652555 29.4486 0.805101C27.1967 1.32085 25.2862 2.68651 24.0659 4.64056C22.8382 6.5946 22.4532 8.91186 22.969 11.1637C23.492 13.4156 24.8504 15.3261 26.8044 16.5464C28.1846 17.4109 29.7609 17.8613 31.3736 17.8613H31.4825C33.0879 17.8395 34.6497 17.3746 36.0081 16.5174C36.2769 16.3431 36.3568 15.9871 36.1897 15.7183C36.0153 15.4496 35.6594 15.3697 35.3906 15.5367C34.2211 16.2777 32.8627 16.6845 31.468 16.699C30.0297 16.699 28.6423 16.3213 27.4219 15.5658C25.7294 14.5052 24.5453 12.849 24.1022 10.9022C23.6518 8.95544 23.9932 6.95055 25.0465 5.25801C26.0998 3.56547 27.756 2.38868 29.7101 1.9383C31.6569 1.48793 33.6618 1.82208 35.3543 2.88264C36.5747 3.64537 37.5408 4.72773 38.151 6.02074C38.7467 7.27743 38.9791 8.67214 38.8193 10.0596C38.8048 10.2121 38.8484 10.3647 38.9428 10.4882C39.0372 10.6117 39.1752 10.6843 39.335 10.6988C39.4949 10.7134 39.6474 10.6698 39.7636 10.5753C39.8871 10.4809 39.9598 10.3429 39.9743 10.1903C40.1559 8.59224 39.8871 6.9796 39.197 5.52678C38.4924 4.03037 37.3737 2.77368 35.9645 1.89472C34.577 1.02303 33.0007 0.579914 31.4026 0.579914H31.4099Z" fill="#0E276C"/>
<path d="M34.2723 6.19551L30.0664 10.4014L28.5046 8.83965C28.1632 8.49824 27.6111 8.49824 27.2697 8.83965C26.9283 9.18107 26.9283 9.73314 27.2697 10.0746L29.449 12.2538C29.6233 12.4281 29.8412 12.508 30.0664 12.508C30.2916 12.508 30.5095 12.4209 30.6839 12.2538L35.5072 7.43041C35.8487 7.089 35.8487 6.53693 35.5072 6.19551C35.1658 5.8541 34.6138 5.8541 34.2796 6.19551H34.2723Z" fill="#0E276C"/>
<path d="M30.0661 12.798C29.7537 12.798 29.4632 12.6745 29.2453 12.4566L27.066 10.2774C26.8481 10.0594 26.7246 9.76161 26.7246 9.45652C26.7246 9.15142 26.8481 8.85359 27.066 8.63567C27.2839 8.41775 27.5818 8.29426 27.8869 8.29426C28.1992 8.29426 28.4898 8.41775 28.7077 8.63567L30.0588 9.9868L34.0614 5.98427C34.5117 5.53389 35.2454 5.53389 35.7031 5.98427C35.921 6.20945 36.0445 6.50002 36.0445 6.80511C36.0445 7.1102 35.921 7.40803 35.7031 7.62596L30.8869 12.4493C30.669 12.6673 30.3785 12.7907 30.0661 12.7907V12.798ZM27.8869 8.87539C27.7343 8.87539 27.5818 8.9335 27.4728 9.04972C27.3639 9.15869 27.2985 9.30397 27.2985 9.46378C27.2985 9.62359 27.3566 9.76887 27.4728 9.87783L29.652 12.0571C29.87 12.275 30.255 12.275 30.4729 12.0571L35.2963 7.23369C35.4052 7.12473 35.4706 6.97945 35.4706 6.81964C35.4706 6.65983 35.4125 6.51455 35.2963 6.40558C35.0711 6.1804 34.7006 6.1804 34.4754 6.40558L30.0661 10.8149L28.3009 9.04972C28.192 8.94076 28.0467 8.87539 27.8869 8.87539Z" fill="#0E276C"/>
</svg>
