<svg width="38" height="45" viewBox="0 0 38 45" fill="none" xmlns="http://www.w3.org/2000/svg">
<path d="M36.541 5.24419C35.8361 3.74278 34.7154 2.48809 33.3056 1.59993C31.346 0.373431 29.0199 -0.0142585 26.7643 0.507357C24.5086 1.02192 22.5913 2.3894 21.3648 4.35603C20.1383 6.31562 19.7436 8.64175 20.2652 10.8974C20.7868 13.153 22.1543 15.0703 24.1139 16.2968C25.4955 17.1568 27.0815 17.6149 28.7027 17.6149H28.8084C30.4226 17.5938 31.9945 17.1286 33.3549 16.2686C33.7497 16.0149 33.8695 15.5003 33.6157 15.0985C33.362 14.6967 32.8474 14.5839 32.4456 14.8377C31.3531 15.5285 30.0843 15.9091 28.7873 15.9232C27.455 15.9373 26.151 15.5708 25.0161 14.8659C23.4372 13.879 22.3376 12.3353 21.9217 10.5238C21.5058 8.71223 21.816 6.84429 22.8028 5.25829C24.8399 2.00172 29.1538 1.00078 32.4104 3.04495C33.5453 3.75688 34.4475 4.76487 35.0185 5.97022C35.5753 7.14738 35.7868 8.44438 35.6458 9.73432C35.5965 10.1995 35.9278 10.6154 36.393 10.6718C36.8582 10.7212 37.2741 10.3899 37.3305 9.92463C37.5067 8.32454 37.2389 6.70331 36.5551 5.24419H36.541Z" fill="#0E276C"/>
<path d="M28.6961 17.8971C27.0255 17.8971 25.3902 17.4249 23.9593 16.5367C21.9362 15.2679 20.5265 13.2942 19.9837 10.9611C19.448 8.62789 19.8498 6.23127 21.1186 4.20825C22.3803 2.17818 24.361 0.768408 26.6942 0.232694C29.0203 -0.303019 31.417 0.091716 33.447 1.36051C34.9061 2.26981 36.0622 3.57385 36.7952 5.11755C37.5072 6.62601 37.7821 8.29659 37.5988 9.94602C37.5706 10.2421 37.4226 10.5099 37.19 10.7002C36.9574 10.8906 36.6543 10.9752 36.3582 10.9399C36.0551 10.9047 35.7872 10.7566 35.5969 10.524C35.4066 10.2914 35.322 9.99537 35.3573 9.69931C35.4982 8.46576 35.2868 7.21106 34.7581 6.09029C34.2154 4.93428 33.3483 3.96154 32.2558 3.28485C30.7403 2.3403 28.9499 2.03721 27.2088 2.43899C25.4677 2.84078 23.9804 3.8981 23.0359 5.40656C22.0913 6.92206 21.7882 8.71247 22.19 10.4606C22.5918 12.2017 23.6421 13.6819 25.1646 14.6335C26.2572 15.3173 27.5119 15.6767 28.7877 15.6486C30.0354 15.6345 31.2478 15.275 32.2981 14.6053C32.8267 14.274 33.5246 14.4291 33.8559 14.9507C34.1872 15.4794 34.0321 16.1772 33.5105 16.5085C32.1007 17.3967 30.4795 17.876 28.8159 17.8971H28.7102H28.6961ZM28.7243 0.563992C28.0899 0.563992 27.4555 0.634478 26.8211 0.782504C24.636 1.28297 22.7821 2.60816 21.5979 4.5043C20.4066 6.40044 20.033 8.64903 20.5335 10.8342C21.041 13.0193 22.3592 14.8732 24.2553 16.0574C25.5946 16.8962 27.1242 17.3332 28.689 17.3332H28.7948C30.3526 17.3121 31.8681 16.861 33.1862 16.0292C33.3131 15.9517 33.4047 15.8248 33.4329 15.6767C33.4682 15.5287 33.4329 15.3807 33.3554 15.2538C33.1933 14.993 32.8408 14.9155 32.58 15.0776C31.4451 15.7966 30.127 16.1913 28.7736 16.2054C27.378 16.2054 26.0316 15.8389 24.8474 15.1058C23.205 14.0767 22.0561 12.4695 21.6261 10.5804C21.1891 8.69133 21.5204 6.74584 22.5424 5.10346C23.5645 3.46107 25.1717 2.31916 27.0678 1.88213C28.9569 1.4451 30.9024 1.76935 32.5448 2.79848C33.729 3.53861 34.6665 4.58889 35.2586 5.84359C35.8366 7.06304 36.0622 8.41642 35.9071 9.76276C35.893 9.91078 35.9353 10.0588 36.0269 10.1786C36.1185 10.2985 36.2525 10.369 36.4075 10.3831C36.5626 10.3972 36.7106 10.3549 36.8234 10.2632C36.9433 10.1716 37.0138 10.0377 37.0278 9.88964C37.2041 8.33889 36.9433 6.77404 36.2736 5.36426C35.5899 3.9122 34.5044 2.69275 33.1369 1.83983C31.7905 0.99397 30.2609 0.563992 28.7102 0.563992H28.7243Z" fill="#0E276C"/>
<path d="M31.5016 6.01214L27.4203 10.0934L25.9048 8.57793C25.5735 8.24663 25.0378 8.24663 24.7065 8.57793C24.3752 8.90923 24.3752 9.44494 24.7065 9.77623L26.8211 11.8909C26.9903 12.0601 27.2018 12.1376 27.4203 12.1376C27.6388 12.1376 27.8503 12.053 28.0194 11.8909L32.6999 7.21045C33.0312 6.87915 33.0312 6.34344 32.6999 6.01214C32.3686 5.68085 31.8329 5.68085 31.5086 6.01214H31.5016Z" fill="#0E276C"/>
<path d="M27.4201 12.4193C27.117 12.4193 26.835 12.2995 26.6236 12.088L24.5089 9.97335C24.0719 9.53632 24.0719 8.81734 24.5089 8.37326C24.7204 8.1618 25.0094 8.04197 25.3054 8.04197C25.6085 8.04197 25.8905 8.1618 26.102 8.37326L27.4131 9.68435L31.297 5.80043C31.734 5.3634 32.4459 5.3634 32.89 5.80043C33.1015 6.01894 33.2213 6.3009 33.2213 6.59695C33.2213 6.893 33.1015 7.18201 32.89 7.39347L28.2166 12.0739C28.0052 12.2854 27.7232 12.4052 27.4201 12.4052V12.4193ZM25.3054 8.61292C25.1574 8.61292 25.0094 8.66932 24.9037 8.7821C24.6851 9.00061 24.6851 9.3601 24.9037 9.57862L27.0183 11.6933C27.2298 11.9047 27.6034 11.9047 27.8148 11.6933L32.4953 7.01283C32.601 6.9071 32.6645 6.76612 32.6645 6.61105C32.6645 6.45597 32.6081 6.315 32.4953 6.20926C32.2768 5.99075 31.9173 5.99075 31.6988 6.20926L27.4201 10.4879L25.7072 8.77505C25.6015 8.66932 25.4605 8.60588 25.3054 8.60588V8.61292Z" fill="#0E276C"/>
<path d="M26.4332 13.2793H5.28664C3.88392 13.2793 2.53759 13.8362 1.55075 14.83C0.55686 15.8239 0 17.1632 0 18.5659V39.7125C0 41.1152 0.55686 42.4616 1.55075 43.4484C2.54464 44.4423 3.88392 44.9992 5.28664 44.9992H26.4332C26.8984 44.9992 27.3496 44.8159 27.6809 44.4846C28.0122 44.1533 28.1954 43.7092 28.1954 43.2369V15.0415C28.1954 14.5763 28.0122 14.1252 27.6809 13.7939C27.3496 13.4626 26.9055 13.2793 26.4332 13.2793ZM5.28664 16.8037H24.671V34.4259H5.28664C4.68749 34.4259 4.08834 34.5387 3.52443 34.7431V18.5659C3.52443 18.1007 3.7077 17.6496 4.039 17.3183C4.37029 16.987 4.81437 16.8037 5.28664 16.8037ZM5.28664 41.4747C4.82142 41.4747 4.37029 41.2915 4.039 40.9602C3.7077 40.6289 3.52443 40.1848 3.52443 39.7125C3.52443 39.2402 3.7077 38.7962 4.039 38.4649C4.37029 38.1336 4.81437 37.9503 5.28664 37.9503H24.671V41.4747H5.28664Z" fill="#0E276C"/>
<path d="M8.92413 29.0415L9.74885 28.8159V24.495C9.74885 24.2976 9.73475 24.1707 9.70655 24.1144C9.67836 24.0439 9.60082 23.9875 9.46689 23.9311L8.88184 23.5927L8.93823 22.5918H12.5613L12.6036 23.7408L11.793 23.9663V28.3648C11.793 28.5481 11.8071 28.6609 11.8283 28.7173C11.8565 28.7666 11.9269 28.823 12.0397 28.8723L12.6177 29.2248L12.5825 30.1975H8.98757L8.93118 29.0486L8.92413 29.0415ZM15.6205 29.0415L16.4453 28.8159V24.495C16.4453 24.2976 16.4312 24.1707 16.403 24.1144C16.3748 24.0439 16.2972 23.9875 16.1633 23.9311L15.5783 23.5927L15.6346 22.5918H19.2578L19.3001 23.7408L18.4894 23.9663V28.3648C18.4894 28.5481 18.5035 28.6609 18.5247 28.7173C18.5529 28.7666 18.6234 28.823 18.7361 28.8723L19.3141 29.2248L19.2789 30.1975H15.684L15.6276 29.0486L15.6205 29.0415Z" fill="#0E276C"/>
<path d="M8.92397 29.0416L8.83234 28.7033L8.55743 28.7808L8.57153 29.0628L8.92397 29.0487V29.0416ZM9.74869 28.8161L9.84032 29.1544L10.1011 29.0839V28.8161H9.74869ZM9.70639 24.1145L9.38215 24.2554V24.2695L9.69935 24.1145H9.70639ZM9.46673 23.9312L9.29051 24.2343L9.31166 24.2484H9.3328L9.46673 23.9312ZM8.88168 23.5929L8.52923 23.5717L8.51514 23.7902L8.70546 23.896L8.88168 23.5929ZM8.93807 22.5919V22.2395H8.60677L8.58563 22.5708L8.93807 22.5919ZM12.5612 22.5919L12.9136 22.5778L12.8995 22.2395H12.5612V22.5919ZM12.6035 23.7409L12.6951 24.0792L12.963 24.0017L12.9489 23.7197L12.5964 23.7338L12.6035 23.7409ZM11.7929 23.9664L11.7012 23.6281L11.4404 23.6986V23.9664H11.7929ZM11.8281 28.7174L11.5039 28.8584V28.8795L11.525 28.8936L11.8281 28.7174ZM12.0396 28.8725L12.2228 28.5694H12.2087L12.1946 28.5482L12.0466 28.8654L12.0396 28.8725ZM12.6176 29.2249L12.97 29.239V29.0346L12.8008 28.9288L12.6176 29.2319V29.2249ZM12.5823 30.1976V30.5501H12.9207L12.9348 30.2117L12.5823 30.1976ZM8.98741 30.1976L8.63497 30.2117L8.64907 30.5501H8.98741V30.1976ZM9.02265 29.387L9.84737 29.1615L9.6641 28.4848L8.83938 28.7103L9.02265 29.387ZM10.1082 28.8231V24.5022H9.40329V28.8231H10.1082ZM10.1082 24.5022C10.1082 24.3964 10.1082 24.2977 10.0941 24.2202C10.087 24.1427 10.0659 24.051 10.0236 23.9594L9.39624 24.2766C9.39624 24.2766 9.3892 24.2484 9.3892 24.2625C9.3892 24.2625 9.3892 24.2836 9.3892 24.3048C9.3892 24.3471 9.39624 24.4176 9.39624 24.5092H10.1011L10.1082 24.5022ZM10.0306 23.9735C9.94606 23.7761 9.75574 23.6704 9.60771 23.607L9.33985 24.2554C9.33985 24.2554 9.38215 24.2695 9.3892 24.2766C9.40329 24.2836 9.41034 24.2907 9.41034 24.2907C9.41739 24.2907 9.39624 24.2907 9.38215 24.2484L10.0236 23.9594L10.0306 23.9735ZM9.65 23.6281L9.06495 23.2898L8.71251 23.903L9.29756 24.2413L9.65 23.6281ZM9.24117 23.614L9.29756 22.6131L8.59267 22.5708L8.53628 23.5717L9.24117 23.614ZM8.94512 22.9444H12.5682V22.2395H8.94512V22.9444ZM12.2158 22.606L12.2581 23.755L12.963 23.7268L12.9207 22.5778L12.2158 22.606ZM12.5189 23.4025L11.7083 23.6281L11.8986 24.3048L12.7092 24.0792L12.5189 23.4025ZM11.4475 23.9664V28.3649H12.1523V23.9664H11.4475ZM11.4475 28.3649C11.4475 28.4636 11.4475 28.5482 11.4545 28.6187C11.4545 28.6821 11.4757 28.7738 11.5039 28.8513L12.1523 28.5764C12.1523 28.5764 12.1594 28.6046 12.1523 28.5975C12.1523 28.5975 12.1523 28.5764 12.1523 28.5552C12.1523 28.513 12.1523 28.4495 12.1523 28.3649H11.4475ZM11.525 28.8865C11.6166 29.0416 11.7717 29.1333 11.8986 29.1896L12.1946 28.5482C12.1523 28.5271 12.1242 28.513 12.1171 28.5059C12.1171 28.5059 12.1312 28.52 12.1383 28.5341L11.525 28.8865ZM11.8633 29.1685L12.4414 29.5209L12.8079 28.9218L12.2299 28.5694L11.8633 29.1685ZM12.2722 29.2037L12.2369 30.1765L12.9418 30.1976L12.9771 29.2249L12.2722 29.2037ZM12.5894 29.8311H8.99446V30.536H12.5894V29.8311ZM9.3469 30.1694L9.29051 29.0205L8.58563 29.0557L8.64202 30.2047L9.3469 30.1694ZM15.6345 29.0346L15.5429 28.6962L15.2679 28.7738L15.282 29.0557L15.6345 29.0416V29.0346ZM16.4592 28.809L16.5508 29.1474L16.8116 29.0769V28.809H16.4592ZM16.4169 24.1074L16.0927 24.2484V24.2625L16.4099 24.1074H16.4169ZM16.1772 23.9241L16.001 24.2273L16.0222 24.2413H16.0433L16.1772 23.9241ZM15.5922 23.5858L15.2397 23.5647L15.2257 23.7832L15.416 23.8889L15.5922 23.5858ZM15.6486 22.5849V22.2324H15.3173L15.2961 22.5637L15.6486 22.5849ZM19.2717 22.5849L19.6241 22.5708L19.61 22.2324H19.2717V22.5849ZM19.314 23.7338L19.4056 24.0722L19.6735 23.9946L19.6594 23.7127L19.3069 23.7268L19.314 23.7338ZM18.5034 23.9594L18.4117 23.621L18.1509 23.6915V23.9594H18.5034ZM18.5386 28.7103L18.2144 28.8513V28.8725L18.2355 28.8865L18.5386 28.7103ZM18.7501 28.8654L18.9334 28.5623H18.9193L18.9052 28.5412L18.7571 28.8584L18.7501 28.8654ZM19.3281 29.2178L19.6805 29.2319V29.0275L19.5114 28.9218L19.3281 29.2249V29.2178ZM19.2928 30.1906V30.543H19.6312L19.6453 30.2047L19.2928 30.1906ZM15.6979 30.1906L15.3455 30.2047L15.3596 30.543H15.6979V30.1906ZM15.7332 29.38L16.5579 29.1544L16.3746 28.4777L15.5499 28.7033L15.7332 29.38ZM16.8187 28.8161V24.4951H16.1138V28.8161H16.8187ZM16.8187 24.4951C16.8187 24.3894 16.8187 24.2907 16.8046 24.2132C16.7975 24.1356 16.7764 24.044 16.7341 23.9523L16.1068 24.2695C16.1068 24.2695 16.0997 24.2413 16.0997 24.2554C16.0997 24.2554 16.0997 24.2766 16.0997 24.2977C16.0997 24.34 16.1068 24.4105 16.1068 24.5022H16.8116L16.8187 24.4951ZM16.7412 23.9664C16.6566 23.7691 16.4663 23.6633 16.3182 23.5999L16.0504 24.2484C16.0504 24.2484 16.0927 24.2625 16.0997 24.2695C16.1138 24.2766 16.1209 24.2836 16.1209 24.2836C16.1279 24.2836 16.1068 24.2836 16.0927 24.2413L16.7341 23.9523L16.7412 23.9664ZM16.3605 23.621L15.7755 23.2827L15.423 23.896L16.0081 24.2343L16.3605 23.621ZM15.9517 23.607L16.0081 22.606L15.3032 22.5637L15.2468 23.5647L15.9517 23.607ZM15.6556 22.9373H19.2787V22.2324H15.6556V22.9373ZM18.9263 22.599L18.9686 23.7479L19.6735 23.7197L19.6312 22.5708L18.9263 22.599ZM19.2294 23.3955L18.4188 23.621L18.6091 24.2977L19.4197 24.0722L19.2294 23.3955ZM18.158 23.9594V28.3579H18.8629V23.9594H18.158ZM18.158 28.3579C18.158 28.4566 18.158 28.5412 18.165 28.6116C18.165 28.6751 18.1862 28.7667 18.2144 28.8443L18.8629 28.5694C18.8629 28.5694 18.8699 28.5975 18.8629 28.5905C18.8629 28.5905 18.8629 28.5693 18.8629 28.5482C18.8629 28.5059 18.8629 28.4425 18.8629 28.3579H18.158ZM18.2355 28.8795C18.3272 29.0346 18.4822 29.1262 18.6091 29.1826L18.9052 28.5412C18.8629 28.52 18.8347 28.5059 18.8276 28.4989C18.8276 28.4989 18.8417 28.513 18.8488 28.5271L18.2355 28.8795ZM18.5739 29.1615L19.1519 29.5139L19.5184 28.9147L18.9404 28.5623L18.5739 29.1615ZM18.9827 29.1967L18.9475 30.1694L19.6523 30.1906L19.6876 29.2178L18.9827 29.1967ZM19.2999 29.824H15.705V30.5289H19.2999V29.824ZM16.0574 30.1624L16.001 29.0134L15.2961 29.0487L15.3525 30.1976L16.0574 30.1624Z" fill="#0E276C"/>
</svg>
