<svg width="72" height="72" viewBox="0 0 72 72" fill="none" xmlns="http://www.w3.org/2000/svg">
<g clip-path="url(#clip0_185_4571)">
<path d="M41.0599 13.0163C41.0599 10.1945 38.7943 7.90698 35.9995 7.90698C33.2048 7.90698 30.9392 10.1945 30.9392 13.0163V30.0473C26.2837 30.0526 22.5106 33.8622 22.5054 38.5628V47.6765L29.2525 56.192V59H32.626V54.9956L25.8789 46.4801V38.5628C25.8789 35.741 28.1445 33.4535 30.9392 33.4535V45.3752H34.3128V13.0163C34.3128 12.0753 35.0676 11.3132 35.9995 11.3132C36.9315 11.3132 37.6863 12.0753 37.6863 13.0163V27.9418L43.2021 29.4608L44.0897 26.1738L41.0535 25.3393L41.0599 13.0152V13.0163Z" fill="#919191"/>
<path d="M47.3419 27.0785L46.4551 30.365L49.71 31.2603L50.5968 27.9739L47.3419 27.0785Z" fill="#919191"/>
<path d="M52.9673 32.1496L56.2407 33.0522V48.214L51.1804 55.0265V59H54.554V56.1611L59.6143 49.3487V30.4496L53.854 28.8636L52.9673 32.1496Z" fill="#919191"/>
<path d="M18.6384 7.40776L16.2527 5L10 11.3132L16.2527 17.6264L18.6384 15.2186L16.4572 13.0163H20.8185V9.61008H16.4572L18.6384 7.40776Z" fill="#919191"/>
<path d="M27.5657 9.61008H24.1921V13.0163H27.5657V9.61008Z" fill="#919191"/>
<path d="M53.3616 15.2186L55.7474 17.6264L62 11.3132L55.7474 5L53.3616 7.40776L55.5428 9.61008H51.1804V13.0163H55.5428L53.3616 15.2186Z" fill="#919191"/>
<path d="M47.8069 9.61008H44.4333V13.0163H47.8069V9.61008Z" fill="#919191"/>
</g>
<defs>
<clipPath id="clip0_185_4571">
<rect width="52" height="54" fill="white" transform="translate(10 5)"/>
</clipPath>
</defs>
</svg>
