<svg width="72" height="72" viewBox="0 0 72 72" fill="none" xmlns="http://www.w3.org/2000/svg">
<g clip-path="url(#clip0_185_4568)">
<path d="M41.4702 28.1185L40.6682 31.062L43.6118 31.864L44.4137 28.9204L41.4702 28.1185Z" fill="#909090"/>
<path d="M36 0C16.1482 0 0 16.1482 0 36C0 55.8518 16.1482 72 36 72C55.8518 72 72 55.8518 72 36C72 16.1482 55.8376 0 36 0ZM59.0304 54.4754L52.4178 48.1892L52.5313 48.0331V31.147L47.3378 29.728L46.5432 32.6654L49.4947 33.4742V47.0256L44.9255 53.1131V56.6606H47.9764V54.1206L48.6575 53.2125L54.4754 59.0304C49.4095 63.1029 42.9815 65.5436 35.9858 65.5436C19.6815 65.5436 6.42806 52.2901 6.42806 35.9858C6.42806 28.9901 8.86874 22.5621 12.9413 17.4963L25.6555 30.8348C21.9235 31.3315 19.043 34.5101 19.043 38.3839V46.5432L25.1305 54.149V56.6606H28.1813V53.0847L22.0938 45.4789V38.3981C22.0938 35.8723 24.1372 33.8289 26.663 33.8289V44.4856H29.7138V15.5664C29.7138 14.7292 30.395 14.0481 31.2322 14.0481C32.0694 14.0481 32.7505 14.7292 32.7505 15.5664V28.905L37.7312 30.2672L38.5258 27.3299L35.7872 26.5778V15.5664C35.7872 13.0406 33.7438 10.9972 31.218 10.9972C28.6922 10.9972 26.6488 13.0406 26.6488 15.5664V22.7749L17.4821 12.9555C22.5479 8.88293 28.976 6.44225 35.9716 6.44225C52.2759 6.44225 65.5294 19.6957 65.5294 36C65.5436 42.9815 63.1029 49.4095 59.0304 54.4754Z" fill="#909090"/>
</g>
<defs>
<clipPath id="clip0_185_4568">
<rect width="72" height="72" fill="white"/>
</clipPath>
</defs>
</svg>
