<svg width="23" height="19" viewBox="0 0 23 19" fill="none" xmlns="http://www.w3.org/2000/svg">
<path d="M8.57651 11.7154C11.8554 8.07067 15.0304 4.51804 18.2332 0.988434C19.6997 -0.630583 21.8441 -0.200891 22.7226 1.84014C23.2414 3.04482 23.0408 4.18043 22.0516 5.29302C19.9764 7.61796 17.8873 9.91988 15.7983 12.2372C14.1173 14.1017 12.4433 15.9739 10.7555 17.8308C9.33743 19.3884 7.80868 19.3884 6.41137 17.8385C4.59902 15.8358 2.78666 13.8331 0.988146 11.8228C-0.277735 10.411 -0.326157 8.70754 0.835963 7.40312C1.99808 6.0987 3.54066 6.12172 4.82038 7.51821C6.0655 8.86867 7.27605 10.2575 8.58343 11.7154H8.57651Z" fill="#26A94B"/>
</svg>
