<svg width="20" height="20" viewBox="0 0 20 20" fill="none" xmlns="http://www.w3.org/2000/svg">
<path d="M10 20C15.5228 20 20 15.5228 20 10C20 4.47715 15.5228 0 10 0C4.47715 0 0 4.47715 0 10C0 15.5228 4.47715 20 10 20Z" fill="#E4022E"/>
<path d="M11.4544 10.0009L13.9968 12.5433C14.0869 12.6338 14.1375 12.7563 14.1375 12.884C14.1375 13.0117 14.0869 13.1342 13.9968 13.2247L13.2237 13.9978C13.1332 14.0879 13.0107 14.1385 12.883 14.1385C12.7553 14.1385 12.6328 14.0879 12.5423 13.9978L9.99993 11.4554L7.45751 13.9978C7.36703 14.0879 7.24453 14.1385 7.11682 14.1385C6.98912 14.1385 6.86661 14.0879 6.77613 13.9978L6.00303 13.2247C5.91291 13.1342 5.8623 13.0117 5.8623 12.884C5.8623 12.7563 5.91291 12.6338 6.00303 12.5433L8.54544 10.0009L6.00303 7.45849C5.91291 7.36801 5.8623 7.24551 5.8623 7.1178C5.8623 6.99009 5.91291 6.86759 6.00303 6.77711L6.77613 6.00401C6.86661 5.91388 6.98912 5.86328 7.11682 5.86328C7.24453 5.86328 7.36703 5.91388 7.45751 6.00401L9.99993 8.54642L12.5423 6.00401C12.6328 5.91388 12.7553 5.86328 12.883 5.86328C13.0107 5.86328 13.1332 5.91388 13.2237 6.00401L13.9968 6.77711C14.0869 6.86759 14.1375 6.99009 14.1375 7.1178C14.1375 7.24551 14.0869 7.36801 13.9968 7.45849L11.4544 10.0009Z" fill="white"/>
</svg>
