<svg width="105" height="105" viewBox="0 0 105 105" fill="none" xmlns="http://www.w3.org/2000/svg">
<path d="M4.2181 4.88065L4.65596 4.44095C10.319 -1.2165 19.485 -1.2165 25.148 4.44095L52.4416 31.8488C61.7827 22.4686 70.8903 13.2936 79.8812 4.26508C85.5442 -1.42169 94.7394 -1.42169 100.402 4.26508L100.607 4.47027C106.27 10.157 106.27 19.3907 100.607 25.0482C91.6451 34.018 82.5959 43.1051 73.4883 52.2215C82.7127 61.4845 91.7911 70.6009 100.753 79.5708C106.416 85.2575 106.416 94.4619 100.753 100.149L100.548 100.354C94.8853 106.041 85.6902 106.041 80.0271 100.354L53.1714 73.327C43.9179 82.6193 34.8395 91.7651 25.907 100.735C20.244 106.422 11.0488 106.422 5.38574 100.735L5.1814 100.53C-0.481652 94.843 -0.481652 85.6386 5.1814 79.9518L31.8912 53.1595C22.4917 43.7207 13.3257 34.5456 4.24729 25.3999C-1.41576 19.7131 -1.41576 10.4795 4.24729 4.79271L4.2181 4.88065Z" fill="#DCE0E8"/>
</svg>
