<svg width="38" height="45" viewBox="0 0 38 45" fill="none" xmlns="http://www.w3.org/2000/svg">
<g clip-path="url(#clip0_19_2183)">
<path d="M1.85598 45C1.71421 44.9438 1.566 44.8877 1.42423 44.8315C0.631629 44.5354 0.122556 44.0606 0.0581168 43.3509C-0.0192107 42.5289 -0.102982 41.7018 0.721844 41.0381C0.792728 40.982 0.799172 40.8543 0.792728 40.7675C0.77984 40.6552 0.728288 40.5378 0.68318 40.4306C0.141888 39.1491 -0.0127667 37.8421 0.000121164 36.4942C0.0452288 31.2968 0.0323409 26.0943 0.000121164 20.8918C0.000121164 20.2791 0.103224 19.7328 0.522081 19.2274C1.71421 17.7927 2.0493 16.2304 1.95264 14.5201C1.79154 11.6916 2.01708 8.86317 2.86124 6.10109C3.42186 4.26821 4.09203 2.45575 4.72354 0.638189C4.85886 0.25017 5.20039 0 5.71591 0C6.23787 0 6.56651 0.275698 6.70828 0.658611C7.84241 3.85466 9.1312 7.03029 9.36319 10.3744C9.50495 12.4472 9.4534 14.5303 9.51784 16.6133C9.52429 16.9197 9.62094 17.2515 9.78849 17.5272C10.2396 18.2982 10.7551 19.0436 11.219 19.8043C11.3286 19.983 11.393 20.1923 11.393 20.3914C11.3995 26.3087 11.4253 32.226 11.3673 38.1433C11.3608 38.9551 10.9226 39.7617 10.7293 40.5786C10.6906 40.742 10.7551 40.982 10.884 41.1045C12.1985 42.3502 11.5541 44.3822 9.65316 44.9234C9.60161 44.9387 9.56295 44.9745 9.52429 44.9949H1.85598V45ZM9.45985 37.4847V21.0245H1.97197V37.4847H9.46629H9.45985ZM5.70302 3.41559C4.63977 6.27468 3.90516 9.06229 3.84072 11.9622H7.57821C7.488 9.05208 6.79205 6.25936 5.70302 3.41559ZM7.57821 13.5296H3.87294V16.4704H7.57821V13.5296ZM5.70302 43.5041C6.73405 43.5041 7.77153 43.4939 8.80256 43.5041C9.2923 43.5092 9.53717 43.3713 9.49851 42.968C9.48562 42.8506 9.49851 42.7332 9.49851 42.6157C9.49207 42.0848 9.39541 41.998 8.73168 41.998C6.85004 41.998 4.96841 41.998 3.08033 41.998C1.89464 41.998 1.90753 41.998 1.90753 42.9527C1.90753 43.3509 2.10085 43.5092 2.59703 43.5041C3.62807 43.4939 4.66554 43.5041 5.69658 43.5041H5.70302ZM9.15054 39.0266H2.21684C2.35216 39.435 2.50038 39.8128 2.59703 40.1957C2.66147 40.4561 2.82257 40.5123 3.12544 40.5123C4.42067 40.502 5.71591 40.5123 7.0047 40.5123C8.16891 40.5123 8.88419 40.063 9.15054 39.1644C9.15698 39.1389 9.15054 39.1082 9.15054 39.0317V39.0266ZM8.90567 19.4775C8.6028 18.9976 8.35149 18.579 8.06795 18.1705C8.00996 18.0888 7.84886 18.0071 7.72642 18.0071C6.37964 17.9969 5.02641 17.9969 3.67962 18.0071C3.55718 18.0071 3.3832 18.0786 3.33165 18.1552C3.04167 18.5739 2.79035 19.0078 2.49393 19.4775H8.89922H8.90567Z" fill="#0E276C"/>
<path d="M15.066 45C12.9459 44.2239 12.4497 42.3502 13.9705 40.9054C14.0478 40.8288 14.0543 40.7062 14.08 40.599C14.0929 40.5582 14.0672 40.5122 14.0478 40.4714C13.2746 39.0367 13.2617 37.5204 13.2746 35.9939C13.3068 31.7614 13.2746 27.5238 13.2746 23.2913C13.2746 23.1484 13.3326 23.0054 13.3841 22.8676C13.4292 22.7553 13.5065 22.6532 13.571 22.551C14.0994 21.6984 14.834 20.8815 15.1046 19.983C15.3688 19.0793 15.182 18.0888 15.1691 17.1392C15.1304 14.4639 15.3108 11.8039 16.0841 9.19502C16.6447 7.31619 17.3342 5.46289 17.9851 3.60448C18.114 3.23689 18.4748 2.99182 18.9646 2.99182C19.4543 2.99182 19.8023 3.23689 19.9376 3.60448C21.4842 7.73484 22.8954 11.8907 22.7472 16.2611C22.7085 17.3741 22.7278 18.4871 22.7472 19.6001C22.7472 19.8502 22.8052 20.1412 22.9727 20.3455C24.3839 22.066 24.7512 23.9346 24.6675 25.9768C24.5193 29.4894 24.5901 33.0071 24.6417 36.5248C24.661 37.8727 24.5064 39.1797 23.9844 40.4561C23.8749 40.7216 23.9006 40.9207 24.1455 41.1709C25.299 42.3553 24.6159 44.3465 22.8889 44.9234C22.8632 44.9336 22.8438 44.9643 22.8245 44.9898H15.0531L15.066 45ZM22.7021 37.4847V24.0214H15.2142V37.4847H22.7021ZM20.8398 14.9745C20.756 12.0694 20.1567 9.2665 18.971 6.42783C17.882 9.27671 17.1796 12.0745 17.0958 14.9745H20.8398ZM19.0612 42.0082C17.9915 42.0082 16.9154 42.0184 15.8457 42.0082C15.3817 42.0082 15.1497 42.146 15.1755 42.5238C15.182 42.6412 15.1755 42.7587 15.1755 42.8761C15.1755 43.5194 15.2528 43.5858 16.0519 43.5858C17.882 43.5858 19.7121 43.5858 21.5421 43.5858C22.8889 43.5858 22.876 43.5858 22.8503 42.5136C22.8438 42.1256 22.6247 42.0031 22.1672 42.0082C21.1297 42.0184 20.0987 42.0082 19.0612 42.0082ZM17.0894 19.3907H20.814V16.5367H17.0894V19.3907ZM22.541 39.0316H15.4784C15.6137 39.4554 15.7233 39.8536 15.8844 40.2416C15.9166 40.3284 16.1228 40.4203 16.2452 40.4203C18.0882 40.4306 19.9376 40.4306 21.7806 40.4203C21.903 40.4203 22.1028 40.3233 22.1414 40.2416C22.2961 39.8536 22.4056 39.4605 22.541 39.0316ZM22.1672 22.4745C21.8772 22.0099 21.6195 21.5759 21.3295 21.1623C21.2715 21.0756 21.0717 21.0092 20.9364 21.0092C19.6283 20.999 18.3202 20.999 17.0056 21.0092C16.8703 21.0092 16.6705 21.0756 16.6061 21.1623C16.3097 21.5759 16.0519 22.0099 15.7555 22.4796H22.1608L22.1672 22.4745Z" fill="#0E276C"/>
<path d="M28.2696 44.9999C27.825 44.7549 27.2966 44.566 26.955 44.2545C26.1238 43.4887 26.2784 41.7273 27.1355 40.9768C27.2644 40.8645 27.3481 40.6245 27.2901 40.4969C26.562 39.0367 26.504 37.5153 26.5233 35.9683C26.5684 32.7467 26.5233 29.52 26.5233 26.2984C26.5233 26.1555 26.5877 26.0125 26.6457 25.8798C26.6973 25.7573 26.7746 25.6347 26.8648 25.5275C28.2309 23.904 28.5854 22.1272 28.4694 20.1923C28.3083 17.4659 28.5725 14.7447 29.3909 12.0796C29.945 10.262 30.6152 8.46489 31.2403 6.65753C31.3756 6.26441 31.7236 6.00913 32.2326 6.00403C32.7224 6.00403 33.0639 6.2542 33.2121 6.61669C34.4236 9.69021 35.6931 12.7637 35.9121 16.0057C36.0604 18.196 35.9895 20.3914 36.0346 22.5867C36.0346 22.8675 36.099 23.1892 36.2859 23.4189C37.6649 25.1191 38.058 26.9571 37.9549 28.9686C37.8002 31.94 37.9678 34.9166 37.884 37.888C37.8582 38.7916 37.4458 39.6851 37.2332 40.5888C37.2009 40.7317 37.1945 40.9206 37.2847 41.0279C38.5928 42.5493 38.0644 44.2443 36.041 45.0051H28.2696V44.9999ZM28.4694 27.0081V37.4744H35.983V27.0081H28.4694ZM30.3575 17.9714H34.0627C34.256 16.0874 32.9995 10.4458 32.1811 9.52683C31.1501 12.2736 30.4283 15.0612 30.351 17.9714H30.3575ZM32.2649 42.003C31.2274 42.003 30.1964 42.0183 29.1589 41.9979C28.6369 41.9877 28.3985 42.146 28.4243 42.5595C28.4307 42.6616 28.4243 42.7637 28.4243 42.8658C28.4243 43.5091 28.508 43.5755 29.3071 43.5755C31.1565 43.5755 32.9995 43.5755 34.8489 43.5755C36.1312 43.5755 36.1441 43.5551 36.1119 42.5442C36.099 42.1255 35.8735 41.9826 35.3644 41.9928C34.3334 42.0132 33.2959 41.9979 32.2584 41.9979L32.2649 42.003ZM30.3768 19.5183V22.3723H34.0949V19.5183H30.3768ZM35.809 39.0214H28.7336C28.8947 39.5064 29.0493 39.9608 29.1911 40.405H35.3515C35.4997 39.9506 35.6479 39.5166 35.809 39.0214ZM35.4224 25.4662C35.126 25.0016 34.8876 24.5881 34.6105 24.2001C34.5396 24.098 34.3398 24.001 34.1916 24.001C32.877 23.9856 31.5689 23.9856 30.2544 24.001C30.119 24.001 29.9193 24.0673 29.8548 24.1541C29.5649 24.5728 29.3071 25.0068 29.0171 25.4714H35.416L35.4224 25.4662Z" fill="#0E276C"/>
<path d="M9.45974 37.4796H1.97186V21.0194H9.46618V37.4796H9.45974Z" fill="white"/>
<path d="M22.702 37.4796H15.2142V24.0164H22.702V37.4796Z" fill="white"/>
</g>
<defs>
<clipPath id="clip0_19_2183">
<rect width="38" height="45" fill="white"/>
</clipPath>
</defs>
</svg>
