<svg width="42" height="46" viewBox="0 0 42 46" fill="none" xmlns="http://www.w3.org/2000/svg">
<g clip-path="url(#clip0_19_1205)">
<path d="M35.8755 12.593C34.7615 12.2766 33.6097 12.0574 32.5451 11.6231C31.3432 11.1281 30.7124 10.0884 30.5491 8.78045C30.4311 7.85434 30.1551 7.518 29.2626 7.27885C28.4968 7.07365 27.731 6.86845 26.9651 6.66325C26.2324 6.46691 25.6668 6.79244 25.4505 7.53357C25.3571 7.86036 25.2746 8.1901 25.1777 8.55175L28.4614 9.4316C28.4237 9.59443 28.4059 9.72683 28.3716 9.8548C27.987 11.2903 27.6119 12.7343 27.2107 14.1653C27.1242 14.488 27.1751 14.6507 27.4468 14.8488C30.1363 16.7561 32.109 19.2228 33.1195 22.4156C34.1667 25.7136 34.0125 28.9998 32.8125 32.2444C31.6139 35.4833 29.5916 38.0722 26.6752 39.9206C23.8879 41.6843 20.837 42.3159 17.5895 42.0062C17.0533 41.958 16.519 41.8804 15.9872 41.8154L14.3068 41.3652C13.7206 41.1067 13.1269 40.8761 12.5522 40.5969C7.57792 38.137 4.77964 34.1014 4.35018 28.5418C3.96344 23.5721 5.58792 19.2725 9.3062 15.8857C11.6733 13.7292 14.521 12.6436 17.6661 12.2996C18.4264 12.2171 18.239 12.3875 18.4458 11.6379C18.8459 10.1886 19.2225 8.73908 19.6116 7.28692C19.625 7.23684 19.648 7.19528 19.6843 7.10365L22.957 7.98055C23.0494 7.63559 23.1314 7.32958 23.2119 7.02913C23.8025 4.9571 25.5836 3.90773 27.6356 4.4695C28.6549 4.74261 29.6986 4.9686 30.674 5.36116C31.9435 5.86829 32.6114 6.92386 32.7903 8.28373C32.9062 9.1735 33.1752 9.51392 34.0166 9.74536C34.832 9.96384 35.6474 10.1823 36.4628 10.4008L36.4548 10.3867C36.2565 11.1267 36.0582 11.8667 35.86 12.6067L35.874 12.5985L35.8755 12.593ZM7.01376 23.9123C5.31032 30.3137 8.1712 37.1569 15.8252 39.3569C22.3817 41.2449 29.3183 37.0866 31.1148 30.3821C32.9127 23.6721 28.9837 16.65 22.3525 14.9746C14.8794 13.0914 8.81747 17.3351 7.01927 23.9138L7.01376 23.9123ZM20.686 12.2024L25.0496 13.3716L25.6593 11.0959L21.2958 9.92674L20.686 12.2024Z" fill="#0E276C"/>
<path d="M36.4659 10.3896L37.0518 8.20301L39.2335 8.78761L38.6476 10.9742L38.6616 10.966C37.9289 10.7697 37.1961 10.5734 36.4633 10.377L36.4714 10.3911L36.4659 10.3896Z" fill="#0E276C"/>
<path d="M38.6476 10.9742L40.8404 11.5618L40.2515 13.7595L38.0532 13.1705L38.0598 13.1901C38.2581 12.4501 38.4564 11.7101 38.6546 10.9701L38.6406 10.9783L38.6476 10.9742Z" fill="#0E276C"/>
<path d="M38.0532 13.1704L37.4584 15.3904L35.2821 14.8073C35.4849 14.0506 35.6802 13.3217 35.877 12.5873L35.863 12.5955L38.0613 13.1845L38.0532 13.1704Z" fill="#0E276C"/>
<path d="M17.8583 35.119C17.7482 35.8826 17.643 36.6058 17.5308 37.3331C11.4428 36.7156 6.88072 29.7862 9.53173 23.3525C10.2146 23.6249 10.8974 23.8974 11.6023 24.1757C10.721 26.6051 10.8368 28.9499 12.1027 31.1676C13.3671 33.3908 15.3084 34.6743 17.8528 35.1175L17.8583 35.119Z" fill="#0E276C"/>
</g>
<defs>
<clipPath id="clip0_19_1205">
<rect width="31.816" height="39.0883" fill="white" transform="translate(11) rotate(15)"/>
</clipPath>
</defs>
</svg>
