<svg width="36" height="36" viewBox="0 0 36 36" fill="none" xmlns="http://www.w3.org/2000/svg">
<g clip-path="url(#clip0_30_526)">
<path d="M36 27.9293V29.2624C35.9789 29.351 35.9494 29.4396 35.9367 29.5282C35.5444 32.5616 33.4265 34.9833 30.4901 35.7596C30.1104 35.8608 29.7181 35.9241 29.3341 36.0043H27.9292C27.866 35.9832 27.8027 35.9536 27.7352 35.9452C26.2543 35.7638 24.9465 35.1816 23.8242 34.207C23.6217 34.034 23.4319 33.9623 23.1703 33.9623C15.6269 33.9665 8.07925 33.9665 0.535826 33.9665C0.388164 33.9665 0.240502 33.9665 0.0211182 33.9665C0.0759641 33.1649 0.0548695 32.3971 0.189875 31.6588C0.864901 27.9925 3.84767 25.5413 7.56876 25.5413C9.94401 25.5413 12.3193 25.5413 14.6903 25.5413H15.1417C14.4836 24.8916 13.9056 24.3263 13.336 23.7567C9.66134 20.0863 5.98666 16.4158 2.32043 12.7369C0.544263 10.9566 -0.236236 8.79648 0.164561 6.31154C0.63708 3.40048 2.32465 1.37541 5.126 0.451463C7.91049 -0.46826 10.425 0.168796 12.5977 2.15591C12.7327 2.27825 12.9605 2.36685 13.1419 2.36685C16.3821 2.37951 19.6222 2.37529 22.8623 2.37529C22.9973 2.37529 23.1366 2.37529 23.2969 2.37529C23.2969 2.72968 23.2969 3.04188 23.2969 3.35408C23.3053 4.00379 23.7483 4.47631 24.3474 4.47631C24.976 4.47631 25.4654 3.9827 25.4696 3.33298C25.4696 3.02078 25.4696 2.70858 25.4696 2.37529H35.9958V4.20208C35.9494 4.47631 35.8988 4.75054 35.8566 5.02899C35.2195 9.11711 31.6461 12.4965 27.5284 12.834C26.2839 12.9352 25.0308 12.8888 23.7778 12.9099C23.6555 12.9099 23.5331 12.9099 23.3433 12.9099C23.4867 13.0618 23.5711 13.1546 23.6597 13.2432C27.0222 16.6099 30.3846 19.9766 33.7513 23.3349C34.7259 24.3052 35.4052 25.4443 35.7469 26.7775C35.8439 27.1572 35.9114 27.5496 35.9916 27.9335L36 27.9293ZM12.0619 13.6314C15.5552 17.1246 19.0189 20.5883 22.529 24.0943C21.5671 25.052 20.5883 26.035 19.5884 27.0306C20.1453 27.5833 20.7065 28.1444 21.2676 28.7055C22.5248 29.9628 23.7441 31.258 25.0519 32.4604C26.7142 33.9918 28.6802 34.3336 30.7433 33.4265C32.8063 32.5152 33.8568 30.8319 33.8821 28.5747C33.899 27.0602 33.2662 25.8029 32.1946 24.7355C26.9969 19.5463 21.8034 14.3528 16.6141 9.15508C14.8126 7.35361 13.0196 5.53947 11.2012 3.75065C9.76259 2.3331 8.03284 1.83105 6.07948 2.34576C2.14745 3.37939 0.856463 8.22692 3.72111 11.1506C5.4593 12.9226 7.22281 14.6608 8.97787 16.4116C9.02428 16.458 9.08335 16.5002 9.14241 16.5508C10.1254 15.5636 11.1 14.589 12.0577 13.6271L12.0619 13.6314ZM14.9434 4.48053C15.0194 4.57334 15.0447 4.61131 15.0742 4.64085C17.074 6.64483 19.0737 8.6446 21.0819 10.6401C21.179 10.7372 21.3646 10.792 21.5123 10.792C23.1492 10.8005 24.7861 10.8089 26.4231 10.792C26.9251 10.7878 27.4272 10.7414 27.9208 10.6528C30.9415 10.117 33.4771 7.45486 33.7977 4.50162C33.7513 4.49318 33.7092 4.47631 33.6627 4.47631C31.6377 4.47631 29.6168 4.47209 27.5917 4.48475C27.4905 4.48475 27.3512 4.59866 27.3006 4.69991C26.672 5.91074 25.6848 6.57733 24.3221 6.56889C22.9847 6.56045 22.027 5.88543 21.4405 4.67882C21.3941 4.586 21.2423 4.48896 21.1368 4.48475C20.5883 4.46365 20.0399 4.47631 19.4872 4.47631C17.9937 4.47631 16.496 4.47631 14.9308 4.47631L14.9434 4.48053ZM2.29089 31.8402H21.3941C21.3393 31.7727 21.3182 31.7389 21.2887 31.7094C19.9808 30.4015 18.6772 29.0937 17.3609 27.7942C17.268 27.7057 17.0951 27.655 16.9601 27.655C13.7917 27.6466 10.619 27.6466 7.45063 27.6508C6.04151 27.6508 4.82224 28.1444 3.80127 29.1148C3.02077 29.8573 2.51028 30.7601 2.29089 31.8444V31.8402ZM15.0742 22.4489C15.5509 21.9721 16.0361 21.4912 16.4833 21.0482C16.0277 20.5841 15.5509 20.0947 15.1037 19.6391C14.6312 20.1074 14.1503 20.5883 13.682 21.0524C14.1418 21.5081 14.6186 21.9848 15.0784 22.4489H15.0742ZM10.7034 18.0486C11.1717 18.5169 11.6527 18.9978 12.1125 19.4619C12.5682 19.0063 13.0491 18.5211 13.4921 18.0823C13.0365 17.6267 12.5471 17.1373 12.0788 16.669C11.6316 17.1162 11.1548 17.5929 10.7034 18.0486ZM16.6605 24.0141C17.1246 24.4782 17.6098 24.9634 18.0696 25.4232C18.5253 24.9676 19.0105 24.4824 19.4745 24.0225C19.0105 23.5542 18.5253 23.0733 18.0654 22.6092C17.6056 23.0691 17.1246 23.55 16.6605 24.0141Z" fill="#0E276C"/>
<path d="M36 2.37525H25.4738C25.4738 2.71276 25.4738 3.02496 25.4738 3.33294C25.4654 3.98266 24.976 4.47627 24.3516 4.47627C23.7525 4.47627 23.3095 4.00375 23.3011 3.35404C23.3011 3.04184 23.3011 2.72542 23.3011 2.37525C23.1365 2.37525 23.0015 2.37525 22.8665 2.37525C19.6264 2.37525 16.3863 2.37525 13.1461 2.36681C12.9605 2.36681 12.7369 2.27821 12.6019 2.15587C10.4249 0.168757 7.91047 -0.4683 5.12598 0.451424C2.32462 1.37537 0.637056 3.40045 0.164538 6.3115C-0.236259 8.79644 0.540021 10.9523 2.3204 12.7369C5.99086 16.4116 9.66553 20.082 13.336 23.7567C13.9055 24.3263 14.4835 24.8916 15.1417 25.5413H14.6903C12.315 25.5413 9.93976 25.5413 7.56873 25.5413C3.84765 25.5413 0.864878 27.9925 0.189851 31.6587C0.0548459 32.397 0.0759405 33.1649 0.0210946 33.9665C0.240478 33.9665 0.38814 33.9665 0.535802 33.9665C8.07922 33.9665 15.6269 33.9665 23.1703 33.9623C23.4319 33.9623 23.6259 34.0298 23.8242 34.207C24.9507 35.1815 26.2543 35.7637 27.7351 35.9452C27.8026 35.9536 27.8659 35.9831 27.9292 36.0042H0V0H36V2.37525Z" fill="white"/>
<path d="M29.3341 36C29.718 35.9198 30.1104 35.8566 30.4901 35.7553C33.4265 34.9832 35.5443 32.5574 35.9367 29.524C35.9494 29.4354 35.9789 29.3468 36 29.2582V35.9958H29.3341V36Z" fill="white"/>
<path d="M25.4738 28.5958C25.4864 26.8703 26.9082 25.4654 28.6422 25.4696C30.3888 25.4738 31.8022 26.904 31.7853 28.6549C31.7726 30.3846 30.3466 31.7895 28.6127 31.7811C26.8702 31.7727 25.4569 30.3425 25.4696 28.5916L25.4738 28.5958ZM29.68 28.6338C29.68 28.06 29.2202 27.5875 28.6464 27.5791C28.0684 27.5706 27.5917 28.0263 27.579 28.6043C27.5664 29.1907 28.0431 29.6801 28.6295 29.6801C29.2033 29.6801 29.6758 29.2076 29.68 28.6338Z" fill="#0E276C"/>
<path d="M7.43372 10.5853C5.69131 10.5853 4.26953 9.1551 4.28219 7.40847C4.29063 5.67871 5.70818 4.26959 7.44216 4.27381C9.18879 4.27381 10.6063 5.69981 10.5979 7.45066C10.5895 9.18041 9.16769 10.5895 7.43794 10.5895L7.43372 10.5853ZM7.43372 8.48007C8.00749 8.48007 8.48001 8.01599 8.48845 7.44222C8.49688 6.86845 8.0328 6.39171 7.45903 6.37905C6.86838 6.36639 6.38321 6.84735 6.38743 7.43378C6.38743 8.00755 6.85995 8.48007 7.43372 8.48007Z" fill="#0E276C"/>
</g>
<defs>
<clipPath id="clip0_30_526">
<rect width="36" height="36" fill="white"/>
</clipPath>
</defs>
</svg>
