<svg width="42" height="42" viewBox="0 0 42 42" fill="none" xmlns="http://www.w3.org/2000/svg">
<g clip-path="url(#clip0_30_864)">
<path d="M30.5779 34.8525C29.6435 36.4197 28.2972 37.0527 26.539 37.0343C22.9119 36.9974 19.2787 36.9851 15.6517 37.0343C13.832 37.0588 12.3873 36.5057 11.4222 34.8525C10.7521 35.5224 10.1004 36.1616 9.46724 36.8253C9.39961 36.8991 9.41191 37.1019 9.45494 37.2248C10.1189 39.2344 8.9324 41.2502 6.85453 41.6313C5.27461 41.9201 3.65781 40.9614 3.15371 39.4004C3.05535 39.0992 2.9324 38.9333 2.60658 38.835C0.86068 38.288 -0.0921884 36.4135 0.46109 34.6682C1.01437 32.9228 2.86478 31.9456 4.61683 32.5049C4.95494 32.6155 5.15166 32.5725 5.40371 32.3205C7.16191 30.5382 8.9324 28.7744 10.709 27.0106C10.9119 26.8078 10.9918 26.6049 10.9918 26.3161C10.9795 23.274 10.9795 20.2257 10.9918 17.1835C10.9918 16.7164 11.1209 16.2494 11.164 15.7823C11.1763 15.6409 11.1517 15.4504 11.0595 15.3582C9.12912 13.41 7.19265 11.4741 5.25002 9.55051C5.15166 9.45832 4.92421 9.40916 4.79511 9.45218C2.9324 10.0483 1.04511 9.13874 0.467238 7.33804C-0.116779 5.53119 0.872976 3.68747 2.75412 3.11592C3.01232 3.03602 3.0615 2.88238 3.12298 2.68572C3.62707 1.08782 5.21929 0.0799209 6.80535 0.356479C8.54511 0.657621 9.73158 2.09572 9.63937 3.82268C9.62093 4.12382 9.5656 4.43725 9.46109 4.71381C9.36273 4.97193 9.39347 5.13172 9.59019 5.32838C10.6414 6.36087 11.6804 7.40565 12.7254 8.45042C12.7992 8.52417 12.8853 8.59177 13.0021 8.7024C13.4693 7.3196 14.6435 7.73752 15.6578 7.63918C15.6578 7.38721 15.6517 7.15982 15.6578 6.92628C15.6947 5.87536 16.5308 5.00881 17.582 4.99651C19.8627 4.97808 22.1435 4.97808 24.4242 4.99651C25.457 5.00881 26.2869 5.86921 26.3299 6.89555C26.3422 7.12909 26.3299 7.36263 26.3299 7.63304C27.3074 7.75595 28.5062 7.30117 28.9795 8.69011C29.084 8.60406 29.1701 8.54261 29.2439 8.46886C30.2951 7.41794 31.3463 6.36087 32.4037 5.31609C32.582 5.13787 32.625 4.99651 32.539 4.74454C31.9242 2.96842 32.8709 1.06324 34.6353 0.48554C36.4242 -0.104451 38.3054 0.872722 38.8648 2.70415C38.9385 2.93769 39.0431 3.06061 39.2828 3.13435C41.1148 3.69362 42.0984 5.56807 41.5144 7.35648C40.9304 9.13874 39.0308 10.079 37.2234 9.45832C36.9775 9.37228 36.8484 9.42759 36.6885 9.59353C34.7828 11.5049 32.8771 13.41 30.9652 15.3152C30.7992 15.475 30.7562 15.6102 30.8176 15.856C30.9222 16.2985 30.9959 16.7595 30.9959 17.2142C31.0082 20.2441 31.0082 23.274 30.9959 26.3099C30.9959 26.6049 31.0635 26.8262 31.2849 27.0413C33.0861 28.8236 34.8689 30.612 36.6578 32.4065C36.8422 32.5909 36.9836 32.6585 37.2603 32.5602C39.0308 31.9456 40.9365 32.9043 41.5144 34.6682C42.0922 36.4443 41.1209 38.3249 39.3197 38.878C39.0431 38.964 38.9263 39.0992 38.8463 39.3635C38.2869 41.1581 36.3996 42.1229 34.6291 41.5391C32.8771 40.9614 31.9242 39.0747 32.5205 37.317C32.6189 37.0343 32.582 36.8745 32.373 36.6717C31.7644 36.0878 31.1804 35.4794 30.5656 34.8648L30.5779 34.8525ZM29.6803 25.007C29.6803 22.3951 29.6803 19.7832 29.6803 17.1712C29.6803 15.4812 28.5861 14.3626 26.914 14.338C26.6619 14.338 26.5451 14.2459 26.4406 14.0369C26.1086 13.3486 25.7521 12.6725 25.4324 11.9842C25.3156 11.7261 25.1619 11.6585 24.8914 11.6585C22.291 11.6708 19.6906 11.6708 17.0963 11.6585C16.8381 11.6585 16.6967 11.7322 16.5861 11.9658C16.2541 12.6664 15.8914 13.3547 15.5533 14.0553C15.4549 14.252 15.3443 14.3319 15.1107 14.338C13.4017 14.3688 12.3258 15.475 12.3258 17.1958C12.3258 22.4074 12.3258 27.619 12.3258 32.8306C12.3258 34.576 13.4447 35.6884 15.1967 35.6884C19.0635 35.6884 22.9242 35.6884 26.791 35.6884C28.5676 35.6884 29.6803 34.5821 29.6803 32.806C29.6803 30.2064 29.6803 27.6067 29.6803 25.007ZM15.2459 11.6585C14.9263 11.6585 14.6804 11.6585 14.4345 11.6585C13.8013 11.6585 13.3525 11.3819 13.082 10.7981C13.0082 10.6383 12.8853 10.497 12.7623 10.374C11.164 8.77 9.55945 7.16596 7.95494 5.56192C7.85043 5.45745 7.75207 5.34682 7.65371 5.24234C7.79511 5.02724 7.9242 4.84902 8.03486 4.6585C8.46519 3.92101 8.39757 3.04217 7.86888 2.39687C7.33404 1.73313 6.44879 1.48115 5.64961 1.76385C4.87502 2.03427 4.34019 2.77176 4.3156 3.60143C4.30945 3.83497 4.3156 4.06236 4.3156 4.32663C3.10453 4.22215 2.13937 4.52329 1.73978 5.734C1.46929 6.55139 1.69675 7.29502 2.36068 7.83585C3.35658 8.64709 4.32175 8.36438 5.27461 7.6146C7.51847 9.86394 9.75002 12.0887 11.9939 14.338C12.6578 13.6436 13.4447 13.1765 14.3976 13.029C14.4898 13.0167 14.6004 12.9245 14.6435 12.8385C14.8402 12.4759 15.0185 12.101 15.2398 11.6462L15.2459 11.6585ZM36.75 7.65147C36.9775 7.79897 37.1558 7.92803 37.3463 8.03866C38.084 8.46886 38.957 8.4074 39.6086 7.87887C40.2603 7.35033 40.5185 6.48993 40.2603 5.70327C40.0021 4.91047 39.2582 4.35121 38.4099 4.32663C38.1763 4.32048 37.9488 4.32663 37.6783 4.32663C37.7828 3.11592 37.4754 2.16333 36.2705 1.75156C35.4959 1.4873 34.6353 1.75156 34.1373 2.40301C33.3689 3.39862 33.6455 4.35121 34.4078 5.30995C34.2664 5.41442 34.1312 5.49432 34.0267 5.60494C32.4222 7.20284 30.8176 8.80687 29.2193 10.4109C29.0963 10.5338 28.9857 10.6875 28.9119 10.8411C28.6476 11.3819 28.2234 11.6585 27.6209 11.6646C27.3504 11.6646 27.0861 11.6646 26.7603 11.6646C26.9816 12.1133 27.1476 12.4882 27.3566 12.8508C27.4181 12.9614 27.5902 13.0413 27.7193 13.0659C28.4078 13.1888 29.0103 13.4838 29.5451 13.9201C29.7111 14.0553 29.8709 14.209 30.0492 14.3688C32.2931 12.1194 34.5123 9.89467 36.75 7.65762V7.65147ZM7.62912 36.7516C8.69265 35.6884 9.73158 34.6682 10.7521 33.6295C10.875 33.5066 10.9795 33.3038 10.9795 33.1379C10.998 31.7612 10.9857 30.3907 10.9795 29.0141C10.9795 28.9157 10.9611 28.8174 10.9365 28.5962C8.98158 30.5567 7.09429 32.4373 5.20084 34.3301C5.05945 34.238 4.91191 34.1335 4.76437 34.0351C4.00207 33.5435 3.11683 33.5681 2.4283 34.0905C1.73978 34.619 1.46314 35.5101 1.73978 36.3275C2.01027 37.1326 2.76642 37.6673 3.64552 37.6857C3.86068 37.6857 4.07584 37.6857 4.28486 37.6857C4.36478 39.2836 4.74593 39.9596 5.69265 40.2608C6.48568 40.5128 7.35248 40.2608 7.86273 39.597C8.60658 38.6137 8.35453 37.6734 7.61683 36.7516H7.62912ZM34.3648 36.7393C34.2295 36.9421 34.1189 37.1019 34.0144 37.2617C33.5349 38.0299 33.5779 38.921 34.1127 39.597C34.6476 40.2669 35.5205 40.525 36.3197 40.2546C37.125 39.9842 37.6599 39.2344 37.6783 38.3495C37.6783 38.1344 37.6783 37.9193 37.6783 37.6734C38.8771 37.7902 39.8054 37.4829 40.2295 36.3337C40.5246 35.5286 40.3279 34.7726 39.6824 34.2134C38.6865 33.3468 37.6906 33.6234 36.6947 34.4039C34.7951 32.4987 32.9201 30.6181 31.039 28.7375C31.0328 28.7498 31.0082 28.7744 31.0082 28.7928C31.0082 30.2678 30.9959 31.7366 31.0082 33.2116C31.0082 33.353 31.125 33.5128 31.2295 33.6234C32.2562 34.6559 33.2951 35.6822 34.3525 36.7393H34.3648ZM27.6578 9.02198H14.3607V10.3064H27.6578V9.02198ZM16.998 7.62689H25.0082C25.0082 7.47939 25.0082 7.36877 25.0082 7.25815C25.0082 6.5268 24.8054 6.32399 24.0676 6.32399C23.373 6.32399 22.6783 6.32399 21.9836 6.32399C20.582 6.32399 19.1804 6.32399 17.7787 6.32399C17.2562 6.32399 17.0164 6.56982 16.998 7.08607C16.998 7.26429 16.998 7.44252 16.998 7.62689Z" fill="#0E276C"/>
<path d="M35.6988 41.7726C35.3361 41.7726 34.9734 41.7173 34.6229 41.6005C33.75 41.3117 33.0492 40.7033 32.6434 39.8859C32.2377 39.0685 32.1762 38.1466 32.4652 37.2801C32.5512 37.0281 32.5205 36.8929 32.3361 36.7147C31.8996 36.2968 31.4816 35.8727 31.0451 35.4302C30.8975 35.2827 30.75 35.1291 30.6025 34.9816C29.7172 36.4197 28.4139 37.1142 26.625 37.1142C26.6004 37.1142 26.5758 37.1142 26.5512 37.1142C22.377 37.0711 18.916 37.0711 15.6639 37.1142C13.6721 37.151 12.3197 36.4627 11.416 34.9816L11.0164 35.3811C10.5 35.8912 10.0143 36.3767 9.53483 36.8868C9.49795 36.9236 9.49795 37.0834 9.53483 37.2125C9.8668 38.2081 9.76229 39.2344 9.25204 40.101C8.7418 40.9614 7.89959 41.5329 6.87295 41.7235C5.26229 42.0185 3.59631 41.0167 3.08606 39.4434C3 39.1791 2.90163 39.0255 2.59426 38.9271C1.73975 38.6629 1.03893 38.0729 0.620897 37.2739C0.196716 36.4627 0.116798 35.5347 0.393438 34.6681C0.670077 33.7955 1.26639 33.0826 2.07786 32.6646C2.87704 32.2529 3.78688 32.1791 4.64139 32.4495C4.96106 32.554 5.12704 32.511 5.34836 32.2836C7.19262 30.4153 9.06762 28.547 10.6537 26.9737C10.8381 26.7893 10.9119 26.6111 10.9119 26.3345C10.9057 23.8209 10.8934 20.5145 10.9119 17.202C10.9119 16.9192 10.9611 16.6304 11.0041 16.3538C11.0348 16.1695 11.0656 15.9789 11.084 15.7946C11.0963 15.6655 11.0717 15.4996 11.0041 15.432C8.95696 13.367 7.05737 11.468 5.19467 9.62425C5.1209 9.5505 4.92418 9.50748 4.81967 9.54436C2.89549 10.1651 0.989749 9.23092 0.393438 7.38105C0.110651 6.50221 0.184421 5.58035 0.596307 4.78141C1.02663 3.95788 1.78278 3.3433 2.7295 3.0606C2.94467 2.99299 2.98155 2.87623 3.04303 2.68571C3.57172 1.02636 5.18237 1.82539e-05 6.81762 0.276577C8.58811 0.583864 9.80532 2.07728 9.71926 3.82267C9.70082 4.15454 9.63934 4.46797 9.53483 4.73839C9.44877 4.97192 9.47336 5.09484 9.64549 5.26692C10.3955 6.00441 11.1516 6.76033 11.877 7.49168C12.1783 7.79282 12.4734 8.09396 12.7746 8.38896C12.8238 8.43812 12.8729 8.48114 12.9344 8.53031C12.9467 8.5426 12.959 8.54875 12.9652 8.56104C13.3647 7.54084 14.1762 7.55928 14.9631 7.56543C15.166 7.56543 15.375 7.57157 15.5717 7.55928C15.5717 7.50397 15.5717 7.4548 15.5717 7.39949C15.5717 7.23356 15.5717 7.07377 15.5717 6.91398C15.6147 5.8016 16.4877 4.92276 17.5697 4.91047C19.9242 4.89203 22.2295 4.89203 24.4119 4.91047C25.4754 4.92276 26.3422 5.78931 26.3975 6.88325C26.4037 7.04304 26.3975 7.20283 26.3975 7.36876C26.3975 7.43022 26.3975 7.49168 26.3975 7.55313C26.6066 7.57157 26.8279 7.57157 27.043 7.56543C27.8115 7.55314 28.6107 7.54084 29.0041 8.55489C29.0041 8.55489 29.0164 8.54875 29.0225 8.5426C29.084 8.49343 29.1393 8.45041 29.1824 8.40739C29.5389 8.05094 29.8955 7.69449 30.252 7.33803C30.9467 6.64357 31.6414 5.9491 32.3422 5.25463C32.5082 5.09484 32.5328 4.98421 32.459 4.76297C32.1578 3.88413 32.2131 2.94383 32.6189 2.1203C33.0246 1.30292 33.7254 0.694487 34.5984 0.405637C35.4775 0.116787 36.4057 0.184391 37.2172 0.602301C38.041 1.02636 38.6496 1.76385 38.9262 2.67342C38.9939 2.89466 39.0861 2.98685 39.2951 3.05445C40.2111 3.33101 40.9488 3.93944 41.373 4.75682C41.791 5.56191 41.8647 6.48992 41.582 7.36876C41.2992 8.2476 40.6906 8.95436 39.8729 9.35998C39.043 9.77175 38.0902 9.82706 37.1926 9.51977C36.9775 9.44602 36.8791 9.49519 36.7377 9.63654C34.8873 11.4926 32.9631 13.4223 31.0143 15.3582C30.8668 15.5057 30.8361 15.6163 30.8852 15.8253C31.002 16.3108 31.0635 16.7717 31.0635 17.1958C31.082 20.4899 31.0758 23.784 31.0635 26.2915C31.0635 26.5865 31.1373 26.777 31.3279 26.9675C32.8832 28.5101 34.5922 30.2125 36.7008 32.3328C36.8668 32.4987 36.9775 32.554 37.2234 32.468C38.0963 32.1668 39.0307 32.2221 39.8545 32.6339C40.6783 33.0457 41.2869 33.7524 41.5758 34.6313C41.8647 35.5101 41.7848 36.4381 41.3668 37.2494C40.9426 38.0606 40.2234 38.6629 39.332 38.9333C39.0922 39.007 38.9877 39.1177 38.9078 39.3696C38.6311 40.2546 38.0287 40.9737 37.2172 41.3977C36.7316 41.6497 36.2029 41.7726 35.6742 41.7726H35.6988ZM30.5656 34.7296L30.6332 34.7972C30.8053 34.9693 30.9775 35.1475 31.1496 35.3196C31.5861 35.7621 32.0041 36.1861 32.4406 36.6041C32.668 36.8253 32.7111 37.0158 32.6066 37.3293C32.3238 38.1528 32.3852 39.0378 32.7725 39.8183C33.1598 40.5988 33.8361 41.1826 34.666 41.453C35.502 41.7296 36.3934 41.662 37.168 41.2625C37.9488 40.8631 38.5205 40.1747 38.7848 39.3266C38.877 39.0255 39.0184 38.8841 39.3074 38.7919C40.1557 38.5277 40.8504 37.9561 41.25 37.1818C41.6496 36.4074 41.7234 35.5224 41.4467 34.6804C41.1762 33.8446 40.5922 33.1624 39.8053 32.7753C39.0184 32.3881 38.127 32.3328 37.291 32.6216C36.9713 32.7322 36.7992 32.6462 36.6086 32.4495C34.5 30.3293 32.7971 28.6269 31.2357 27.0843C31.0143 26.8631 30.9221 26.6357 30.9221 26.2976C30.9283 23.7902 30.9344 20.4961 30.9221 17.2081C30.9221 16.7963 30.8607 16.3477 30.7438 15.8683C30.6824 15.6041 30.7254 15.4443 30.916 15.2537C32.8648 13.3117 34.7889 11.3881 36.6393 9.53206C36.8115 9.35998 36.9652 9.28009 37.2541 9.37842C38.1147 9.67956 39.0246 9.62425 39.8176 9.23092C40.5984 8.84374 41.1762 8.16771 41.4467 7.33189C41.7234 6.48992 41.6496 5.60493 41.25 4.83672C40.8443 4.05621 40.1373 3.47851 39.2643 3.2081C39.0061 3.1282 38.877 2.99299 38.791 2.72873C38.5205 1.85603 37.9426 1.15542 37.1557 0.749799C36.3811 0.350326 35.4959 0.282722 34.6537 0.559281C33.8176 0.835839 33.1475 1.41354 32.7602 2.20019C32.3729 2.98685 32.3176 3.88413 32.6066 4.72609C32.7049 5.00265 32.6619 5.17473 32.4529 5.37754C31.752 6.06587 31.0574 6.76648 30.3627 7.46095C30.0061 7.8174 29.6496 8.17386 29.293 8.53031C29.2439 8.57947 29.1824 8.62864 29.1209 8.67781C29.0902 8.70239 29.0594 8.72697 29.0225 8.7577L28.9365 8.8253L28.8996 8.72083C28.5553 7.71292 27.8238 7.72522 27.0492 7.73751C26.8033 7.73751 26.5574 7.74365 26.3176 7.71292H26.25V7.63918C26.25 7.55314 26.25 7.46709 26.25 7.3872C26.25 7.22127 26.25 7.06762 26.25 6.90783C26.2008 5.89378 25.3955 5.08869 24.418 5.08255C22.2357 5.06411 19.9365 5.05796 17.5758 5.08255C16.5799 5.08869 15.7684 5.90608 15.7316 6.93856C15.7316 7.09835 15.7316 7.25814 15.7316 7.41793C15.7316 7.49168 15.7316 7.57157 15.7316 7.64532V7.71292H15.6639C15.4365 7.74365 15.1967 7.73751 14.9693 7.73136C14.1824 7.71907 13.4262 7.70678 13.0758 8.72697L13.0389 8.83759L12.9529 8.7577C12.9098 8.72083 12.8729 8.68395 12.8361 8.65322C12.7746 8.59791 12.7193 8.54875 12.6701 8.49958C12.3688 8.19844 12.0738 7.8973 11.7725 7.6023C11.041 6.87096 10.291 6.11503 9.54098 5.38369C9.31967 5.16859 9.28278 4.98421 9.39344 4.68922C9.4918 4.4311 9.54713 4.12996 9.56557 3.81652C9.65164 2.14488 8.4836 0.71907 6.79303 0.43022C5.2377 0.165953 3.69467 1.14313 3.20286 2.71029C3.14139 2.9131 3.07991 3.09747 2.78483 3.18966C1.88114 3.46622 1.15573 4.05006 0.743848 4.83672C0.344257 5.59264 0.276634 6.47763 0.547126 7.31345C1.11885 9.08342 2.93852 9.97456 4.77663 9.37842C4.93647 9.32925 5.19467 9.37842 5.31147 9.49519C7.17418 11.3389 9.07377 13.2379 11.127 15.3029C11.2316 15.4135 11.2684 15.6225 11.25 15.7884C11.2316 15.9789 11.2008 16.1695 11.1701 16.36C11.127 16.6304 11.0779 16.9131 11.0779 17.1835C11.0594 20.4961 11.0656 23.8025 11.0779 26.3161C11.0779 26.6295 10.9857 26.8508 10.7766 27.0597C9.19057 28.633 7.31557 30.5013 5.47131 32.3696C5.20696 32.6401 4.9795 32.6954 4.6045 32.5786C3.78688 32.3205 2.92008 32.3881 2.15778 32.7814C1.38934 33.1809 0.817618 33.8569 0.547126 34.6927C0.282782 35.5224 0.356552 36.4074 0.76229 37.1818C1.16188 37.9438 1.82581 38.5031 2.64344 38.7612C3.01229 38.878 3.14139 39.0746 3.23975 39.3758C3.72541 40.8815 5.31147 41.8341 6.8545 41.5514C7.83811 41.3731 8.64344 40.82 9.12909 40.0026C9.61475 39.1791 9.71311 38.1958 9.39959 37.2432C9.35655 37.1142 9.32582 36.8745 9.43032 36.7638C9.91598 36.2537 10.4016 35.7682 10.918 35.2581L11.459 34.7173L11.5082 34.8034C12.3811 36.2906 13.7029 36.9667 15.6701 36.9421C18.9221 36.8929 22.3832 36.8929 26.5574 36.9421C26.582 36.9421 26.6066 36.9421 26.6311 36.9421C28.4201 36.9421 29.6557 36.2599 30.5225 34.7972L30.5717 34.7112L30.5656 34.7296ZM35.6865 40.439C35.0656 40.439 34.4693 40.1563 34.0635 39.6462C33.5041 38.9456 33.4611 38.0176 33.959 37.2248C34.0266 37.1142 34.1004 37.0035 34.1803 36.8868L34.2725 36.7516L33.7131 36.1984C32.8463 35.338 32.0225 34.5207 31.1926 33.6848C31.1373 33.6295 30.9467 33.4206 30.9467 33.2239C30.9344 31.9886 30.9467 30.741 30.9467 29.5242V28.8051C30.9467 28.7621 30.9713 28.7375 30.9836 28.7191L31.0328 28.6207L31.1127 28.6945L36.7193 34.3117C37.8811 33.4206 38.8463 33.3714 39.75 34.1642C40.4262 34.7542 40.6291 35.5347 40.3217 36.3705C39.9344 37.4214 39.1045 37.8762 37.7766 37.7656V37.9131C37.7766 38.0667 37.7766 38.2142 37.7766 38.3617C37.7582 39.2775 37.2049 40.058 36.3627 40.3407C36.1414 40.4144 35.9139 40.4513 35.6926 40.4513L35.6865 40.439ZM31.1066 28.9034V29.518C31.0943 30.7287 31.0881 31.9825 31.1066 33.2116C31.1066 33.3038 31.1865 33.4451 31.3094 33.5681C32.1393 34.4039 32.9631 35.2213 33.8299 36.0817L34.4816 36.727L34.3217 36.9667C34.2418 37.0834 34.168 37.194 34.1004 37.2985C33.6393 38.036 33.6762 38.8964 34.1926 39.5417C34.709 40.187 35.5451 40.439 36.3197 40.1747C37.0943 39.9105 37.6107 39.1914 37.6291 38.3372C37.6291 38.1958 37.6291 38.0483 37.6291 37.8947V37.5812L37.7152 37.5874C39.0246 37.7164 39.8176 37.3108 40.1865 36.3029C40.4693 35.5347 40.2848 34.8095 39.6578 34.2687C38.8033 33.525 37.8811 33.5865 36.7684 34.4653L36.7131 34.5084L31.1188 28.9034H31.1066ZM6.32582 40.4329C6.1168 40.4329 5.90163 40.4021 5.68647 40.3345C4.71516 40.0272 4.31557 39.3266 4.2295 37.7656H4.10041C3.95286 37.7656 3.80532 37.7656 3.65778 37.7656C2.73565 37.7472 1.96106 37.194 1.67827 36.3582C1.39549 35.5163 1.67827 34.5821 2.39139 34.0351C3.1045 33.4943 4.02663 33.4697 4.81352 33.9737C4.91188 34.0351 5.01024 34.1027 5.10245 34.1642L5.20082 34.2318L11.0041 28.4302L11.0225 28.59C11.0287 28.6699 11.041 28.7375 11.0471 28.7867C11.0594 28.8789 11.0656 28.9465 11.0656 29.0141V29.7393C11.0656 30.8516 11.0717 32.007 11.0656 33.1379C11.0656 33.3407 10.9365 33.5558 10.8135 33.6787C10.0266 34.4776 9.2459 35.252 8.41598 36.0755L7.7336 36.7516C8.54508 37.8025 8.6127 38.7428 7.93647 39.6401C7.55532 40.1502 6.94672 40.4329 6.31967 40.4329H6.32582ZM4.30327 37.612H4.37704V37.6857C4.45696 39.2406 4.81352 39.8982 5.73565 40.1932C6.50409 40.4329 7.34631 40.1809 7.81967 39.554C8.46516 38.6998 8.39139 37.8209 7.57377 36.8007L7.53073 36.7454L8.31147 35.971C9.13524 35.1475 9.91598 34.3732 10.709 33.5742C10.8258 33.4574 10.9119 33.2731 10.9119 33.1379C10.9242 32.007 10.9242 30.8578 10.918 29.7393V29.0141C10.918 28.9588 10.9057 28.8973 10.8996 28.8051C10.8996 28.7928 10.8996 28.7805 10.8996 28.7621L5.23155 34.4285L5.02868 34.2871C4.93647 34.2257 4.84426 34.1581 4.7459 34.0966C4.01434 33.6295 3.15983 33.648 2.4959 34.1519C1.83811 34.6559 1.56762 35.5224 1.83196 36.3029C2.09631 37.0773 2.81557 37.5935 3.67008 37.6058C3.81762 37.6058 3.96516 37.6058 4.10655 37.6058H4.30327V37.612ZM21 35.7621C19.0697 35.7621 17.1332 35.7621 15.2029 35.7621C13.4139 35.7621 12.2582 34.6067 12.252 32.8244C12.252 27.6128 12.252 22.4012 12.252 17.1897C12.252 15.4381 13.377 14.2889 15.1168 14.2581C15.3135 14.2581 15.3996 14.1967 15.4918 14.0185C15.6455 13.6989 15.8053 13.3793 15.9652 13.0659C16.1496 12.6971 16.3463 12.3099 16.5246 11.9289C16.6414 11.6769 16.8074 11.5786 17.0963 11.5786H17.1025C19.7889 11.5909 22.4139 11.5909 24.8975 11.5786H24.9037C25.2172 11.5786 25.3832 11.6769 25.5061 11.9473C25.6844 12.3345 25.8811 12.7217 26.0717 13.1027C26.2254 13.4039 26.3729 13.6989 26.5143 14.0062C26.6066 14.2028 26.7049 14.2643 26.9139 14.2643C28.6414 14.2889 29.7541 15.4258 29.7541 17.1712C29.7541 18.9781 29.7541 20.7911 29.7541 22.5979V27.2379C29.7541 29.094 29.7541 30.95 29.7541 32.806C29.7541 34.6313 28.6168 35.7682 26.7848 35.7682C24.8545 35.7682 22.918 35.7682 20.9877 35.7682L21 35.7621ZM17.0902 11.7261C16.8566 11.7261 16.752 11.7937 16.6537 11.9904C16.4754 12.3714 16.2787 12.7586 16.0943 13.1273C15.9344 13.4469 15.7746 13.7603 15.6209 14.0799C15.5102 14.3135 15.3688 14.3995 15.1107 14.4056C13.4385 14.4364 12.3996 15.4996 12.3996 17.1835C12.3996 22.3951 12.3996 27.6067 12.3996 32.8183C12.3996 34.5084 13.5 35.6023 15.1967 35.6023C19.0635 35.6023 22.9242 35.6023 26.791 35.6023C28.5246 35.6023 29.6066 34.5268 29.6066 32.7937C29.6066 30.9377 29.6066 29.0817 29.6066 27.2257V22.5856C29.6066 20.7788 29.6066 18.9658 29.6066 17.1589C29.6066 15.5057 28.5492 14.4241 26.9139 14.4056C26.6434 14.4056 26.4959 14.3073 26.3729 14.0615C26.2316 13.7603 26.0779 13.4592 25.9303 13.1642C25.7398 12.7893 25.543 12.396 25.3647 12.0088C25.2664 11.7937 25.1557 11.7261 24.8975 11.7261H24.8914C22.4016 11.7384 19.7828 11.7384 17.0963 11.7261H17.0902ZM30.0553 14.4609L30 14.4118C29.9385 14.3565 29.8832 14.3073 29.8279 14.252C29.7172 14.1475 29.6127 14.0553 29.502 13.9631C28.9549 13.5207 28.3709 13.2441 27.707 13.1212C27.5594 13.0966 27.3688 12.9983 27.2889 12.8692C27.1414 12.6111 27.0061 12.3407 26.8709 12.0518C26.8156 11.9351 26.7541 11.806 26.6865 11.6769L26.6311 11.5663H27.043C27.2459 11.5663 27.4303 11.5663 27.6147 11.5663C28.1803 11.5663 28.5799 11.3082 28.8381 10.7858C28.918 10.6199 29.0287 10.4662 29.1578 10.331C30.6086 8.87447 32.1824 7.30116 33.9652 5.52504C34.0389 5.45129 34.125 5.38983 34.2172 5.32223C34.2418 5.30379 34.2664 5.28536 34.291 5.27306C33.4426 4.17298 33.375 3.23882 34.0697 2.3354C34.5922 1.65322 35.4836 1.38281 36.2889 1.65937C37.3832 2.03426 37.8504 2.85164 37.752 4.22829H37.918C38.0902 4.22829 38.2439 4.22829 38.4037 4.22829C39.2828 4.25902 40.0574 4.83057 40.3279 5.66025C40.5922 6.48378 40.3279 7.36876 39.6516 7.92188C38.9693 8.475 38.0717 8.53645 37.3033 8.08781C37.1742 8.01407 37.0451 7.92803 36.9098 7.83584C36.8607 7.80511 36.8053 7.76824 36.7561 7.73136L30.0492 14.4487L30.0553 14.4609ZM26.8832 11.7261C26.9262 11.8183 26.9693 11.9043 27.0123 11.9904C27.1475 12.2731 27.2766 12.5435 27.4242 12.7955C27.4734 12.8815 27.6209 12.9552 27.7377 12.9737C28.4139 13.0966 29.041 13.3916 29.6004 13.8464C29.7111 13.9386 29.8217 14.0369 29.9324 14.1414C29.9693 14.1782 30.0123 14.2151 30.0492 14.252L36.7439 7.54699L36.793 7.58386C36.8668 7.63303 36.9344 7.67605 37.002 7.71907C37.1373 7.80511 37.2602 7.89115 37.3893 7.9649C38.1025 8.38281 38.9324 8.32135 39.5656 7.81126C40.1926 7.30116 40.4385 6.47763 40.1926 5.71556C39.9467 4.94734 39.2275 4.41881 38.4098 4.38808C38.2561 4.38808 38.0963 4.38808 37.9303 4.38808H37.5984L37.6045 4.30818C37.7213 2.96227 37.291 2.16947 36.2459 1.81301C35.502 1.56104 34.6844 1.81301 34.1988 2.43988C33.5287 3.31257 33.6147 4.17912 34.4693 5.25463L34.5184 5.31608L34.457 5.36525C34.4078 5.40212 34.3647 5.43285 34.3156 5.46358C34.2295 5.52504 34.1496 5.58035 34.082 5.64795C32.2992 7.42407 30.7254 8.99739 29.2746 10.4539C29.1578 10.5707 29.0533 10.7182 28.9795 10.8657C28.6967 11.4372 28.2418 11.7261 27.6209 11.7322C27.4365 11.7322 27.252 11.7322 27.0492 11.7322H26.8832V11.7261ZM12 14.4425L5.26844 7.71292C4.16803 8.56104 3.20286 8.61635 2.31762 7.89115C1.62295 7.32574 1.39549 6.54523 1.67213 5.70327C2.02868 4.62162 2.86475 4.14225 4.2418 4.23443V4.0685C4.2418 3.90256 4.2418 3.74277 4.2418 3.58299C4.26639 2.72258 4.82582 1.95436 5.63114 1.67166C6.45491 1.38281 7.37704 1.64708 7.93647 2.32925C8.48975 3.01143 8.55737 3.90871 8.1086 4.67693C8.03483 4.81213 7.94877 4.93505 7.85655 5.07026C7.82582 5.11942 7.78893 5.16859 7.75819 5.21775L7.81352 5.27921C7.88114 5.35296 7.94877 5.42671 8.01639 5.49431L9.68237 7.15981C10.7336 8.21073 11.7787 9.25551 12.8238 10.3064C12.9836 10.4662 13.0943 10.6137 13.1557 10.7551C13.4078 11.302 13.8258 11.5725 14.4283 11.5725H14.4406C14.625 11.5725 14.8094 11.5725 15.0184 11.5725H15.375L15.1537 12.0211C15 12.3345 14.8709 12.6049 14.7234 12.8753C14.668 12.9737 14.5451 13.0843 14.4221 13.1027C13.5184 13.2441 12.75 13.662 12.0615 14.3872L12.0061 14.4425H12ZM5.28073 7.50397L11.9938 14.2213C12.6947 13.5084 13.4754 13.0904 14.3852 12.9491C14.4467 12.9368 14.5389 12.8692 14.5758 12.7955C14.7234 12.5312 14.8525 12.2608 15.0061 11.9473L15.1168 11.7199H15.0061C14.791 11.7199 14.6127 11.7199 14.4283 11.7199H14.416C13.7582 11.7199 13.2848 11.4188 13.002 10.8165C12.9467 10.6936 12.8484 10.5645 12.6947 10.4109C11.6496 9.35998 10.5984 8.31521 9.55327 7.26429L7.88729 5.59879C7.81352 5.52504 7.7459 5.45129 7.67827 5.37754L7.54303 5.23004L7.57377 5.18088C7.6168 5.11328 7.66598 5.04567 7.70901 4.98421C7.80123 4.85515 7.88114 4.72609 7.95491 4.60318C8.3668 3.89027 8.31147 3.05445 7.79508 2.42759C7.27868 1.79457 6.42418 1.54875 5.66188 1.81916C4.91803 2.08342 4.40163 2.79019 4.37704 3.58913C4.37704 3.74278 4.37704 3.90256 4.37704 4.0685V4.40037L4.29713 4.39422C2.93852 4.27745 2.14549 4.70766 1.80122 5.75243C1.54303 6.5268 1.75819 7.24585 2.39754 7.77438C3.2459 8.46885 4.14344 8.40125 5.21311 7.55313L5.26844 7.51012L5.28073 7.50397ZM27.7316 10.3679H14.2807V8.92978H27.7316V10.3679ZM14.4344 10.2142H27.5779V9.08342H14.4344V10.2142ZM25.082 7.68834H16.918V7.43637C16.918 7.31345 16.918 7.19054 16.918 7.07377C16.9303 6.5145 17.2131 6.23795 17.7725 6.23795C18.7869 6.23795 19.7951 6.23795 20.8094 6.23795H24.0615C24.8422 6.23795 25.082 6.47763 25.082 7.25199V7.69449V7.68834ZM17.0717 7.5347H24.9283V7.24585C24.9283 6.55752 24.7561 6.39159 24.0615 6.38544H20.8094C19.7951 6.38544 18.7807 6.38544 17.7725 6.38544C17.293 6.38544 17.084 6.5944 17.0717 7.07377C17.0717 7.19054 17.0717 7.31345 17.0717 7.43637V7.5347Z" fill="#0E276C"/>
<path d="M35.6988 41.9262C35.3238 41.9262 34.9426 41.8648 34.5738 41.7419C33.664 41.4407 32.9324 40.8077 32.5021 39.9534C32.0779 39.0992 32.0103 38.1343 32.3176 37.2309C32.3914 37.0219 32.3607 36.9543 32.2254 36.8253C31.789 36.4073 31.3648 35.971 30.9283 35.5347L30.6209 35.2212C29.6926 36.6163 28.3586 37.2555 26.539 37.2616C22.3648 37.2186 18.9037 37.2186 15.6578 37.2616C13.6722 37.2862 12.3135 36.6409 11.3853 35.2212L11.1209 35.4855C10.6168 35.9894 10.125 36.4811 9.63937 36.9851C9.63937 36.9851 9.65166 37.0834 9.67625 37.1571C10.0205 38.1958 9.91601 39.2713 9.38117 40.1685C8.84634 41.0658 7.96724 41.6681 6.89757 41.8648C5.21314 42.1721 3.46724 41.1273 2.93855 39.4802C2.85863 39.2221 2.77257 39.1361 2.54511 39.0623C1.64757 38.7796 0.916008 38.1712 0.479533 37.3354C0.0369096 36.4872 -0.0430084 35.5224 0.245926 34.6066C0.53486 33.6909 1.16191 32.9473 2.00412 32.5171C2.84019 32.0869 3.79306 32.007 4.68445 32.2958C4.94879 32.3819 5.04716 32.3573 5.23773 32.1668C7.08199 30.2923 8.95699 28.4302 10.5492 26.8507C10.7029 26.6971 10.7644 26.5557 10.7582 26.3222C10.7521 23.8086 10.7398 20.496 10.7582 17.1835C10.7582 16.8885 10.8074 16.5935 10.8566 16.3108C10.8873 16.1264 10.9181 15.9482 10.9304 15.7638C10.9426 15.6593 10.9119 15.5487 10.8935 15.5241C8.84634 13.4592 6.94675 11.5601 5.08404 9.71639C5.04716 9.67952 4.91191 9.65494 4.86273 9.67337C2.88322 10.3064 0.854533 9.31077 0.245926 7.41174C-0.0491559 6.48988 0.0246146 5.525 0.46109 4.69532C0.90986 3.83492 1.70289 3.19576 2.6865 2.89462C2.82175 2.8516 2.84019 2.80858 2.90166 2.61806C3.44879 0.903399 5.13937 -0.172106 6.84224 0.129036C8.69265 0.448614 9.96519 2.00963 9.87297 3.83492C9.85453 4.17908 9.78691 4.51095 9.6824 4.7998C9.61478 4.97803 9.62707 5.03334 9.76232 5.1624C10.5123 5.89989 11.2562 6.64352 12 7.38716L12.8976 8.28444C12.8976 8.28444 12.916 8.30287 12.9283 8.30902C13.3894 7.38716 14.2316 7.40559 14.9877 7.41789C15.1414 7.41789 15.289 7.41789 15.4426 7.41789V7.40559C15.4426 7.23966 15.4426 7.07372 15.4426 6.90779C15.4857 5.70937 16.4324 4.76907 17.5943 4.75678C19.9549 4.73834 22.2541 4.73834 24.4426 4.75678C25.5861 4.76907 26.5205 5.69708 26.582 6.87706C26.5881 7.03685 26.582 7.20278 26.582 7.37487V7.41174C26.7357 7.41789 26.9017 7.41174 27.0676 7.41174C27.7685 7.40559 28.6291 7.38716 29.0902 8.30902H29.0963L30.166 7.22737C30.8607 6.5329 31.5554 5.83228 32.2562 5.14396C32.373 5.02719 32.3914 4.98417 32.3299 4.81209C32.0103 3.89023 32.0717 2.91306 32.5021 2.05265C32.9263 1.19839 33.664 0.559238 34.5738 0.258096C35.4898 -0.043045 36.4611 0.0307039 37.3094 0.467052C38.1701 0.909545 38.8033 1.67776 39.0984 2.62421C39.1537 2.79629 39.2029 2.8516 39.3627 2.90077C40.3156 3.18962 41.084 3.82263 41.5328 4.68303C41.9693 5.525 42.0492 6.49602 41.748 7.41789C41.4467 8.3336 40.8135 9.07724 39.9652 9.49515C39.0984 9.92535 38.1025 9.98066 37.1681 9.66108C37.0267 9.61192 36.9898 9.62421 36.873 9.74098C34.9672 11.6523 33.0615 13.5575 31.1496 15.4627C31.0451 15.5671 31.0205 15.6225 31.0635 15.7822C31.1865 16.28 31.248 16.7533 31.248 17.1896C31.2603 20.2195 31.2603 23.2555 31.248 26.2853C31.248 26.5434 31.3033 26.6909 31.4693 26.8507C33.2705 28.633 35.0594 30.4214 36.8422 32.216C36.9775 32.3512 37.0267 32.3757 37.2049 32.3143C38.1209 31.9947 39.0922 32.0562 39.9529 32.4864C40.8135 32.9166 41.4529 33.6541 41.7541 34.5698C42.0553 35.4855 41.9754 36.4627 41.539 37.3108C41.0963 38.1589 40.3402 38.7858 39.4119 39.0746C39.2213 39.1361 39.1537 39.2037 39.0922 39.4065C38.8033 40.3345 38.1763 41.0843 37.3217 41.5268C36.8115 41.7849 36.2644 41.9201 35.7049 41.9201L35.6988 41.9262ZM30.5349 34.4837L31.2603 35.2151C31.6906 35.6514 32.1148 36.0755 32.5451 36.4934C32.8156 36.7515 32.8771 37.0096 32.7541 37.3784C32.4898 38.165 32.5451 39.007 32.914 39.7506C33.2828 40.4943 33.9283 41.0474 34.7152 41.3055C35.5144 41.5698 36.3627 41.5022 37.1004 41.1211C37.8443 40.7401 38.3914 40.0825 38.6373 39.2774C38.748 38.9271 38.9263 38.7427 39.2644 38.6444C40.0758 38.3924 40.7336 37.8516 41.1148 37.108C41.4959 36.3705 41.5635 35.5224 41.3054 34.7234C41.0472 33.9245 40.4877 33.2792 39.7377 32.9104C38.9877 32.5417 38.1394 32.4864 37.3463 32.7629C36.9529 32.8981 36.7254 32.7814 36.5041 32.554C34.7213 30.7594 32.9324 28.971 31.1373 27.1887C30.8853 26.9368 30.7808 26.6725 30.7808 26.2915C30.7869 23.2616 30.7931 20.2318 30.7808 17.2019C30.7808 16.8024 30.7193 16.3599 30.6086 15.899C30.5349 15.5856 30.5963 15.3643 30.8176 15.1431C32.7295 13.2379 34.6353 11.3327 36.541 9.4214C36.7193 9.24317 36.9344 9.10182 37.3156 9.23088C38.1394 9.51358 39.0062 9.46442 39.7623 9.08953C40.5062 8.72078 41.0533 8.07548 41.3176 7.27653C41.5758 6.47759 41.5144 5.62947 41.1332 4.89813C40.7459 4.1545 40.0697 3.60138 39.2398 3.34326C38.9324 3.25107 38.7664 3.07899 38.6681 2.75941C38.4099 1.92974 37.8566 1.25985 37.1066 0.872671C36.3689 0.491635 35.5267 0.430177 34.7275 0.694444C33.9344 0.958711 33.2951 1.51183 32.9263 2.25546C32.5574 3.00524 32.5021 3.8595 32.7787 4.66459C32.8955 4.99646 32.8402 5.23 32.5881 5.47583C31.8873 6.16415 31.1926 6.85862 30.498 7.55924L29.4283 8.6286C29.373 8.68391 29.3115 8.73307 29.2377 8.78839L28.8873 9.07724L28.7828 8.7638C28.4754 7.86038 27.8607 7.86652 27.0799 7.88496C26.834 7.88496 26.5758 7.89111 26.3299 7.86038L26.1271 7.8358V7.37487C26.1271 7.21508 26.1271 7.06143 26.1271 6.90779C26.084 5.98593 25.3279 5.23615 24.4488 5.22386C22.2664 5.20542 19.9672 5.19927 17.6127 5.22386C16.6967 5.23 15.9529 5.97978 15.9222 6.93237C15.9222 7.08602 15.9222 7.2458 15.9222 7.40559V7.84809L15.7131 7.86652C15.4734 7.89111 15.2336 7.88496 15 7.87882C14.2008 7.86652 13.5676 7.85423 13.2541 8.76995L13.1435 9.10182L12.7685 8.7638C12.7008 8.70849 12.6455 8.65933 12.5963 8.60401L11.6988 7.70674C10.9549 6.9631 10.2172 6.21947 9.46724 5.48812C9.20289 5.23 9.14757 4.97803 9.28281 4.62772C9.37502 4.38803 9.43035 4.09918 9.44879 3.80419C9.52871 2.18786 8.4406 0.860379 6.80535 0.571529C5.32379 0.313408 3.85453 1.25371 3.38732 2.74712C3.3197 2.95608 3.23978 3.2142 2.87093 3.32482C2.00412 3.58909 1.3156 4.14835 0.922156 4.89813C0.547156 5.61718 0.479533 6.45915 0.737729 7.2581C1.27871 8.94818 3.01847 9.79014 4.77666 9.22473C4.99183 9.15713 5.30535 9.22473 5.46519 9.37838C7.32789 11.2221 9.22748 13.1211 11.2808 15.1922C11.4345 15.3459 11.4652 15.6163 11.4467 15.8007C11.4283 15.9912 11.3976 16.1879 11.3668 16.3784C11.3238 16.6549 11.2808 16.9192 11.2746 17.1773C11.2562 20.4899 11.2623 23.7963 11.2746 26.3099C11.2746 26.6664 11.1701 26.9245 10.9242 27.1642C9.33814 28.7375 7.46314 30.5996 5.61888 32.4741C5.3115 32.7875 5.02257 32.8551 4.59838 32.7199C3.82379 32.4679 2.99388 32.5417 2.26847 32.9104C1.53076 33.2915 0.989779 33.9368 0.737729 34.7296C0.48568 35.5224 0.559451 36.3643 0.940598 37.1018C1.32175 37.827 1.95494 38.3617 2.72953 38.6014C3.15986 38.7366 3.3197 38.9824 3.4242 39.3204C3.88527 40.7524 5.39756 41.6681 6.86068 41.3915C7.79511 41.2195 8.5697 40.6971 9.03076 39.9166C9.49797 39.1299 9.58404 38.1958 9.28281 37.2862C9.28281 37.2678 9.14756 36.8621 9.35043 36.6532C9.83609 36.1431 10.334 35.6514 10.8381 35.1413L11.5144 34.4653L11.6681 34.7234C12.4918 36.1308 13.7398 36.7884 15.5779 36.7884C15.6148 36.7884 15.6578 36.7884 15.6947 36.7884C18.9467 36.7392 22.4078 36.7392 26.5881 36.7884C28.3709 36.7884 29.5758 36.1492 30.4242 34.7234L30.5779 34.4653L30.5349 34.4837ZM6.3197 40.5926C6.09224 40.5926 5.86478 40.5557 5.63732 40.4881C4.62298 40.1685 4.1865 39.4618 4.08199 37.9254C3.9406 37.9254 3.7992 37.9254 3.65781 37.9254C2.6742 37.9069 1.83814 37.3108 1.53691 36.4135C1.22953 35.5101 1.53691 34.5083 2.30535 33.9245C3.06765 33.3406 4.06355 33.316 4.90576 33.8569C5.00412 33.9183 5.09634 33.9859 5.18855 34.0474L11.1271 28.1045L11.2008 28.7805C11.2131 28.885 11.2254 28.9587 11.2254 29.0263V29.7515C11.2254 30.8823 11.2316 32.0193 11.2254 33.1501C11.2254 33.4082 11.0656 33.6602 10.9304 33.7954C10.1435 34.5944 9.34429 35.3872 8.53281 36.1922L7.94879 36.7761C8.73568 37.8455 8.77256 38.8165 8.07175 39.7383C7.65986 40.2853 7.00822 40.5926 6.33199 40.5926H6.3197ZM4.29716 37.4644H4.51847L4.53076 37.6857C4.61068 39.3635 5.0533 39.8244 5.77871 40.0518C6.49797 40.2792 7.25412 40.0518 7.69675 39.4679C8.30535 38.6628 8.23158 37.8762 7.45699 36.9052L7.32789 36.7454L8.20084 35.8727C9.01232 35.0676 9.80535 34.2748 10.5922 33.4758C10.6845 33.3836 10.7521 33.2361 10.7521 33.144C10.7644 32.0131 10.7644 30.8823 10.7582 29.7515V29.1185L5.23773 34.6374L4.9242 34.4284C4.83199 34.367 4.73978 34.2994 4.64142 34.2379C3.95904 33.7954 3.18445 33.8138 2.5697 34.2871C1.96109 34.7541 1.71519 35.5469 1.96109 36.266C2.20084 36.9789 2.87093 37.4521 3.65781 37.4644C3.80535 37.4644 3.94675 37.4644 4.09429 37.4644H4.29716ZM35.6988 40.5926C35.0287 40.5926 34.3771 40.2915 33.9406 39.7445C33.3381 38.9886 33.2951 37.993 33.8238 37.1448C33.8914 37.0342 33.9652 36.9236 34.0513 36.8007L34.0697 36.77L33.6025 36.3029C32.7541 35.4548 31.9119 34.6251 31.082 33.7893C30.9959 33.7032 30.7931 33.4697 30.7931 33.2177C30.7808 31.9824 30.7931 30.7533 30.7931 29.518V28.7252L30.9959 28.338L31.2172 28.5777L36.7316 34.0965C37.8996 33.2484 38.9201 33.2239 39.8484 34.0351C40.5676 34.6558 40.789 35.5224 40.4631 36.4074C40.0697 37.4829 39.2398 37.9868 37.9242 37.9131C37.9242 38.0606 37.9242 38.2019 37.9242 38.3433C37.9058 39.3266 37.3094 40.1562 36.4058 40.4635C36.1722 40.5434 35.9385 40.5803 35.6988 40.5803V40.5926ZM31.248 29.2721V29.5241C31.248 30.7533 31.2357 31.9886 31.248 33.2177C31.248 33.2546 31.2972 33.3591 31.4078 33.4697C32.2377 34.3055 33.0738 35.1352 33.9283 35.9833L34.666 36.7146L34.4324 37.0588C34.3525 37.1756 34.2787 37.28 34.2172 37.3907C33.7931 38.0667 33.8238 38.8595 34.3033 39.4556C34.7767 40.0518 35.5451 40.2792 36.2582 40.0395C36.9713 39.7998 37.4447 39.1361 37.4631 38.3494C37.4631 38.2081 37.4631 38.0606 37.4631 37.9131V37.4275L37.7152 37.4521C38.9508 37.575 39.6885 37.2001 40.0267 36.266C40.291 35.5469 40.125 34.9016 39.541 34.3977C38.7418 33.6971 37.9058 33.7585 36.8484 34.5944L36.6885 34.7234L31.2541 29.2783L31.248 29.2721ZM20.9877 35.9218C19.0574 35.9218 17.1209 35.9218 15.1906 35.9218C13.3095 35.9218 12.0922 34.705 12.0861 32.8305C12.0861 27.6189 12.0861 22.4074 12.0861 17.1958C12.0861 15.352 13.2664 14.1413 15.0984 14.1106C15.2398 14.1106 15.2767 14.086 15.332 13.957C15.4857 13.6374 15.6455 13.3178 15.8054 12.9982C15.9959 12.6233 16.1804 12.2484 16.3648 11.8674C16.5123 11.5601 16.7213 11.4249 17.0779 11.4249H17.084C19.6783 11.4372 22.2787 11.4372 24.8791 11.4249H24.8853C25.2603 11.4249 25.4816 11.5601 25.6291 11.8858C25.8074 12.273 25.998 12.6541 26.1947 13.0351C26.3484 13.3362 26.4959 13.6374 26.6435 13.9385C26.7111 14.0799 26.7541 14.1106 26.9078 14.1106C28.6967 14.1352 29.9017 15.3643 29.9017 17.1712C29.9017 18.978 29.9017 20.791 29.9017 22.5979V32.8059C29.9017 34.6988 28.6722 35.9218 26.7787 35.9218C24.8484 35.9218 22.9119 35.9218 20.9816 35.9218H20.9877ZM17.0779 11.8858C16.9058 11.8858 16.8504 11.9166 16.7828 12.0641C16.6045 12.4451 16.414 12.8261 16.2234 13.2072C16.0635 13.5206 15.9037 13.8402 15.75 14.1598C15.6148 14.4425 15.4181 14.5654 15.1045 14.5715C13.5246 14.6023 12.5472 15.604 12.5472 17.1958C12.5472 22.4074 12.5472 27.6189 12.5472 32.8305C12.5472 34.453 13.5615 35.4609 15.1906 35.4609C19.0574 35.4609 22.9181 35.4609 26.7849 35.4609C28.4263 35.4609 29.4467 34.4407 29.4467 32.8059V22.5979C29.4467 20.791 29.4467 18.978 29.4467 17.1712C29.4467 15.6102 28.4508 14.59 26.9078 14.5715C26.5758 14.5715 26.373 14.4363 26.2316 14.1352C26.0902 13.834 25.9365 13.539 25.789 13.2379C25.5984 12.8507 25.4017 12.4697 25.2234 12.0764C25.1496 11.9166 25.0943 11.8858 24.8976 11.8858H24.8914C22.291 11.8981 19.6906 11.8981 17.0902 11.8858H17.084H17.0779ZM30.0553 14.6822L29.7172 14.3749C29.6066 14.2765 29.5082 14.1843 29.3976 14.0922C28.8689 13.662 28.3094 13.3977 27.6763 13.2809C27.4918 13.2502 27.2582 13.1334 27.1537 12.9552C27 12.6971 26.8709 12.4267 26.7295 12.1317L26.3853 11.4249H27.0431C27.2459 11.4249 27.4303 11.4249 27.6148 11.4249C28.125 11.4249 28.4693 11.1975 28.7029 10.7304C28.789 10.5522 28.9119 10.3801 29.0533 10.2388C30.6517 8.6286 32.2562 7.0307 33.8607 5.42667C33.9283 5.35906 34.0021 5.30375 34.082 5.24844C33.289 4.1545 33.2459 3.17118 33.9529 2.24932C34.5185 1.51183 35.4775 1.22298 36.3443 1.51797C37.457 1.89901 37.9734 2.74098 37.9242 4.08075C38.0963 4.08075 38.2562 4.08075 38.416 4.08075C39.3627 4.11148 40.1926 4.7322 40.4816 5.61718C40.7705 6.50217 40.4816 7.45476 39.7562 8.04475C39.0246 8.63474 38.0594 8.70849 37.2357 8.22298C37.1004 8.14308 36.9775 8.06319 36.8361 7.96486L36.7869 7.93413L30.0676 14.6637L30.0553 14.6822ZM27.123 11.892L27.1414 11.935C27.2767 12.2177 27.4058 12.482 27.5472 12.7278C27.5656 12.7585 27.664 12.82 27.75 12.8323C28.4508 12.9613 29.1025 13.2625 29.6803 13.7357C29.7972 13.8279 29.9017 13.9324 30.0185 14.0368H30.0246L36.7008 7.35643L37.0697 7.59611C37.1988 7.68215 37.3217 7.76205 37.4447 7.8358C38.1025 8.21683 38.8648 8.16767 39.4426 7.69444C40.0205 7.22737 40.248 6.4653 40.0205 5.76468C39.7931 5.05792 39.1353 4.57241 38.3791 4.54782C38.2254 4.54782 38.0717 4.54782 37.9058 4.54782H37.4078L37.4263 4.29585C37.5369 3.01139 37.1496 2.29234 36.1722 1.95432C35.4959 1.72078 34.7398 1.95432 34.2972 2.53202C33.6824 3.33711 33.7623 4.14835 34.5676 5.15625L34.7152 5.34062L34.5246 5.48198C34.4754 5.51885 34.4263 5.55573 34.3771 5.58645C34.2972 5.64177 34.2234 5.69093 34.1619 5.75239C32.5574 7.35028 30.9529 8.95432 29.3545 10.5584C29.25 10.6628 29.1578 10.798 29.0902 10.9271C28.7767 11.554 28.2787 11.8735 27.5963 11.8797C27.4365 11.8797 27.2767 11.8797 27.1045 11.8797L27.123 11.892ZM12 14.676L5.25617 7.92798C4.13732 8.74537 3.14142 8.77609 2.21929 8.02017C1.46929 7.41174 1.22339 6.57592 1.52461 5.66635C1.89347 4.54782 2.74183 4.03158 4.08814 4.08075C4.08814 3.90867 4.08814 3.74888 4.08814 3.58909C4.11888 2.66723 4.71519 1.8437 5.57584 1.53641C6.46109 1.22298 7.45084 1.51183 8.04716 2.24317C8.63117 2.96222 8.70494 3.95169 8.23158 4.76907C8.15166 4.90428 8.0656 5.03334 7.97338 5.16854L7.94265 5.21771C7.99797 5.27917 8.0533 5.34062 8.11478 5.39594L9.78076 7.06143C10.832 8.11235 11.8771 9.15713 12.9222 10.2081C13.1004 10.3863 13.2111 10.5399 13.2849 10.6997C13.5123 11.1975 13.875 11.4249 14.416 11.4249H15.6086L15.2767 12.0948C15.123 12.4021 14.9877 12.6786 14.8402 12.9552C14.7664 13.0904 14.6004 13.2379 14.4222 13.2625C13.5554 13.3977 12.8115 13.8033 12.1476 14.4978L11.9816 14.6699L12 14.676ZM5.29306 7.31341L11.9939 14.0184C12.6824 13.3547 13.4816 12.9491 14.3668 12.8138C14.3853 12.8138 14.4345 12.7708 14.4467 12.7401C14.5881 12.4758 14.7234 12.1993 14.8709 11.8981L14.4283 11.892H14.416C13.6906 11.892 13.1681 11.5601 12.8668 10.9025C12.8176 10.7919 12.7316 10.6813 12.5902 10.5399C11.5451 9.489 10.4939 8.44422 9.44879 7.3933L7.78281 5.72781C7.70904 5.65406 7.64142 5.58031 7.56765 5.50041L7.35248 5.26688L7.58609 4.91657C7.67216 4.78751 7.75207 4.66459 7.82584 4.54168C8.20699 3.88408 8.15166 3.11587 7.68445 2.53817C7.21109 1.95432 6.4242 1.73307 5.72339 1.97276C5.04101 2.21244 4.5615 2.87004 4.54306 3.60138C4.54306 3.75502 4.54306 3.90867 4.54306 4.0746V4.57241L4.29101 4.54782C2.99388 4.4372 2.28076 4.82438 1.95494 5.80156C1.71519 6.52675 1.90576 7.16591 2.50822 7.65142C3.3074 8.30287 4.11273 8.23527 5.13322 7.43018L5.29306 7.30112V7.31341ZM27.8853 10.5338H14.1271V8.78839H27.8853V10.5338ZM14.5881 10.0728H27.4242V9.24932H14.5881V10.0728ZM25.2357 7.85423H16.7644V7.44861C16.7644 7.3257 16.7644 7.20279 16.7644 7.07987C16.7828 6.44071 17.1332 6.09655 17.7726 6.09655C18.7869 6.09655 19.7951 6.09655 20.8156 6.09655H24.0676C24.9345 6.09655 25.2418 6.40384 25.2418 7.26424V7.86038L25.2357 7.85423ZM17.2254 7.3933H24.7746V7.2581C24.7746 6.65581 24.6763 6.55748 24.0615 6.55134H20.8094C19.7951 6.55134 18.7869 6.55134 17.7726 6.55134C17.3791 6.55134 17.2316 6.69269 17.2254 7.08602C17.2254 7.18435 17.2254 7.28883 17.2254 7.38716V7.3933Z" fill="#0E276C"/>
<path d="M35.6987 42C35.3115 42 34.9242 41.9385 34.5492 41.8156C33.6209 41.5083 32.8709 40.863 32.4344 39.9842C31.9979 39.1115 31.9365 38.1282 32.2438 37.2002C32.3053 37.0219 32.2869 36.9851 32.1762 36.8744C31.7397 36.4565 31.3217 36.0325 30.8852 35.59L30.6332 35.338C29.711 36.6778 28.3709 37.3292 26.5451 37.3354C22.3709 37.2923 18.916 37.2923 15.6639 37.3354C15.627 37.3354 15.584 37.3354 15.5471 37.3354C13.6352 37.3354 12.3012 36.6962 11.3791 35.338L11.1824 35.5347C10.709 36.0079 10.2172 36.4995 9.73154 37.0035C9.73154 37.0096 9.73154 37.0158 9.73154 37.0219C9.73154 37.0527 9.74383 37.0895 9.75613 37.1264C10.1065 38.1896 10.002 39.2836 9.4549 40.1993C8.91391 41.115 8.01023 41.7296 6.92211 41.9324C5.2008 42.2397 3.41801 41.1765 2.87703 39.4925C2.80326 39.259 2.73564 39.1852 2.53277 39.1238C1.61678 38.8411 0.866783 38.2081 0.42416 37.3599C-0.0246107 36.4934 -0.110676 35.5039 0.184406 34.5759C0.479488 33.6418 1.11883 32.8858 1.97949 32.4372C2.834 32.0009 3.80531 31.9148 4.72129 32.2098C4.9549 32.2836 5.02867 32.2713 5.19465 32.0992C7.04506 30.2247 8.91391 28.3626 10.5061 26.7831C10.6475 26.6418 10.6967 26.5189 10.6967 26.3099C10.6906 23.8086 10.6783 20.5083 10.6967 17.1712C10.6967 16.87 10.7459 16.575 10.7951 16.2923V16.2616C10.8258 16.0895 10.8565 15.9175 10.875 15.7454C10.8811 15.6532 10.8627 15.5733 10.8504 15.5549C8.77252 13.4592 6.87293 11.5601 5.04711 9.75942C5.02867 9.74713 4.93031 9.72254 4.89957 9.73484C2.88318 10.3801 0.811455 9.36609 0.184406 7.41789C-0.116824 6.47759 -0.0369058 5.49427 0.405717 4.64002C0.866783 3.76118 1.67211 3.10973 2.67416 2.80244C2.76637 2.77171 2.77867 2.76556 2.84014 2.57505C3.38113 0.841948 5.10859 -0.25814 6.85449 0.0491468C8.74178 0.374871 10.0389 1.96662 9.9467 3.83492C9.92826 4.18523 9.86063 4.52939 9.74998 4.82439C9.69465 4.97189 9.7008 5.00261 9.81145 5.10709C10.5184 5.79542 11.2254 6.50832 11.9078 7.1905L12.8975 8.18611C13.3832 7.32571 14.2192 7.33185 14.9569 7.34414H14.9754C15.0983 7.34414 15.2274 7.34414 15.3504 7.34414C15.3504 7.1905 15.3504 7.04915 15.3504 6.90779C15.3934 5.6725 16.377 4.69533 17.5758 4.68304C19.9549 4.6646 22.2602 4.6646 24.4242 4.68304C25.6045 4.69533 26.5819 5.66021 26.6373 6.87707C26.6434 7.02456 26.6373 7.17206 26.6373 7.338C26.7602 7.338 26.8955 7.338 27.043 7.338C27.7438 7.3257 28.5983 7.31956 29.0901 8.17996L30.0983 7.17206C30.793 6.47759 31.4877 5.77698 32.1885 5.08865C32.2807 4.99647 32.2992 4.98418 32.2438 4.83053C31.918 3.89024 31.9795 2.88848 32.416 2.00964C32.8463 1.13694 33.6024 0.485494 34.5307 0.178207C35.4713 -0.12908 36.461 -0.0553308 37.3278 0.393308C38.2069 0.848093 38.8524 1.6286 39.1537 2.59963C39.1967 2.74713 39.2336 2.784 39.3688 2.82702C40.3401 3.12202 41.127 3.76732 41.5819 4.64616C42.0307 5.50657 42.1106 6.49603 41.8033 7.43633C41.4959 8.37048 40.8504 9.12641 39.9774 9.56276C39.0922 9.9991 38.0778 10.0606 37.1188 9.72869C37.0082 9.69182 37.002 9.69182 36.9037 9.79015C35.0533 11.6462 33.1291 13.5759 31.1803 15.5118C31.0942 15.5979 31.0819 15.6225 31.1127 15.7638C31.2356 16.2678 31.2971 16.7471 31.3033 17.1896C31.3217 20.4837 31.3155 23.7779 31.3033 26.2853C31.3033 26.5189 31.3524 26.6479 31.5 26.7954C33.0615 28.338 34.7643 30.0404 36.8729 32.1606C36.9897 32.2836 37.0082 32.2897 37.1557 32.2405C38.084 31.9148 39.086 31.9763 39.9651 32.4126C40.8442 32.849 41.4959 33.6049 41.8033 34.5452C42.1106 35.4855 42.0307 36.475 41.5819 37.3415C41.1332 38.2081 40.3586 38.8472 39.4119 39.1422C39.2459 39.1914 39.1967 39.2467 39.1414 39.4249C38.8463 40.3714 38.2069 41.1396 37.334 41.5882C36.8176 41.8525 36.2582 41.9877 35.6865 41.9877L35.6987 42ZM30.6086 35.0983L30.9836 35.4793C31.4262 35.928 31.8442 36.352 32.2746 36.77C32.4283 36.9175 32.4651 37.0096 32.3852 37.2555C32.084 38.1405 32.1516 39.0869 32.5635 39.9227C32.9815 40.7585 33.7008 41.3793 34.5922 41.6743C34.9549 41.791 35.3237 41.8525 35.6926 41.8525C36.2459 41.8525 36.7746 41.7234 37.2725 41.4653C38.1086 41.0351 38.7233 40.2976 39.0061 39.3942C39.0737 39.1668 39.1598 39.0808 39.375 39.0131C40.2848 38.7304 41.0225 38.122 41.4529 37.2923C41.8832 36.4627 41.9569 35.5101 41.668 34.6128C41.3729 33.7155 40.752 32.9903 39.9098 32.5724C39.0676 32.1545 38.1086 32.093 37.2172 32.4065C36.9959 32.4864 36.916 32.4372 36.7746 32.2897C34.666 30.1694 32.9631 28.4671 31.4016 26.9245C31.2233 26.7463 31.1557 26.5803 31.1557 26.3038C31.1619 23.7963 31.168 20.5022 31.1557 17.2081C31.1557 16.7779 31.0942 16.3108 30.9713 15.8191C30.9221 15.6225 30.959 15.5487 31.0819 15.4258C33.0307 13.4837 34.9549 11.5601 36.8053 9.70411C36.9406 9.56275 37.0082 9.55046 37.1803 9.60577C38.1024 9.92535 39.0738 9.8639 39.9221 9.44599C40.7582 9.03422 41.3791 8.30902 41.668 7.41175C41.9631 6.51447 41.8832 5.56188 41.459 4.73835C41.0225 3.90253 40.2664 3.28181 39.3381 2.9991C39.1537 2.94379 39.0799 2.87004 39.0184 2.67338C38.7295 1.74537 38.1086 0.995591 37.2664 0.559243C36.4365 0.135187 35.4897 0.0614383 34.5922 0.356434C33.7008 0.65143 32.9815 1.27215 32.5635 2.11412C32.1455 2.95608 32.084 3.91482 32.3975 4.81824C32.4651 5.02105 32.4344 5.10095 32.2992 5.23001C31.5983 5.91833 30.9037 6.61894 30.209 7.31341L29.0594 8.45652L29.0041 8.37048C28.5676 7.49779 27.7623 7.51008 27.0615 7.51622C26.8709 7.51622 26.7172 7.51622 26.5635 7.51622H26.4897V7.39945C26.4897 7.21508 26.4897 7.06144 26.4897 6.90779C26.4344 5.77083 25.5307 4.87355 24.4303 4.86126C22.2664 4.83668 19.9672 4.83668 17.5881 4.86126C16.4692 4.87355 15.5533 5.78312 15.5164 6.93852C15.5164 7.09831 15.5164 7.26425 15.5164 7.43018V7.50393L15.4426 7.51622C15.2889 7.51622 15.1352 7.51622 14.9877 7.51622C14.2131 7.50393 13.4324 7.49779 13.002 8.36434L12.959 8.45652L12.8545 8.35819L11.8156 7.31956C11.1332 6.63124 10.4262 5.92448 9.71924 5.23615C9.56555 5.08865 9.54711 4.99647 9.62088 4.78751C9.72539 4.51096 9.79301 4.18523 9.81145 3.84722C9.90367 2.0588 8.65572 0.528515 6.84834 0.221228C5.18236 -0.0676223 3.52867 0.977154 2.99998 2.66109C2.9385 2.8639 2.90777 2.93765 2.73564 2.98681C1.77047 3.28181 0.995881 3.90867 0.559406 4.75064C0.135225 5.56188 0.0614549 6.50832 0.350389 7.4056C0.952848 9.26776 2.93236 10.2388 4.87498 9.61807C4.94875 9.59963 5.10859 9.61807 5.17006 9.67952C6.99588 11.4864 8.89547 13.3854 10.9795 15.4873C11.0287 15.5487 11.0471 15.6901 11.041 15.7884C11.0225 15.9666 10.9979 16.1448 10.9672 16.3169V16.3415C10.918 16.6242 10.8688 16.9131 10.8688 17.2019C10.8504 20.5329 10.8565 23.8332 10.8688 26.3406C10.8688 26.5926 10.8012 26.7524 10.6352 26.9245C9.04916 28.4978 7.17416 30.3599 5.32375 32.2344C5.11473 32.4434 4.97949 32.4741 4.6967 32.3819C3.8176 32.0992 2.88932 32.1791 2.0717 32.597C1.24793 33.0211 0.633176 33.7524 0.350389 34.6435C0.0676024 35.5347 0.14752 36.4811 0.577848 37.3108C1.00203 38.1282 1.72129 38.7304 2.59424 39.0009C2.84629 39.0808 2.9508 39.1852 3.03686 39.4679C3.55326 41.072 5.25613 42.0983 6.90982 41.8033C7.9549 41.6128 8.8217 41.0228 9.34424 40.144C9.86678 39.259 9.97129 38.2142 9.63318 37.194C9.62088 37.1571 9.61473 37.1141 9.60859 37.0772H9.49178L9.61473 36.9482C10.1065 36.4319 10.6106 35.928 11.0963 35.4486L11.4283 35.1229L11.4774 35.2028C12.3934 36.5979 13.7397 37.2432 15.6885 37.2063C18.9406 37.1571 22.4016 37.1571 26.5697 37.2063C28.377 37.2063 29.6865 36.5426 30.584 35.1966L30.6393 35.1167L30.6086 35.0983ZM35.6987 41.539C35.3606 41.539 35.0225 41.4837 34.6906 41.3793C33.8791 41.115 33.2213 40.5434 32.8401 39.7814C32.459 39.0193 32.4037 38.1589 32.6742 37.3538C32.791 37.0158 32.7356 36.7884 32.4836 36.5487C32.041 36.1185 31.5922 35.6699 31.1987 35.2642L30.541 34.6005L30.4365 34.7726C29.5696 36.223 28.3709 36.8744 26.5328 36.8806C22.334 36.8376 18.8729 36.8376 15.6393 36.8806H15.5225C13.6537 36.8806 12.3873 36.2107 11.5451 34.7787L11.4467 34.6067L10.8381 35.2151C10.3217 35.7313 9.83605 36.2168 9.35039 36.7208C9.19055 36.8929 9.28891 37.237 9.30121 37.2801C9.60859 38.2142 9.51637 39.1729 9.04301 39.978C8.56965 40.777 7.77662 41.3178 6.8176 41.4899C5.31145 41.7664 3.76842 40.8323 3.28891 39.3635C3.18441 39.0439 3.04301 38.8226 2.64342 38.6997C1.84424 38.4539 1.1926 37.9069 0.805307 37.1633C0.411865 36.4074 0.338094 35.5408 0.596291 34.7296C0.854488 33.9122 1.41391 33.2546 2.16391 32.8613C2.90777 32.4802 3.75613 32.4065 4.55531 32.6646C4.9549 32.7937 5.20695 32.7322 5.49588 32.4372C7.37703 30.5259 9.31965 28.5961 10.8012 27.1273C11.0287 26.8999 11.127 26.6602 11.127 26.3283C11.1209 23.827 11.1086 20.5268 11.127 17.1958C11.127 16.9254 11.1701 16.6611 11.2192 16.3845C11.25 16.1879 11.2807 15.9973 11.2992 15.813C11.3176 15.6286 11.2746 15.3951 11.1516 15.266C9.09219 13.1887 7.1926 11.2897 5.33605 9.45213C5.2008 9.31693 4.91801 9.25547 4.72744 9.31693C3.86064 9.59963 2.95695 9.54432 2.19465 9.17557C1.43236 8.80068 0.860635 8.13694 0.590143 7.30112C0.325799 6.48374 0.393422 5.62333 0.780717 4.8797C1.18031 4.11148 1.89342 3.53993 2.77867 3.26952C3.11064 3.16504 3.18441 2.94379 3.24588 2.74098C3.75613 1.1984 5.26227 0.239665 6.78072 0.503932C8.459 0.792782 9.5717 2.15714 9.49178 3.81034C9.47334 4.11763 9.41801 4.40648 9.3258 4.65845C9.20285 4.97803 9.25203 5.19928 9.49178 5.43282C10.2172 6.14572 10.9487 6.87707 11.6557 7.58383L12.627 8.55485C12.6762 8.60402 12.7254 8.64704 12.793 8.70235L13.0881 8.96662L13.1619 8.74537C13.4877 7.78049 14.1701 7.79278 14.9631 7.79893C15.1967 7.79893 15.4426 7.80507 15.6824 7.78664L15.8237 7.77434V7.4056C15.8237 7.24581 15.8237 7.08602 15.8237 6.92623C15.8606 5.93677 16.6352 5.15626 17.5942 5.14397C19.9365 5.12553 22.2418 5.12553 24.4303 5.14397C25.3524 5.15011 26.1393 5.93677 26.1885 6.8955C26.1946 7.04915 26.1885 7.1905 26.1885 7.36872V7.76205L26.3237 7.78049C26.5574 7.81122 26.7971 7.80507 27.0307 7.80507H27.0676C27.8115 7.78664 28.5184 7.77434 28.8442 8.73923L28.918 8.94818L29.1824 8.73308C29.2561 8.67162 29.3115 8.6286 29.3668 8.57944L30.4365 7.51008C31.1311 6.81561 31.8258 6.12114 32.5266 5.42667C32.7541 5.20542 32.8033 4.99647 32.6987 4.69533C32.416 3.8718 32.4651 2.9991 32.8463 2.23089C33.2213 1.46881 33.8791 0.897259 34.6967 0.632992C35.5143 0.36258 36.3811 0.430183 37.1373 0.817365C37.9057 1.21069 38.4713 1.89902 38.7356 2.74713C38.8278 3.04212 38.9754 3.18962 39.2582 3.28181C40.1127 3.53993 40.8012 4.10534 41.2008 4.87355C41.5942 5.62333 41.6619 6.48988 41.3914 7.30727C41.127 8.12465 40.5615 8.78225 39.7992 9.16328C39.0246 9.54432 38.1393 9.59963 37.2971 9.31078C36.9774 9.20016 36.7869 9.29849 36.6024 9.48286C34.7274 11.3635 32.8033 13.2871 30.8791 15.2045C30.6762 15.4135 30.6209 15.604 30.6885 15.8929C30.8053 16.3599 30.8606 16.8024 30.8606 17.2142C30.8791 20.5083 30.8729 23.8024 30.8606 26.3038C30.8606 26.6602 30.959 26.9122 31.1926 27.1457C32.7479 28.6883 34.4569 30.3907 36.5656 32.511C36.7746 32.7199 36.9713 32.8244 37.3278 32.7015C38.1393 32.4188 39.0123 32.4741 39.7807 32.8551C40.5492 33.2362 41.1209 33.8999 41.3852 34.7173C41.6496 35.5347 41.5819 36.4012 41.1885 37.1571C40.7951 37.9131 40.1188 38.4723 39.2889 38.7304C38.9754 38.8288 38.8156 38.9886 38.711 39.3143C38.4528 40.144 37.8934 40.8139 37.1311 41.2072C36.6824 41.4407 36.1906 41.5575 35.6926 41.5575L35.6987 41.539ZM30.5225 34.3547L31.3156 35.1598C31.709 35.5592 32.1578 36.014 32.6004 36.4381C32.8893 36.7208 32.9569 37.0096 32.8278 37.403C32.5697 38.1712 32.625 38.9886 32.9815 39.7138C33.3442 40.439 33.9713 40.9798 34.7397 41.2318C35.5205 41.4899 36.3442 41.4284 37.0696 41.0535C37.7951 40.6786 38.3237 40.0395 38.5697 39.2528C38.6865 38.8841 38.8893 38.6751 39.2459 38.5645C40.0389 38.3187 40.6783 37.7901 41.0533 37.0711C41.4283 36.352 41.4897 35.5285 41.2377 34.748C40.9856 33.9675 40.4447 33.3406 39.7131 32.978C38.9815 32.6154 38.1516 32.5663 37.377 32.8367C36.9221 32.9965 36.6639 32.8244 36.4549 32.6093C34.3524 30.489 32.6434 28.7866 31.0881 27.2441C30.8237 26.9798 30.7069 26.6971 30.7069 26.2976C30.7131 23.7901 30.7192 20.496 30.7069 17.2081C30.7069 16.8086 30.6455 16.3784 30.5348 15.9236C30.4549 15.5856 30.5225 15.3398 30.7623 15.0939C32.6865 13.1765 34.6106 11.2528 36.4856 9.37224C36.6701 9.18787 36.916 9.01578 37.3401 9.16328C38.1393 9.43984 38.9877 9.39067 39.7254 9.02808C40.4447 8.67162 40.9856 8.04476 41.2377 7.26425C41.4897 6.48374 41.4283 5.66021 41.0533 4.9473C40.6721 4.22211 40.0205 3.68128 39.2028 3.43545C38.8709 3.33712 38.6865 3.1466 38.5758 2.80244C38.3237 1.9912 37.7889 1.33975 37.0574 0.964862C36.3381 0.596118 35.5143 0.53466 34.7336 0.792782C33.959 1.0509 33.3319 1.58558 32.9754 2.31693C32.6127 3.04827 32.5635 3.87794 32.834 4.6646C32.9569 5.02105 32.8955 5.29146 32.625 5.55573C31.9242 6.24405 31.2295 6.93852 30.5348 7.63299L29.4651 8.70235C29.4098 8.75766 29.3483 8.80683 29.2684 8.86829L28.8319 9.22474L28.6906 8.80683C28.4016 7.94642 27.8115 7.95872 27.0615 7.97715H27.0246C26.7848 7.97715 26.5389 7.9833 26.293 7.95257L26.0225 7.92184V7.39331C26.0225 7.22123 26.0225 7.07373 26.0225 6.93238C25.9795 6.05354 25.2602 5.33448 24.418 5.32219C22.2233 5.30376 19.9242 5.29761 17.5819 5.32219C16.709 5.32834 15.9959 6.04739 15.9651 6.95696C15.9651 7.1106 15.9651 7.26425 15.9651 7.43018V7.94028L15.6885 7.96486C15.4365 7.98945 15.1844 7.9833 14.9631 7.97715C14.1516 7.96486 13.5799 7.95872 13.291 8.81912L13.1434 9.26161L12.6824 8.84985C12.6147 8.78839 12.5594 8.73923 12.5041 8.69006L11.5328 7.71903C10.8258 7.01227 10.1004 6.28093 9.37498 5.57417C9.08605 5.29146 9.03072 5.01491 9.17211 4.63387C9.25818 4.40033 9.3135 4.12377 9.33195 3.83492C9.41187 2.25547 8.34834 0.958717 6.74998 0.682158C5.3176 0.430183 3.87908 1.3459 3.41801 2.80859C3.35039 3.02369 3.25818 3.31254 2.84629 3.4416C1.99793 3.69972 1.32785 4.24669 0.940553 4.97803C0.571701 5.67865 0.510225 6.49603 0.762275 7.28268C1.02047 8.07549 1.56145 8.71464 2.28686 9.06495C3.01227 9.4214 3.87293 9.46442 4.70285 9.20016C4.9426 9.12641 5.29301 9.20016 5.46514 9.37838C7.3217 11.2098 9.22129 13.115 11.2807 15.1923C11.4528 15.3643 11.4897 15.6532 11.4713 15.8621C11.4528 16.0527 11.4221 16.2432 11.3914 16.4337C11.3422 16.7225 11.2992 16.9807 11.2992 17.2388C11.2807 20.5698 11.2869 23.87 11.2992 26.3714C11.2992 26.7524 11.1885 27.0228 10.9303 27.2809C9.44875 28.7498 7.50613 30.6795 5.62498 32.5908C5.29916 32.9227 4.97949 33.0026 4.52457 32.8551C3.76842 32.6093 2.95695 32.6769 2.25613 33.0456C1.53686 33.4144 1.00818 34.0474 0.762275 34.8218C0.516373 35.5961 0.583996 36.4196 0.958996 37.1387C1.32785 37.8455 1.94875 38.3678 2.7049 38.6014C3.19055 38.755 3.35039 39.0623 3.44875 39.3696C3.89752 40.7647 5.37293 41.6558 6.79916 41.3916C7.71514 41.2256 8.46514 40.7155 8.92006 39.9534C9.37498 39.1852 9.46105 38.2757 9.16596 37.3845C9.14137 37.3046 9.03072 36.9052 9.24588 36.6716C9.73154 36.1615 10.2172 35.676 10.7336 35.1598L11.4836 34.41L11.6865 34.7542C12.4979 36.1369 13.7151 36.7822 15.5287 36.7822H15.6455C18.8791 36.7331 22.3401 36.7331 26.5389 36.7822C28.3094 36.7822 29.4774 36.1492 30.3074 34.7542L30.5102 34.41L30.5225 34.3547ZM6.3258 40.6664C6.08604 40.6664 5.84629 40.6295 5.61883 40.5557C4.58605 40.23 4.13113 39.511 4.01432 37.9991C3.89752 37.9991 3.77457 37.9991 3.65777 37.9991C2.64342 37.9807 1.78277 37.3661 1.46309 36.4319C1.14342 35.4978 1.46309 34.4592 2.25613 33.8569C3.04301 33.2546 4.0758 33.2239 4.9426 33.7831C5.02252 33.8323 5.10244 33.8876 5.17621 33.9368L11.1824 27.9262L11.2746 28.7621C11.2869 28.8665 11.2992 28.9403 11.2992 29.014V29.7392C11.2992 30.784 11.3053 31.964 11.2992 33.144C11.2992 33.4267 11.127 33.6971 10.9856 33.8446C10.1987 34.6435 9.42416 35.4117 8.60039 36.2353L8.04711 36.7822C8.81555 37.8577 8.84629 38.8411 8.13318 39.7875C7.71514 40.3406 7.04506 40.6725 6.33195 40.6725L6.3258 40.6664ZM4.15572 37.8455V37.9192C4.26637 39.4249 4.67211 40.1009 5.66801 40.4144C5.88318 40.482 6.10449 40.5189 6.3258 40.5189C6.98973 40.5189 7.61678 40.2116 8.00408 39.6953C8.68031 38.798 8.64342 37.8577 7.88113 36.8253L7.84424 36.77L8.47744 36.1431C9.3135 35.3134 10.0881 34.5391 10.875 33.7463C10.9979 33.6172 11.1455 33.3898 11.1455 33.1501C11.1578 31.9763 11.1578 30.7963 11.1516 29.7515V29.0263C11.1516 28.9587 11.1393 28.8911 11.127 28.7928L11.0717 28.2765L5.2008 34.1519L5.15162 34.115C5.05941 34.0535 4.96719 33.9859 4.86883 33.9245C4.05736 33.4021 3.09219 33.4267 2.35449 33.9921C1.61678 34.5575 1.31555 35.5224 1.61064 36.4012C1.90572 37.2739 2.71105 37.8455 3.66391 37.8639C3.80531 37.8639 3.9467 37.8639 4.08809 37.8639H4.16186L4.15572 37.8455ZM35.6987 40.6664C34.9979 40.6664 34.3217 40.3406 33.8791 39.7875C33.2582 39.007 33.209 37.9807 33.7561 37.1018C33.8237 36.9973 33.8914 36.8929 33.9713 36.7761L33.5471 36.3582C32.6987 35.5101 31.8565 34.6804 31.0266 33.8446C30.9344 33.7524 30.7192 33.5004 30.7131 33.2239C30.7008 31.9886 30.7131 30.7348 30.7131 29.5241L30.7254 28.7006L30.9774 28.2151L31.2725 28.5408L36.7377 34.0105C37.918 33.1747 38.9508 33.1685 39.8975 33.9921C40.6414 34.6374 40.8688 35.5347 40.5369 36.4504C40.1496 37.5013 39.375 38.0114 38.1701 38.0114C38.1147 38.0114 38.0594 38.0114 38.0041 38.0114C38.0041 38.1343 38.0041 38.2511 38.0041 38.3678C37.9856 39.3819 37.3709 40.2423 36.4365 40.5557C36.2028 40.6356 35.9569 40.6786 35.7049 40.6786L35.6987 40.6664ZM30.8668 28.7498V29.518C30.8606 30.7287 30.8545 31.9824 30.8668 33.2177C30.8668 33.439 31.0574 33.6541 31.1373 33.734C31.9672 34.5698 32.8033 35.4056 33.6578 36.2476L34.1742 36.7577L34.1188 36.8376C34.0389 36.9605 33.9651 37.0711 33.8914 37.1817C33.3811 37.9991 33.4242 38.964 34.002 39.6892C34.4139 40.1993 35.0471 40.5066 35.6987 40.5066C35.9324 40.5066 36.1598 40.4697 36.3811 40.3959C37.2541 40.1009 37.8258 39.2959 37.8442 38.3494C37.8442 38.2081 37.8442 38.0667 37.8442 37.9192V37.8393H37.9242C39.1906 37.9069 40.002 37.4337 40.3832 36.3828C40.6967 35.5285 40.4815 34.6927 39.793 34.0904C38.8955 33.3038 37.9057 33.3283 36.7684 34.1519L36.7131 34.1887L31.3217 28.7866H31.168H31.3156L31.1496 28.6207L31.002 28.4609L30.8606 28.7375L30.8668 28.7498ZM6.33195 40.2116C6.14137 40.2116 5.94465 40.1808 5.75408 40.1194C4.99178 39.8797 4.53686 39.4003 4.4508 37.6857V37.5382H4.09424C3.95285 37.5382 3.80531 37.5382 3.65777 37.5382C2.84014 37.5197 2.14547 37.0281 1.89342 36.2844C1.64137 35.5347 1.89342 34.705 2.52662 34.2195C3.16596 33.7278 3.97744 33.7094 4.68441 34.1703C4.77662 34.2318 4.86883 34.2932 4.9549 34.3547L5.22539 34.5329L10.8258 28.928V29.7454C10.8258 30.7901 10.8381 31.9701 10.8258 33.1378C10.8258 33.2484 10.7459 33.4144 10.6414 33.525C9.8299 34.3485 8.98768 35.1844 8.24998 35.9218L7.42621 36.7454L7.51227 36.8498C8.31145 37.8516 8.38523 38.6751 7.75818 39.5048C7.41391 39.9596 6.89137 40.2054 6.33809 40.2054L6.33195 40.2116ZM4.29711 37.3845H4.59219L4.60449 37.6795C4.68441 39.3081 5.10244 39.7568 5.79711 39.978C6.48564 40.1931 7.2049 39.978 7.62908 39.4188C8.21309 38.6506 8.13932 37.8885 7.38932 36.9482L7.21719 36.7331L8.13932 35.8112C8.88318 35.0737 9.71924 34.2379 10.5307 33.4144C10.6106 33.3283 10.6721 33.1993 10.6721 33.1378C10.6844 31.9701 10.6844 30.7901 10.6783 29.7454V29.2967L5.24383 34.7296L4.88113 34.4837C4.78277 34.4161 4.6967 34.3547 4.60449 34.2994C3.95285 33.8753 3.209 33.8937 2.62498 34.3424C2.04096 34.7849 1.80736 35.547 2.04096 36.2353C2.27457 36.9174 2.90777 37.3661 3.66391 37.3845C3.80531 37.3845 3.95285 37.3845 4.09424 37.3845H4.29711ZM35.6803 40.2054C35.127 40.2054 34.5983 39.9534 34.2356 39.4987C33.7377 38.8779 33.7069 38.0483 34.1434 37.3415C34.211 37.2309 34.2848 37.1264 34.3647 37.0096L34.5615 36.7146L33.8668 36.0263C33.0184 35.1844 32.1762 34.3485 31.3463 33.5127C31.2418 33.4082 31.168 33.2853 31.168 33.2116C31.1557 31.9763 31.168 30.7287 31.168 29.518V29.0816L36.6885 34.6067L36.7992 34.5206C37.8934 33.6541 38.7602 33.5988 39.5901 34.3239C40.1988 34.8525 40.3709 35.5285 40.0942 36.2721C39.7377 37.2432 38.9754 37.6365 37.7028 37.5074L37.5369 37.489V37.8885C37.5369 38.0421 37.5369 38.1835 37.5369 38.331C37.5184 39.1484 37.0266 39.8428 36.2828 40.0948C36.086 40.1624 35.8832 40.1931 35.6865 40.1931L35.6803 40.2054ZM31.3217 29.4504V29.518C31.3217 30.7287 31.3094 31.9824 31.3217 33.2116C31.3217 33.23 31.3647 33.3099 31.4569 33.4082C32.2869 34.2441 33.1229 35.0737 33.9713 35.9218L34.7582 36.7024L34.4938 37.1018C34.4139 37.2186 34.3463 37.3231 34.2787 37.4275C33.8729 38.079 33.9037 38.8349 34.3586 39.4065C34.8135 39.9719 35.5451 40.1931 36.2274 39.9657C36.9098 39.7322 37.3647 39.0992 37.377 38.3433C37.377 38.2019 37.377 38.0606 37.377 37.9069V37.3354L37.7151 37.3661C38.9078 37.4829 39.6209 37.1203 39.9467 36.2291C40.1988 35.547 40.0389 34.9262 39.4856 34.4469C38.7172 33.777 37.918 33.8384 36.8914 34.6497L36.6762 34.8156L31.3217 29.4565V29.4504ZM20.9877 35.9894H15.1906C13.2602 35.9894 12.0123 34.7419 12.0123 32.8182C12.0123 27.6067 12.0123 22.3951 12.0123 17.1835C12.0123 15.2967 13.2233 14.0553 15.0983 14.0184C15.209 14.0184 15.2213 14.0123 15.2643 13.9078C15.418 13.5882 15.5778 13.2686 15.7377 12.9491C15.9098 12.5988 16.1127 12.2054 16.291 11.8182C16.4508 11.4864 16.6906 11.3327 17.0717 11.3327C19.7643 11.345 22.3893 11.345 24.8729 11.3327C25.2848 11.3327 25.5307 11.4864 25.6967 11.8367C25.875 12.2177 26.0656 12.5926 26.25 12.9614L26.2746 13.0167C26.4221 13.3055 26.5635 13.5944 26.7049 13.8894C26.7602 14.0061 26.7787 14.0184 26.9016 14.0184C28.7336 14.043 29.9692 15.3029 29.9754 17.1589C29.9754 18.9657 29.9754 20.7787 29.9754 22.5856V32.7937C29.9754 34.7296 28.7151 35.9833 26.7787 35.9833H20.9815L20.9877 35.9894ZM17.0901 11.4925C16.7582 11.4925 16.5737 11.6093 16.4385 11.8858C16.2541 12.2792 16.0574 12.6725 15.8791 13.0228C15.7192 13.3424 15.5594 13.662 15.4057 13.9815C15.3319 14.1352 15.2705 14.1721 15.0983 14.1782C13.3156 14.2089 12.1598 15.3889 12.1598 17.1896C12.1598 22.4012 12.1598 27.6128 12.1598 32.8244C12.1598 34.6558 13.3463 35.8358 15.1844 35.8358H20.9815H26.7787C28.6291 35.8358 29.8217 34.6435 29.8217 32.7998V22.5917C29.8217 20.7849 29.8217 18.9719 29.8217 17.165C29.8217 15.4012 28.6475 14.2028 26.9016 14.1782C26.7233 14.1782 26.6496 14.129 26.5697 13.9631C26.4283 13.6743 26.2869 13.3854 26.1393 13.0966L26.1147 13.0412C25.9303 12.6725 25.7397 12.2915 25.5615 11.9104C25.4262 11.6154 25.2295 11.4987 24.8852 11.4987C22.3893 11.511 19.7705 11.511 17.084 11.4987L17.0901 11.4925ZM20.9877 35.5285C19.0574 35.5285 17.1209 35.5285 15.1906 35.5285C13.5123 35.5285 12.4733 34.4899 12.4733 32.8244C12.4733 27.6128 12.4733 22.4012 12.4733 17.1896C12.4733 15.5549 13.4815 14.5162 15.1106 14.4855C15.3934 14.4855 15.5594 14.3749 15.6885 14.1167C15.8422 13.7972 16.002 13.4837 16.1619 13.1642C16.3463 12.7893 16.543 12.4082 16.7213 12.0211C16.8012 11.849 16.8811 11.7998 17.084 11.7998H17.0901C19.7766 11.8121 22.4016 11.8121 24.8914 11.7998C25.125 11.7998 25.2049 11.849 25.291 12.0333C25.4631 12.4082 25.6537 12.7893 25.8381 13.1519L25.8565 13.1949C26.0102 13.4899 26.1578 13.791 26.2992 14.0922C26.4283 14.3687 26.6065 14.4793 26.9078 14.4855C28.4938 14.5039 29.5205 15.5549 29.5205 17.165C29.5205 18.9719 29.5205 20.7849 29.5205 22.5917V32.7998C29.5205 34.4837 28.4692 35.5285 26.7848 35.5285C24.8545 35.5285 22.918 35.5285 20.9877 35.5285ZM17.0778 11.8797V11.9534C16.9303 11.9534 16.9057 11.9719 16.8565 12.0825C16.6721 12.4697 16.4815 12.8507 16.291 13.2256C16.1311 13.5391 15.9713 13.8586 15.8237 14.1721C15.6762 14.4855 15.4549 14.6207 15.1106 14.6268C13.5799 14.6514 12.627 15.6286 12.627 17.1773C12.627 22.3889 12.627 27.6005 12.627 32.8121C12.627 34.3854 13.6106 35.3626 15.1906 35.3626C19.0574 35.3626 22.918 35.3626 26.7848 35.3626C28.377 35.3626 29.3668 34.3731 29.3668 32.7875V22.5794C29.3668 20.7726 29.3668 18.9596 29.3668 17.1527C29.3668 15.6409 28.3955 14.6453 26.9016 14.6268C26.5451 14.6268 26.3115 14.4732 26.1578 14.1475C26.0164 13.8463 25.8627 13.5513 25.7151 13.2563L25.6967 13.2133C25.5123 12.8446 25.3217 12.4697 25.1496 12.0887C25.0942 11.9657 25.0697 11.9412 24.8975 11.9412C22.4016 11.9534 19.7766 11.9534 17.0901 11.9412V11.8674L17.0778 11.8797ZM30.0553 14.7805L29.6434 14.4056C29.5451 14.3134 29.4467 14.2274 29.3483 14.1475C28.8319 13.7296 28.2787 13.4714 27.6578 13.3547C27.4549 13.3178 27.2028 13.1949 27.086 12.9921C26.9324 12.7278 26.7971 12.4513 26.6557 12.1624L26.2561 11.345H27.1906C27.3319 11.345 27.4733 11.345 27.6086 11.345C28.0881 11.345 28.4078 11.1361 28.6291 10.6936C28.7213 10.5092 28.8504 10.331 28.9918 10.1835C30.4426 8.72693 32.0164 7.15362 33.7992 5.37136C33.8483 5.32219 33.9098 5.27303 33.9651 5.23001C33.1906 4.12992 33.166 3.14046 33.8852 2.20016C34.4692 1.43808 35.4651 1.13694 36.3627 1.44423C37.4877 1.83141 38.0225 2.66723 37.9979 4.00086C38.1393 4.00086 38.2746 4.00086 38.4098 4.00086C39.3873 4.03159 40.2479 4.67074 40.543 5.59261C40.8381 6.50832 40.543 7.49164 39.793 8.10007C39.0369 8.71464 38.0348 8.78839 37.1865 8.29059C37.0451 8.21069 36.916 8.11851 36.7807 8.03246L30.0492 14.7743L30.0553 14.7805ZM26.502 11.4987L26.7971 12.0948C26.9385 12.3837 27.0676 12.6541 27.2213 12.9122C27.3135 13.072 27.5287 13.1703 27.6885 13.201C28.334 13.3178 28.9119 13.5882 29.4467 14.0246C29.5512 14.1045 29.6434 14.1966 29.7479 14.2888L30.0492 14.5592L36.7623 7.8358L36.8668 7.9034C36.9959 7.98944 37.1311 8.08163 37.2664 8.15538C38.0656 8.61631 39 8.55485 39.7008 7.9833C40.4016 7.41175 40.6783 6.48988 40.4016 5.64177C40.125 4.78137 39.3258 4.18523 38.4098 4.1545C38.25 4.1545 38.0963 4.1545 37.9242 4.1545H37.8442V4.07461C37.8934 2.77171 37.3955 1.95433 36.3197 1.58558C35.4836 1.29673 34.5553 1.58558 34.0143 2.29234C33.3319 3.18348 33.375 4.13607 34.1434 5.19928L34.1865 5.26074L34.125 5.30376C34.0574 5.35292 33.9836 5.40823 33.916 5.47584C32.1332 7.25196 30.5594 8.82527 29.1086 10.2818C28.9733 10.417 28.8565 10.5829 28.7705 10.755C28.5246 11.2528 28.1557 11.4925 27.6147 11.4925C27.4795 11.4925 27.3381 11.4925 27.1967 11.4925H26.5082L26.502 11.4987ZM11.9938 14.7805L5.23768 8.02017C4.10654 8.81912 3.10449 8.83756 2.16391 8.06934C1.38932 7.43633 1.13113 6.56978 1.44465 5.63563C1.80121 4.54783 2.63113 3.99471 3.90367 3.99471C3.93441 3.99471 3.97129 3.99471 4.00203 3.99471C4.00203 3.84722 4.00203 3.71815 4.00203 3.58295C4.03277 2.63036 4.65367 1.7761 5.54506 1.46267C6.4549 1.14309 7.48768 1.43194 8.10244 2.19401C8.7049 2.93765 8.78481 3.96398 8.29301 4.80595C8.21309 4.94116 8.12703 5.07022 8.03481 5.20542C8.07785 5.24844 8.12088 5.29761 8.16391 5.34063L9.8299 7.00613C10.8811 8.05705 11.9262 9.10183 12.9713 10.1527C13.1557 10.3371 13.2725 10.4969 13.3524 10.6628C13.5676 11.1299 13.9057 11.345 14.416 11.345H15.7315L15.3442 12.1255C15.1844 12.4513 15.0553 12.7155 14.9078 12.9859C14.8278 13.1334 14.6496 13.2994 14.4344 13.3362C13.586 13.4653 12.8606 13.8648 12.209 14.547L11.9938 14.7743V14.7805ZM5.25613 7.82351L11.9938 14.5654L12.1045 14.4486C12.7807 13.7357 13.5369 13.3239 14.4221 13.1887C14.5758 13.1642 14.7233 13.0351 14.7787 12.9183C14.9201 12.6541 15.0553 12.3837 15.209 12.0641L15.4856 11.5048H14.4221C13.8381 11.5048 13.4508 11.259 13.211 10.7366C13.1434 10.5891 13.0328 10.4355 12.8606 10.2695C11.8156 9.21859 10.7643 8.17382 9.71924 7.1229L8.05326 5.4574C7.99178 5.39594 7.93645 5.33448 7.88113 5.27303L7.83809 5.23001L7.89957 5.13168C7.99178 4.99647 8.07785 4.86741 8.15777 4.7322C8.61268 3.94555 8.54506 2.98681 7.97949 2.29849C7.40162 1.59173 6.4426 1.31517 5.58809 1.61631C4.75203 1.91131 4.17416 2.70411 4.14957 3.59524C4.14957 3.74888 4.14957 3.90867 4.14957 4.07461V4.1545H4.06965C2.74793 4.09919 1.9426 4.60314 1.58604 5.68479C1.29711 6.55749 1.53686 7.36258 2.25613 7.95257C3.14752 8.68391 4.11268 8.65318 5.2008 7.85424L5.25613 7.81736V7.82351ZM30.0369 14.1475L29.9569 14.0737C29.8524 13.9754 29.7479 13.8832 29.6434 13.7972C29.0717 13.3362 28.4324 13.0351 27.7438 12.906C27.6455 12.8876 27.5225 12.82 27.4856 12.7647C27.3442 12.5189 27.2213 12.2607 27.086 11.9903L27 11.8121H27.3196C27.418 11.8121 27.5164 11.8121 27.6086 11.8121C28.2602 11.8121 28.7397 11.5048 29.0348 10.9025C29.1024 10.7612 29.2008 10.626 29.3115 10.5092C30.793 9.02193 32.3606 7.44862 34.1188 5.70323C34.1803 5.64177 34.2479 5.59261 34.3217 5.54344L34.3401 5.53115C34.3893 5.49427 34.4385 5.46355 34.4815 5.42667L34.6045 5.33448L34.5061 5.21157C33.6762 4.16679 33.5901 3.33097 34.2356 2.49515C34.7028 1.89287 35.4897 1.64704 36.1967 1.89287C37.211 2.24318 37.6168 2.98681 37.5 4.30815L37.4877 4.47408H37.9979C38.127 4.47408 38.2561 4.47408 38.3791 4.47408C39.1598 4.49866 39.8483 5.00876 40.0881 5.74625C40.3279 6.47759 40.0881 7.27039 39.4856 7.75591C38.8832 8.24757 38.084 8.30288 37.4016 7.9034C37.2787 7.82966 37.1557 7.74976 37.0266 7.66372L36.7069 7.45477L30.0184 14.1536L30.0369 14.1475ZM27.2397 11.9657C27.3627 12.2177 27.4795 12.4574 27.6147 12.6848C27.627 12.6971 27.7008 12.7401 27.7684 12.7524C28.4877 12.8815 29.1455 13.1949 29.7356 13.6743C29.834 13.7542 29.9324 13.8463 30.0307 13.9324L36.7008 7.25196L37.1188 7.52851C37.2541 7.6207 37.3709 7.7006 37.4938 7.7682C38.1209 8.13694 38.8524 8.08163 39.4057 7.63299C39.959 7.18435 40.1742 6.45916 39.959 5.78927C39.7377 5.11324 39.1106 4.64616 38.3914 4.62158C38.2684 4.62158 38.1455 4.62158 38.0164 4.62158H37.3401L37.3647 4.28971C37.4692 3.04827 37.1004 2.3538 36.166 2.02808C35.5205 1.80683 34.7951 2.02808 34.377 2.57505C33.7869 3.34941 33.8668 4.12992 34.6475 5.10709L34.8442 5.35292L34.5922 5.54344C34.543 5.58031 34.4938 5.61104 34.4508 5.64792L34.4262 5.66635C34.3586 5.71552 34.291 5.75854 34.2418 5.81385C32.4836 7.56539 30.916 9.13255 29.4344 10.6198C29.336 10.7182 29.2438 10.8472 29.1824 10.9701C28.8565 11.6277 28.334 11.9596 27.6147 11.9657C27.5164 11.9657 27.418 11.9657 27.3196 11.9657H27.2397ZM11.9877 14.1229L5.28072 7.41175L5.17621 7.49779C4.12498 8.32746 3.28891 8.39506 2.459 7.71903C1.83195 7.20894 1.63523 6.53905 1.88113 5.78312C2.21924 4.76293 2.96309 4.36346 4.29711 4.48023L4.46309 4.49252V4.07461C4.46309 3.90867 4.46309 3.75503 4.46309 3.60139C4.48768 2.83317 4.97949 2.15099 5.69875 1.89902C6.43031 1.64704 7.25408 1.88058 7.74588 2.48286C8.23768 3.08514 8.29301 3.89024 7.89957 4.57241C7.8258 4.70147 7.73973 4.82439 7.65367 4.95345L7.45695 5.25459L7.63523 5.44511C7.70285 5.51886 7.77662 5.59875 7.84424 5.6725L9.51023 7.338C10.5615 8.38892 11.6065 9.43369 12.6516 10.4846C12.793 10.626 12.8852 10.7489 12.9406 10.8657C13.2356 11.4925 13.7336 11.8121 14.4221 11.8121H15L14.9385 11.9227C14.7725 12.2607 14.6496 12.5127 14.5082 12.7708C14.4836 12.8139 14.4221 12.863 14.3852 12.8815C13.5061 13.0167 12.7192 13.4161 12.043 14.0737L11.9877 14.1229ZM5.29301 7.20894L11.9938 13.9078C12.6824 13.2625 13.4754 12.8692 14.3483 12.734C14.3422 12.734 14.3668 12.7094 14.3729 12.7032C14.4959 12.4758 14.6065 12.2484 14.7479 11.9657H14.4283C13.6598 11.9657 13.1188 11.6154 12.793 10.9271C12.7438 10.8288 12.6639 10.7182 12.5348 10.5891C11.4897 9.53817 10.4385 8.4934 9.39342 7.44247L7.72744 5.77698C7.65367 5.70323 7.5799 5.62333 7.51227 5.54959L7.25408 5.27303L7.51842 4.87355C7.60449 4.74449 7.68441 4.62772 7.75818 4.50481C8.12088 3.87794 8.0717 3.14046 7.62293 2.58734C7.16801 2.02808 6.41186 1.81297 5.74178 2.04651C5.09014 2.27391 4.63523 2.90077 4.61064 3.60753C4.61064 3.76117 4.61064 3.90867 4.61064 4.06846V4.65845L4.27867 4.62772C3.03072 4.5171 2.3299 4.88585 2.02252 5.82614C1.79506 6.51447 1.97949 7.12904 2.55121 7.59612C3.3135 8.21684 4.09424 8.14923 5.07785 7.37487L5.29301 7.20279V7.20894ZM27.959 10.6075H14.0471V8.7085H27.959V10.6075ZM14.2008 10.4539H27.8053V8.86214H14.2008V10.4539ZM27.4979 10.1466H14.5082V9.16943H27.4979V10.1466ZM14.6619 9.99296H27.3442V9.32307H14.6619V9.99296ZM25.3094 7.92799H16.6844V7.44862C16.6844 7.32571 16.6844 7.19664 16.6844 7.07373C16.7028 6.39155 17.0901 6.01666 17.7664 6.01666C18.5778 6.01666 19.3832 6.01666 20.2008 6.01666H24.0615C24.9713 6.01666 25.3094 6.35468 25.3094 7.2581V7.93413V7.92799ZM16.8381 7.77434H25.1557V7.25196C25.1557 6.44072 24.8791 6.16416 24.0615 6.16416H20.2008C19.3893 6.16416 18.5778 6.16416 17.7664 6.16416C17.1639 6.16416 16.8504 6.47145 16.8381 7.07373C16.8381 7.19664 16.8381 7.31956 16.8381 7.44247V7.77434ZM24.8483 7.46706H17.1455V7.39331C17.1455 7.28883 17.1455 7.1905 17.1455 7.08602C17.1578 6.64967 17.3299 6.47759 17.7725 6.47759C18.7869 6.47759 19.8012 6.47759 20.8094 6.47759H24.0615C24.7192 6.47759 24.8483 6.6128 24.8483 7.2581V7.4732V7.46706ZM17.2992 7.31341H24.6946V7.25196C24.6946 6.69269 24.627 6.62509 24.0615 6.62509H20.8094C19.7951 6.62509 18.7869 6.62509 17.7725 6.62509C17.4221 6.62509 17.3115 6.73571 17.2992 7.08602C17.2992 7.15977 17.2992 7.23352 17.2992 7.30727V7.31341Z" fill="#0E276C"/>
<path d="M20.9938 33.0211C20.1332 33.0211 19.2725 33.0211 18.4057 33.0211C17.1885 33.0149 16.291 32.1607 16.3463 30.9438C16.3893 29.9482 16.1434 29.2169 15.4242 28.4241C13.4877 26.2853 13.0942 23.741 14.2746 21.1045C15.4549 18.4741 17.6004 17.1282 20.4897 17.0053C21.8176 16.95 23.1209 17.0606 24.3565 17.6444C28.8442 19.7647 29.7295 25.6892 26.041 29.0263C25.7643 29.2783 25.6414 29.518 25.6721 29.8806C25.7029 30.2678 25.6844 30.6611 25.6721 31.0483C25.6414 32.1422 24.7992 32.9965 23.7049 33.0211C22.8012 33.0395 21.8975 33.0211 20.9938 33.0211ZM19.0143 31.6875V29.0386H20.3422V31.6567H21.6824V29.0448H23.0225V31.6875C23.1947 31.6875 23.3176 31.6875 23.4406 31.6875C24.1168 31.6875 24.332 31.4724 24.3381 30.7902C24.3381 30.3723 24.375 29.9544 24.332 29.5426C24.2643 28.9526 24.4795 28.5777 24.9529 28.1905C28.2356 25.5417 27.4426 20.3608 23.5451 18.7507C22.4692 18.3082 21.3504 18.302 20.2192 18.3512C17.4037 18.4741 15.043 20.8955 14.9938 23.7103C14.957 25.6646 15.7377 27.2441 17.3053 28.4118C17.5635 28.6084 17.6803 28.8051 17.668 29.1308C17.6373 29.7147 17.6557 30.2985 17.6619 30.8824C17.6619 31.4478 17.9078 31.6813 18.4795 31.6875C18.6332 31.6875 18.7807 31.6875 19.0082 31.6875H19.0143Z" fill="#0E276C"/>
<path d="M22.6475 33.1009C22.3893 33.1009 22.1311 33.1009 21.8791 33.1009C21.584 33.1009 21.2889 33.1009 20.9877 33.1009H20.1947C19.5983 33.1009 19.002 33.1009 18.4057 33.1009C17.7664 33.1009 17.1947 32.8674 16.8012 32.4495C16.4324 32.0623 16.2418 31.5215 16.2664 30.9438C16.3094 29.9482 16.0512 29.2353 15.3627 28.4793C13.4016 26.316 13.002 23.7533 14.2008 21.0737C15.375 18.4495 17.4897 17.0544 20.4836 16.9315C22.0881 16.8639 23.293 17.0606 24.3811 17.5768C26.5143 18.5847 27.9897 20.5698 28.334 22.8744C28.6721 25.1791 27.836 27.5022 26.084 29.0878C25.8135 29.3336 25.7151 29.5549 25.7397 29.8806C25.7643 30.2309 25.7582 30.5935 25.7459 30.9438V31.0544C25.7151 32.1975 24.836 33.0825 23.6988 33.1009C23.3483 33.1009 22.9979 33.1071 22.6475 33.1071V33.1009ZM21.1106 32.9412C21.3688 32.9412 21.6209 32.9412 21.8791 32.9412C22.4754 32.9412 23.0901 32.9412 23.6988 32.9412C24.75 32.9227 25.5676 32.1053 25.5922 31.0483V30.9376C25.6045 30.5935 25.6168 30.237 25.5922 29.8929C25.5676 29.5241 25.6783 29.2537 25.9856 28.9772C27.7254 27.4038 28.5246 25.1914 28.1865 22.9052C27.8545 20.6497 26.4098 18.7138 24.3197 17.7243C23.25 17.2203 22.0758 17.0237 20.4897 17.0913C17.5635 17.2142 15.4918 18.5786 14.3422 21.1413C13.168 23.7656 13.5615 26.2669 15.4795 28.381C16.1926 29.1677 16.4631 29.9113 16.4201 30.9561C16.3955 31.5031 16.5676 31.9886 16.9119 32.3512C17.2746 32.7322 17.8033 32.9473 18.4057 32.9534C19.002 32.9534 19.5983 32.9534 20.1947 32.9534H20.9877C21.0307 32.9534 21.0676 32.9534 21.1106 32.9534V32.9412ZM18.6393 31.7612C18.584 31.7612 18.5348 31.7612 18.4856 31.7612C17.8647 31.755 17.5942 31.4908 17.5881 30.8762V30.5136C17.5758 30.0588 17.5697 29.5856 17.5942 29.1185C17.6065 28.8297 17.5205 28.6576 17.2623 28.4609C15.6701 27.2686 14.8832 25.6646 14.9201 23.6918C14.9692 20.8218 17.3483 18.388 20.2192 18.259C21.3074 18.2098 22.4569 18.2037 23.5758 18.6646C25.4447 19.4328 26.7295 21.086 27.0184 23.0834C27.3012 25.0562 26.5512 26.9798 24.9959 28.2335C24.5102 28.6268 24.3442 28.9833 24.3996 29.518C24.4303 29.813 24.4242 30.1141 24.418 30.403C24.418 30.5259 24.4119 30.6488 24.4119 30.7779C24.4119 31.5031 24.166 31.7489 23.4406 31.755H22.9426V29.1124H21.7561V31.7243H20.2623V29.1062H19.0881V31.755H18.793C18.7377 31.755 18.6885 31.755 18.6393 31.755V31.7612ZM21.0615 18.4003C20.7787 18.4003 20.502 18.4126 20.2315 18.4249C17.4406 18.5478 15.1291 20.9139 15.0799 23.7041C15.043 25.6216 15.8115 27.1887 17.3606 28.3441C17.6557 28.5654 17.7664 28.7928 17.7541 29.1308C17.7295 29.5917 17.7356 30.0588 17.7418 30.5136V30.8762C17.7479 31.3986 17.9508 31.6014 18.4918 31.6075C18.5901 31.6075 18.6824 31.6075 18.7992 31.6075H18.9406V28.9587H20.4221V31.5768H21.6086V28.9649H23.1024V31.6075H23.4467C24.0799 31.6075 24.2643 31.4232 24.2643 30.784C24.2643 30.6611 24.2643 30.532 24.2705 30.4091C24.2766 30.1203 24.2889 29.8253 24.2582 29.5426C24.1967 28.9587 24.3811 28.5469 24.9098 28.1229C26.416 26.906 27.1537 25.0316 26.877 23.1141C26.5942 21.1721 25.3401 19.568 23.5266 18.8121C22.7151 18.4802 21.8852 18.4003 21.0676 18.4003H21.0615Z" fill="#0E276C"/>
<path d="M22.6537 33.2546C22.3955 33.2546 22.1373 33.2546 21.8852 33.2546H20.9938H20.2008C19.6045 33.2546 19.0082 33.2546 18.4057 33.2546C17.7233 33.2546 17.1147 33.0027 16.6967 32.5602C16.2971 32.1422 16.0942 31.5645 16.1188 30.9377C16.1619 29.9728 15.9221 29.3152 15.2582 28.5839C13.2541 26.3714 12.8422 23.7533 14.0717 21.0123C15.2705 18.3328 17.4283 16.907 20.4836 16.7779C22.0942 16.7103 23.3545 16.9192 24.4549 17.4416C26.6373 18.4741 28.1434 20.4961 28.4938 22.856C28.8442 25.2098 27.9836 27.5883 26.1946 29.2046C25.9549 29.4197 25.8811 29.5918 25.8996 29.8683C25.9242 30.2309 25.918 30.5935 25.9057 30.9438V31.0545C25.8688 32.2836 24.9283 33.23 23.7049 33.2485C23.3545 33.2485 23.0041 33.2546 22.6537 33.2546ZM20.9938 32.7875H21.8852C22.4877 32.7875 23.0963 32.7937 23.6987 32.7875C24.6701 32.7691 25.4139 32.0193 25.4446 31.0422V30.9315C25.4569 30.5935 25.4692 30.2371 25.4446 29.8991C25.4139 29.4811 25.5492 29.1677 25.8934 28.8604C27.5901 27.324 28.377 25.1607 28.0451 22.9236C27.7192 20.7173 26.3053 18.8244 24.2643 17.8595C23.2192 17.3679 22.0635 17.1712 20.5082 17.245C17.6434 17.3679 15.6209 18.7015 14.4959 21.209C13.3524 23.7717 13.7336 26.2178 15.6024 28.2827C16.3463 29.1001 16.6291 29.8806 16.5799 30.9623C16.5553 31.4662 16.7151 31.9087 17.0287 32.2467C17.3606 32.597 17.8524 32.7937 18.4119 32.7998C19.0082 32.7998 19.6045 32.7998 20.2008 32.7998H20.9938V32.7875ZM18.7992 31.9149H18.4856C17.7848 31.9026 17.4467 31.5645 17.4406 30.8824V30.5198C17.4283 30.0588 17.4221 29.5856 17.4467 29.1185C17.459 28.885 17.3914 28.7559 17.1762 28.5962C15.5471 27.3732 14.7356 25.7261 14.7725 23.7041C14.8278 20.7542 17.2684 18.2529 20.2192 18.1238C21.3258 18.0746 22.4938 18.0685 23.6434 18.5417C25.5615 19.3345 26.8832 21.0307 27.1783 23.0834C27.4733 25.1115 26.6926 27.0904 25.1004 28.3749C24.6516 28.7375 24.5102 29.0386 24.5594 29.5242C24.5901 29.8314 24.584 30.1326 24.5778 30.4337C24.5778 30.5566 24.5717 30.6796 24.5717 30.8025C24.5717 31.6137 24.252 31.9271 23.4467 31.9271H22.7951V29.2845H21.916V31.8964H20.1147V29.2783H19.2479V31.9271H18.7992V31.9149ZM21.0615 18.554C20.7848 18.554 20.5082 18.5663 20.2377 18.5786C17.5266 18.6954 15.2828 21 15.2336 23.7103C15.2028 25.5786 15.9467 27.0966 17.4528 28.2274C17.791 28.4794 17.9262 28.7498 17.9078 29.1431C17.8832 29.5979 17.8893 30.065 17.8955 30.5198V30.8824C17.9016 31.3187 18.043 31.4539 18.4918 31.4601H18.7869V28.8113H20.5758V31.4293H21.4549V28.8174H23.2561V31.4601H23.4467C24 31.4601 24.1106 31.3494 24.1168 30.7902C24.1168 30.6611 24.1168 30.5382 24.1229 30.4091C24.1291 30.1142 24.1414 29.8376 24.1106 29.5672C24.043 28.9219 24.2459 28.4732 24.8176 28.0123C26.2807 26.8323 26.9938 25.007 26.7295 23.1449C26.459 21.2581 25.2418 19.6971 23.4713 18.9658C22.6844 18.6401 21.8668 18.5602 21.0676 18.5602L21.0615 18.554Z" fill="#0E276C"/>
<path d="M22.6537 33.3284C22.3955 33.3284 22.1373 33.3284 21.8852 33.3284H20.9939H19.9242C19.4201 33.3284 18.9098 33.3284 18.4057 33.3284C17.7049 33.3284 17.0779 33.0703 16.6414 32.6093C16.2295 32.173 16.0143 31.5768 16.0451 30.9315C16.0881 29.9912 15.8484 29.3459 15.2029 28.633C13.1803 26.396 12.7623 23.7472 14.0041 20.9754C15.2152 18.2652 17.3975 16.8271 20.4836 16.698C22.1127 16.6304 23.3852 16.8455 24.4918 17.3679C26.6926 18.4127 28.2234 20.453 28.5738 22.8376C28.9242 25.2221 28.0574 27.619 26.25 29.2537C26.0287 29.4566 25.9611 29.6041 25.9795 29.856C26.0041 30.2186 25.9979 30.5812 25.9857 30.9315V31.0483C25.9488 32.3205 24.9713 33.2976 23.7111 33.3161C23.3607 33.3161 23.0102 33.3222 22.6537 33.3222V33.3284ZM20.9939 33.1686H21.8852C22.4938 33.1686 23.1025 33.1747 23.7111 33.1686C24.8914 33.144 25.8012 32.2344 25.832 31.0483V30.9377C25.8443 30.5812 25.8566 30.2248 25.832 29.8683C25.8074 29.5672 25.8996 29.3705 26.1516 29.1431C27.9221 27.5391 28.7705 25.1976 28.4262 22.8622C28.082 20.5268 26.5881 18.5294 24.4303 17.5092C23.3484 16.9991 22.0943 16.7902 20.4959 16.8578C17.4713 16.9868 15.3381 18.3942 14.1516 21.0492C12.9406 23.7595 13.3463 26.3468 15.3258 28.5408C16.002 29.2906 16.2479 29.9605 16.2049 30.95C16.1803 31.5523 16.377 32.1115 16.7643 32.511C17.1701 32.9412 17.7602 33.1809 18.418 33.1809C18.9221 33.1809 19.4262 33.1809 19.9365 33.1809H21.0061L20.9939 33.1686ZM22.6475 32.8674C22.3955 32.8674 22.1434 32.8674 21.8852 32.8674H20.9939H19.7889C19.334 32.8674 18.8729 32.8674 18.4119 32.8674C17.834 32.8674 17.3238 32.6585 16.9734 32.2897C16.6414 31.9394 16.4816 31.4785 16.5 30.95C16.5492 29.8868 16.2664 29.1247 15.541 28.3257C13.6475 26.2362 13.2602 23.7595 14.416 21.1721C15.5533 18.6339 17.6004 17.288 20.4959 17.1651C22.0512 17.0913 23.2254 17.288 24.2889 17.7919C26.3545 18.7691 27.7807 20.6866 28.1127 22.9175C28.4447 25.1791 27.6516 27.367 25.9365 28.9219C25.6107 29.2169 25.4877 29.5119 25.5184 29.8991C25.543 30.2432 25.5369 30.5935 25.5246 30.9377V31.0483C25.4938 32.0685 24.7131 32.849 23.7049 32.8674C23.3545 32.8674 23.0041 32.8736 22.6537 32.8736L22.6475 32.8674ZM20.9939 32.7077H21.8852C22.4938 32.7077 23.0902 32.7077 23.6988 32.7077C24.627 32.6892 25.3402 31.9702 25.3647 31.036V30.9254C25.377 30.5874 25.3893 30.2371 25.3647 29.9052C25.334 29.4627 25.4754 29.1308 25.8381 28.799C27.5164 27.281 28.291 25.1422 27.9652 22.9298C27.6455 20.748 26.2438 18.8797 24.2275 17.921C23.1885 17.4293 22.0451 17.2388 20.5082 17.3126C17.6742 17.4355 15.6701 18.7507 14.5635 21.2274C13.4324 23.7595 13.8074 26.1747 15.6578 28.2213C16.4139 29.0571 16.709 29.8499 16.6598 30.9561C16.6352 31.4416 16.7889 31.8657 17.0902 32.1853C17.4098 32.5233 17.8832 32.7077 18.418 32.7138C18.8791 32.7138 19.334 32.7138 19.7951 32.7138H21.0061L20.9939 32.7077ZM18.7992 31.9886H18.4857C17.7479 31.9763 17.3668 31.6014 17.3607 30.8762V30.4952C17.3484 30.0404 17.3484 29.5733 17.3668 29.1063C17.3791 28.8973 17.3238 28.7928 17.127 28.6453C15.4734 27.41 14.6557 25.7384 14.6926 23.6919C14.7479 20.705 17.2254 18.1668 20.2131 18.0316C21.332 17.9825 22.5123 17.9763 23.668 18.4557C25.6107 19.2608 26.9508 20.9754 27.252 23.0527C27.5471 25.1054 26.7602 27.115 25.1496 28.4179C24.7193 28.7682 24.5902 29.0386 24.6393 29.4934C24.6701 29.8007 24.6639 30.108 24.6578 30.403C24.6578 30.5321 24.6516 30.655 24.6516 30.7779C24.6516 31.6322 24.3012 31.9825 23.4467 31.9825H22.7213V29.3398H21.9959V31.9517H20.041V29.3336H19.3279V31.9825H18.7992V31.9886ZM21.0553 18.1668C20.7725 18.1668 20.4959 18.173 20.2193 18.1853C17.3115 18.3143 14.9016 20.7849 14.8463 23.6919C14.8094 25.6892 15.6086 27.3178 17.2193 28.5224C17.4529 28.7006 17.5328 28.8481 17.5205 29.1124C17.4959 29.5733 17.502 30.0404 17.5082 30.489V30.8701C17.5205 31.5154 17.8279 31.8165 18.4857 31.8288H18.7992H19.1742V29.18H20.1947V31.7981H21.8422V29.1861H22.875V31.8288H23.4467C24.209 31.8288 24.4918 31.54 24.4979 30.7779C24.4979 30.655 24.4979 30.5321 24.5041 30.4091C24.5102 30.108 24.5225 29.8069 24.4857 29.5119C24.4303 29.0018 24.584 28.676 25.0512 28.295C26.625 27.029 27.3873 25.0746 27.0984 23.0711C26.8033 21.0492 25.5 19.3714 23.6066 18.5909C22.7643 18.2406 21.8975 18.1607 21.0553 18.1607V18.1668ZM18.8607 31.5277H18.4857C17.9938 31.5215 17.8217 31.3494 17.8156 30.8762V30.5136C17.8033 30.0588 17.8033 29.5918 17.8217 29.1308C17.8402 28.7621 17.7172 28.5163 17.3975 28.2827C15.8729 27.1396 15.1168 25.597 15.1475 23.7041C15.1967 20.957 17.4775 18.6216 20.2254 18.4987C20.4652 18.4864 20.7541 18.4741 21.0492 18.4741C22.0451 18.4741 22.7951 18.6032 23.4836 18.8859C25.2787 19.6234 26.5082 21.209 26.791 23.1264C27.0676 25.0193 26.3422 26.8631 24.8545 28.0676C24.3074 28.5101 24.1107 28.9403 24.1783 29.5549C24.209 29.8314 24.2029 30.108 24.1906 30.3969C24.1906 30.5321 24.1844 30.6611 24.1844 30.784C24.1844 31.3802 24.0369 31.5277 23.4406 31.5277H23.1762V28.885H21.5287V31.4969H20.4959V28.8789H18.8607V31.5277ZM21.0553 18.6278C20.7602 18.6278 20.4775 18.6401 20.2377 18.6523C17.5697 18.7691 15.3566 21.0369 15.3074 23.7041C15.2766 25.5479 16.0082 27.0413 17.4959 28.1598C17.8463 28.4241 18 28.7252 17.9816 29.137C17.957 29.5918 17.9631 30.0588 17.9693 30.5075V30.8701C17.9754 31.2634 18.0799 31.3679 18.4918 31.374H18.707V28.7252H20.6496V31.3433H21.375V28.7314H23.3299V31.374H23.4406C23.9508 31.374 24.0307 31.2941 24.0307 30.784C24.0307 30.655 24.0307 30.5259 24.0369 30.403C24.043 30.108 24.0492 29.8314 24.0246 29.5672C23.9508 28.8973 24.166 28.4241 24.7623 27.9447C26.207 26.777 26.9078 24.9886 26.6434 23.151C26.3729 21.2889 25.1742 19.7524 23.4344 19.0334C22.7705 18.7568 22.0389 18.6339 21.0615 18.6339L21.0553 18.6278Z" fill="#0E276C"/>
<path d="M18.418 21.6699C19.1803 21.6084 19.8443 21.8542 20.2008 22.6532C20.4652 23.2555 20.3607 23.8332 19.9426 24.3248C19.6537 24.6629 19.3402 24.9763 19.002 25.2651C18.498 25.7015 17.9139 25.806 17.293 25.5233C16.6783 25.2467 16.3648 24.755 16.334 24.0852C16.3217 23.8639 16.334 23.6427 16.334 23.4214C16.334 22.3398 16.998 21.6822 18.0676 21.6699C18.166 21.6699 18.2643 21.6699 18.418 21.6699ZM17.6066 23.6304C17.6066 23.6304 17.6496 23.6427 17.668 23.655C17.668 23.7779 17.6557 23.9069 17.668 24.0298C17.7049 24.3125 17.9324 24.417 18.1414 24.2388C18.4119 24.0053 18.6762 23.7471 18.8975 23.4644C18.959 23.3907 18.8791 23.0711 18.8484 23.065C18.5102 23.0342 18.1537 22.9912 17.834 23.065C17.7234 23.0895 17.6803 23.4276 17.6066 23.6242V23.6304Z" fill="#0E276C"/>
<path d="M17.9631 25.7629C17.7295 25.7629 17.4959 25.7076 17.2561 25.6031C16.6229 25.3143 16.2848 24.8103 16.2541 24.0974C16.2479 23.9253 16.2541 23.7533 16.2541 23.5873V23.4275C16.2602 22.309 16.9549 21.6084 18.0676 21.6023H18.418C19.3217 21.5347 19.9365 21.8788 20.2746 22.6286C20.5512 23.2432 20.4528 23.8516 20.0041 24.3801C19.7213 24.7181 19.4016 25.0377 19.0574 25.3327C18.7254 25.6216 18.3565 25.7691 17.9754 25.7691L17.9631 25.7629ZM18.2582 21.7498H18.0615C17.0287 21.7559 16.4139 22.3828 16.4078 23.4214V23.5812C16.4078 23.7471 16.4078 23.9131 16.4078 24.079C16.4385 24.7304 16.7459 25.1914 17.3237 25.4556C17.9078 25.7199 18.4549 25.6339 18.9467 25.2098C19.2848 24.921 19.5983 24.6075 19.8811 24.2757C20.293 23.7963 20.3791 23.2432 20.127 22.6839C19.8196 21.9956 19.2479 21.676 18.4242 21.7436H18.2643L18.2582 21.7498ZM17.9324 24.4047C17.8955 24.4047 17.8586 24.4047 17.8278 24.3863C17.6987 24.3371 17.6188 24.2142 17.5942 24.0421C17.5819 23.9499 17.5881 23.8639 17.5942 23.7717C17.5942 23.7533 17.5942 23.7287 17.5942 23.7103L17.5082 23.6795L17.5328 23.6058C17.5574 23.5443 17.5758 23.4767 17.5942 23.403C17.6496 23.2002 17.6926 23.0281 17.8155 23.0035C18.1352 22.9297 18.4795 22.9605 18.8115 22.9973H18.8545C18.9098 23.0096 18.9344 23.0588 18.9405 23.0834C18.9713 23.151 19.0451 23.4214 18.959 23.5259C18.7561 23.7779 18.5102 24.036 18.1906 24.3064C18.1106 24.374 18.0184 24.4109 17.9324 24.4109V24.4047ZM17.6987 23.5873L17.7418 23.6058V23.6611C17.7418 23.7041 17.7418 23.741 17.7418 23.784C17.7418 23.87 17.7418 23.9499 17.7418 24.0298C17.7541 24.1405 17.8094 24.2265 17.877 24.2511C17.9385 24.2757 18.0123 24.2511 18.086 24.1896C18.3934 23.9192 18.6393 23.6734 18.8299 23.4275C18.8483 23.3907 18.8237 23.2186 18.7992 23.151H18.7869C18.4672 23.1203 18.1352 23.0895 17.8401 23.151C17.8033 23.1694 17.7602 23.3477 17.7356 23.4398C17.7233 23.489 17.711 23.5382 17.6926 23.5873H17.6987Z" fill="#0E276C"/>
<path d="M25.6721 23.7349C25.7336 24.497 25.5 25.1853 24.6824 25.5417C24.0615 25.8121 23.4775 25.6892 22.9795 25.2529C22.666 24.9763 22.3709 24.6813 22.0943 24.3679C21.6455 23.8516 21.5225 23.2617 21.8115 22.6286C22.0881 22.0141 22.5861 21.7068 23.2561 21.6761C23.4775 21.6638 23.6988 21.6761 23.9201 21.6761C24.9959 21.6822 25.6598 22.3398 25.666 23.4153C25.666 23.5013 25.666 23.5812 25.666 23.741L25.6721 23.7349ZM23.6865 22.9359C23.6865 22.9359 23.668 22.9851 23.6619 23.0097C23.5943 23.0097 23.5143 22.9912 23.4529 23.0097C23.3053 23.0588 23.127 23.0957 23.041 23.2063C22.9979 23.2617 23.1086 23.4768 23.1947 23.5812C23.3914 23.8148 23.6004 24.0422 23.8463 24.2204C23.9385 24.288 24.2705 24.2081 24.2766 24.1651C24.3135 23.8394 24.3565 23.489 24.2766 23.1879C24.2397 23.0588 23.8955 23.0158 23.6926 22.9359H23.6865Z" fill="#0E276C"/>
<path d="M24.0369 25.763C23.6496 25.763 23.2746 25.6093 22.9304 25.3082C22.6107 25.0316 22.3095 24.7305 22.039 24.4171C21.5533 23.8639 21.4549 23.2371 21.7439 22.5918C22.0328 21.9588 22.5369 21.6207 23.2562 21.59C23.4283 21.5839 23.6004 21.59 23.7726 21.59H23.9263C25.0451 21.5962 25.7398 22.2906 25.7459 23.403V23.7226C25.8197 24.6199 25.4631 25.2713 24.7131 25.6032C24.4857 25.7015 24.2582 25.7568 24.0369 25.7568V25.763ZM23.5451 21.7437C23.4529 21.7437 23.3545 21.7437 23.2623 21.7437C22.6107 21.7744 22.1435 22.0755 21.8853 22.6532C21.6148 23.2432 21.707 23.8025 22.1558 24.3126C22.4263 24.6199 22.7213 24.9149 23.0287 25.1853C23.5267 25.6216 24.0738 25.7138 24.6517 25.4618C25.3463 25.1545 25.666 24.5707 25.5922 23.7287V23.3969C25.5861 22.3644 24.959 21.7437 23.9201 21.7375H23.7603C23.6865 21.7375 23.6127 21.7375 23.539 21.7375L23.5451 21.7437ZM23.9693 24.3187C23.9078 24.3187 23.8463 24.3064 23.8033 24.2818C23.5451 24.0975 23.3238 23.8516 23.1332 23.6304C23.0902 23.5812 22.8812 23.2862 22.9795 23.1572C23.0595 23.0527 23.2008 23.0035 23.3361 22.9667C23.3668 22.9544 23.3976 22.9482 23.4222 22.9359C23.4775 22.9175 23.539 22.9236 23.5943 22.9236C23.5943 22.9236 23.5943 22.9236 23.6004 22.9236L23.6373 22.8315L23.7111 22.8622C23.7726 22.8868 23.8463 22.9052 23.9263 22.9298C24.123 22.9851 24.3074 23.0343 24.3443 23.1633C24.4304 23.4645 24.3935 23.7963 24.3566 24.1221V24.1712C24.3443 24.2265 24.2951 24.2511 24.2767 24.2573C24.2213 24.2818 24.0861 24.3187 23.9693 24.3187ZM23.5267 23.0773C23.5267 23.0773 23.4898 23.0773 23.4775 23.0834C23.4467 23.0957 23.416 23.1019 23.3853 23.1142C23.2746 23.151 23.1517 23.1879 23.1025 23.2555C23.1025 23.2801 23.1701 23.4399 23.25 23.5382C23.4345 23.7472 23.6435 23.9869 23.8894 24.1651C23.9324 24.1897 24.1291 24.1651 24.1967 24.1343V24.1159C24.2336 23.8086 24.2705 23.4952 24.1967 23.2186C24.1845 23.1695 23.9877 23.1203 23.8832 23.0896C23.834 23.0773 23.7787 23.0588 23.7295 23.0466L23.7111 23.0957H23.6558C23.6558 23.0957 23.6066 23.0957 23.582 23.0957C23.5636 23.0957 23.539 23.0957 23.5205 23.0957L23.5267 23.0773Z" fill="#0E276C"/>
</g>
<defs>
<clipPath id="clip0_30_864">
<rect width="42" height="42" fill="white"/>
</clipPath>
</defs>
</svg>
