<svg width="21" height="20" viewBox="0 0 21 20" fill="none" xmlns="http://www.w3.org/2000/svg">
<path d="M10.3959 20C16.1374 20 20.7917 15.5228 20.7917 10C20.7917 4.47715 16.1374 0 10.3959 0C4.65439 0 0 4.47715 0 10C0 15.5228 4.65439 20 10.3959 20Z" fill="#E4022E"/>
<path d="M11.9078 9.99993L14.5509 12.5423C14.6446 12.6328 14.6972 12.7553 14.6972 12.883C14.6972 13.0107 14.6446 13.1332 14.5509 13.2237L13.7472 13.9968C13.6531 14.0869 13.5258 14.1375 13.393 14.1375C13.2603 14.1375 13.1329 14.0869 13.0388 13.9968L10.3958 11.4544L7.75272 13.9968C7.65866 14.0869 7.5313 14.1375 7.39854 14.1375C7.26578 14.1375 7.13843 14.0869 7.04437 13.9968L6.24066 13.2237C6.14697 13.1332 6.09436 13.0107 6.09436 12.883C6.09436 12.7553 6.14697 12.6328 6.24066 12.5423L8.88372 9.99993L6.24066 7.45751C6.14697 7.36703 6.09436 7.24453 6.09436 7.11682C6.09436 6.98912 6.14697 6.86661 6.24066 6.77613L7.04437 6.00303C7.13843 5.91291 7.26578 5.8623 7.39854 5.8623C7.5313 5.8623 7.65866 5.91291 7.75272 6.00303L10.3958 8.54544L13.0388 6.00303C13.1329 5.91291 13.2603 5.8623 13.393 5.8623C13.5258 5.8623 13.6531 5.91291 13.7472 6.00303L14.5509 6.77613C14.6446 6.86661 14.6972 6.98912 14.6972 7.11682C14.6972 7.24453 14.6446 7.36703 14.5509 7.45751L11.9078 9.99993Z" fill="white"/>
</svg>
