<svg width="29" height="39" viewBox="0 0 29 39" fill="none" xmlns="http://www.w3.org/2000/svg">
<g clip-path="url(#clip0_30_2916)">
<path d="M20.8047 0C20.5898 2.25858 20.1195 4.49657 20.2203 6.77574C20.3547 9.91304 21.5638 12.5698 23.8478 14.6773C25.2048 15.9336 26.5214 17.2174 27.4216 18.8719C28.7248 21.2677 29.1951 23.8421 28.9398 26.54C28.4897 31.2563 26.1856 34.7918 22.2154 37.1876C20.274 38.3547 18.1513 38.9314 15.9009 38.9657C14.2886 38.9863 12.6697 39.0961 11.0776 38.7597C5.75053 37.627 2.2305 34.4142 0.564524 29.1281C-0.174416 26.7872 -0.0803688 24.3707 0.282383 21.968C0.685441 19.2769 1.55202 16.7368 2.63355 14.2654C2.74104 14.0183 2.85523 14.0046 3.08363 14.0732C4.58167 14.5332 6.0797 14.9725 7.57773 15.4188C7.6449 15.4394 7.7188 15.4462 7.76582 15.4531C7.96063 14.5195 8.08827 13.5858 8.34354 12.6934C9.6266 8.12815 12.3271 4.70938 16.4114 2.43021C17.7617 1.67506 19.1186 0.940503 20.4689 0.19222C20.5495 0.130435 20.6368 0.0617849 20.7308 0C20.7577 0 20.7779 0 20.8047 0ZM18.3192 17.9863C18.1916 19.1396 18.0572 20.2929 17.943 21.4462C17.7751 23.1899 18.3058 24.6659 19.5754 25.8535C19.7501 26.0183 19.9247 26.1762 20.0994 26.341C21.8997 28.0572 22.558 30.1922 22.2222 32.6499C22.1214 33.3982 21.8527 34.1259 21.6579 34.9085C22.1281 34.5309 22.6118 34.1808 23.0551 33.7826C26.7566 30.4256 27.6164 25.2906 25.984 21.0687C25.2921 19.27 24.0494 17.9039 22.6521 16.6613C19.3604 13.73 17.8355 10.0229 17.9699 5.58124C17.9833 5.11442 18.0304 4.65446 18.0639 4.08467C12.3875 7.20137 9.76096 12.0137 9.96249 18.5149C7.95391 17.9176 5.99908 17.3341 4.03082 16.7506C2.88211 19.7231 2.1163 22.73 2.28424 25.9016C2.47905 29.5263 4.10471 32.4027 6.94627 34.5584C7.08062 34.6613 7.23513 34.7506 7.45009 34.8947C5.93863 31.6751 7.05375 27.8238 8.34354 25.2357C9.11607 25.4622 9.89531 25.6888 10.6746 25.9153C10.7081 25.8124 10.7216 25.7643 10.735 25.7162C11.1649 23.6156 12.139 21.8032 13.852 20.5606C15.2291 19.5652 16.7742 18.8169 18.252 17.9588C18.2588 17.9588 18.2722 17.9588 18.3125 17.9794L18.3192 17.9863ZM9.53256 27.968C9.34446 28.9153 9.11607 29.7941 8.99515 30.6934C8.62568 33.3913 10.1506 35.8352 12.6563 36.4874C13.4355 36.6865 14.2752 36.6796 15.088 36.6865C17.1705 36.6865 19.0313 35.3616 19.7501 33.3982C20.3681 31.7025 20.2069 29.3822 18.3797 27.8444C17.0899 26.7529 16.2032 25.3867 15.8471 23.6979C15.7329 23.1625 15.6859 22.6133 15.6053 22.0366C14.5775 22.7574 13.8386 23.6842 13.3415 24.8238C12.9451 25.73 12.7839 26.6842 12.7906 27.6728C12.7906 28.0847 12.7906 28.4897 12.7906 28.9428C11.6822 28.6133 10.6611 28.3112 9.51912 27.9748L9.53256 27.968Z" fill="#0E276C"/>
</g>
<defs>
<clipPath id="clip0_30_2916">
<rect width="29" height="39" fill="white"/>
</clipPath>
</defs>
</svg>
