<svg width="43" height="33" viewBox="0 0 43 33" fill="none" xmlns="http://www.w3.org/2000/svg">
<g clip-path="url(#clip0_19_1203)">
<path d="M0 5.05342C1.04976 5.05342 2.09951 5.06685 3.14927 5.04335C3.35589 5.03663 3.60583 4.92918 3.75913 4.7848C4.4323 4.14683 5.08215 3.48535 5.722 2.8138C5.93195 2.59219 6.14857 2.50824 6.45183 2.50824C16.7861 2.51496 27.1237 2.51496 37.458 2.51496H38.0478V0H40.5739V2.49817H42.9967V12.6755C42.83 12.6755 42.6801 12.6755 42.5301 12.6755C40.9905 12.6755 39.4475 12.6822 37.9079 12.6688C37.6646 12.6688 37.5379 12.746 37.4313 12.9676C36.7281 14.4081 35.995 15.8352 35.3085 17.2857C35.1285 17.6651 34.9152 17.7692 34.5153 17.7659C31.6726 17.7457 28.83 17.7558 25.9873 17.7558H25.4607C25.4607 18.199 25.4707 18.6288 25.4607 19.062C25.4041 21.2411 24.501 22.9737 22.7447 24.243C21.6916 25.0018 20.4986 25.3712 19.2022 25.3779C17.5926 25.3846 15.9796 25.3779 14.37 25.3779C14.2167 25.3779 14.0634 25.3779 13.8734 25.3779C13.4735 27.913 13.077 30.428 12.6704 33H0C0 32.9161 0 32.8321 0 32.7448C0.0233279 32.7112 0.059986 32.681 0.0699837 32.6441C0.909788 28.3193 1.74626 23.9979 2.57273 19.6697C2.59273 19.5556 2.54274 19.381 2.46276 19.3071C1.64962 18.5583 0.823142 17.8196 0 17.0809C0 13.0717 0 9.06258 0 5.05678V5.05342ZM10.5009 30.4447C10.5309 30.3373 10.5542 30.2735 10.5642 30.203C11.0508 27.1139 11.5606 24.0281 12.0105 20.9322C12.5104 17.4939 15.0665 15.2173 18.5124 15.2173C23.0213 15.2173 27.5269 15.2173 32.0359 15.2173C32.5224 15.2173 33.1156 15.3651 33.4722 15.1435C33.8288 14.9185 33.9554 14.3175 34.1754 13.8776C34.3653 13.4948 34.5486 13.1087 34.7419 12.7024H2.52275C2.52275 13.75 2.51608 14.7775 2.53274 15.8016C2.53274 15.9158 2.65272 16.0433 2.74936 16.134C3.50252 16.8324 4.24901 17.5342 5.0255 18.2024C5.29877 18.4374 5.35209 18.659 5.28544 19.0015C4.66891 22.1108 4.06905 25.2201 3.46586 28.3327C3.32923 29.0311 3.20592 29.7295 3.07262 30.4515H10.5009V30.4447ZM40.4839 5.07021C40.3939 5.06349 40.3506 5.05678 40.3073 5.05678C34.4687 5.05678 28.6267 5.05678 22.788 5.0467C22.5281 5.0467 22.4281 5.15751 22.3315 5.36905C21.655 6.83974 20.9685 8.30372 20.2853 9.77106C20.2353 9.87851 20.202 9.98932 20.1586 10.1035H40.4806V5.06685L40.4839 5.07021ZM14.2567 22.8361C15.9496 22.8361 17.5726 22.8629 19.1922 22.8294C21.575 22.779 23.4012 20.7576 22.8713 17.7793H20.4053V20.264H17.8758V17.8028C16.3395 17.964 15.0465 19.0485 14.6633 20.5427C14.4766 21.2747 14.3933 22.0369 14.2567 22.8394V22.8361ZM2.53941 10.1337C4.05572 10.1337 5.52538 10.1404 6.99504 10.1203C7.12501 10.1203 7.31497 9.96917 7.37495 9.83822C7.8815 8.78724 8.36805 7.72619 8.85794 6.66514C9.09788 6.14469 9.33783 5.62759 9.60443 5.05006C8.82128 5.05006 8.09812 5.03663 7.37828 5.06013C7.20499 5.06685 6.99837 5.15079 6.87507 5.26831C6.18856 5.93315 5.51538 6.61142 4.85554 7.29976C4.65558 7.51129 4.4523 7.60531 4.16237 7.59524C3.62249 7.57509 3.08262 7.58852 2.53941 7.58852V10.1303V10.1337ZM10.0343 10.1337C10.7242 10.1337 11.3374 10.1203 11.9506 10.1404C12.2205 10.1505 12.3405 10.0464 12.4471 9.81136C13.1169 8.34066 13.8068 6.87668 14.4866 5.40934C14.5366 5.30525 14.5699 5.19444 14.6233 5.05342C13.9234 5.05342 13.2802 5.04335 12.6371 5.06013C12.5271 5.06013 12.3638 5.14744 12.3205 5.24145C11.564 6.83974 10.8208 8.44811 10.0343 10.1337ZM15.0998 10.1337C15.7563 10.1337 16.3695 10.1203 16.9794 10.1404C17.2393 10.1471 17.376 10.0665 17.4859 9.82143C18.1558 8.35073 18.8423 6.88675 19.5255 5.41941C19.5754 5.31197 19.6154 5.19444 19.6721 5.05342C19.0089 5.05342 18.3924 5.06685 17.7792 5.0467C17.5093 5.03663 17.3926 5.14072 17.286 5.37912C16.6228 6.83974 15.9396 8.29029 15.2631 9.7442C15.2131 9.85501 15.1698 9.96917 15.1032 10.1371L15.0998 10.1337Z" fill="#0E276C"/>
</g>
<defs>
<clipPath id="clip0_19_1203">
<rect width="43" height="33" fill="white"/>
</clipPath>
</defs>
</svg>
