<svg width="27" height="35" viewBox="0 0 27 35" fill="none" xmlns="http://www.w3.org/2000/svg">
<g clip-path="url(#clip0_30_3686)">
<path d="M6.50008 0C6.73588 0.192363 7.00758 0.354353 7.19725 0.582152C8.3199 1.92363 9.42204 3.2803 10.5447 4.65215C10.719 4.45473 10.9394 4.19656 11.1701 3.94345C11.7801 3.26005 12.3901 2.57666 13.0104 1.90338C13.5025 1.37185 14.1587 1.35667 14.6406 1.88314C18.0598 5.59372 21.2586 9.48149 23.914 13.7742C24.9649 15.4751 25.8773 17.2469 26.5079 19.1553C27.2512 21.4131 27.1179 23.6658 26.3592 25.8678C24.7085 30.6769 21.356 33.7142 16.3066 34.752C9.45793 36.1542 2.58362 31.6539 1.02011 24.9212C0.353693 22.056 0.815056 19.3933 2.10175 16.8115C2.41957 16.1686 2.74766 15.5308 3.08086 14.8778C2.25041 14.3665 1.54811 13.7337 1.03036 12.9187C-0.128176 11.0811 -0.363983 9.17269 0.568996 7.163C1.32768 5.52285 2.36831 4.06494 3.48584 2.65765C4.09073 1.89832 4.73664 1.1643 5.37743 0.435349C5.53634 0.258172 5.75677 0.141741 5.94644 0C6.13099 0 6.31553 0 6.50008 0ZM13.8358 4.03963C13.1437 4.83439 12.4927 5.59878 11.8211 6.34293C11.652 6.53023 11.6263 6.67197 11.7494 6.90483C12.7285 8.79303 12.6772 10.6762 11.6468 12.5239C10.396 14.7664 8.01232 15.9611 5.41844 15.6523C5.14162 15.6219 5.00321 15.6827 4.8853 15.9307C4.4547 16.8369 3.98308 17.7227 3.56273 18.6339C2.61437 20.6841 2.56824 22.7849 3.17826 24.9313C4.65975 30.1251 9.82702 33.5826 15.1891 32.8435C19.4849 32.2512 22.4786 29.8872 24.1293 25.9387C25.011 23.8227 25.2724 21.6105 24.3958 19.4135C23.8883 18.148 23.3091 16.8976 22.6375 15.713C20.5922 12.129 18.0342 8.89933 15.3582 5.76078C14.8713 5.18875 14.3638 4.63191 13.8358 4.03457V4.03963ZM6.21813 2.55641C5.72601 3.16387 5.26465 3.71565 4.82892 4.28768C3.9472 5.43173 3.13725 6.61629 2.50159 7.91727C1.77367 9.41568 2.00947 10.8027 2.98859 12.0835C4.23427 13.7135 6.48982 14.1286 8.26351 13.1313C9.77576 12.2809 10.9753 10.0839 10.0269 8.08938C9.0632 6.05944 7.68937 4.31299 6.21813 2.55641Z" fill="#0E276C"/>
<path d="M16.2964 30.8845C15.753 30.8743 15.3275 30.52 15.2352 30.0492C15.1378 29.5632 15.4095 29.1076 15.8914 28.9001C16.4502 28.6622 17.0243 28.4445 17.5574 28.1559C18.3879 27.7105 19.0594 27.0676 19.6387 26.3335C19.9104 25.9944 20.2692 25.8425 20.7101 25.9488C21.1509 26.0501 21.4431 26.3386 21.479 26.7689C21.5046 27.0271 21.4329 27.3612 21.2791 27.5637C20.0642 29.1583 18.4802 30.2466 16.5476 30.8338C16.4502 30.8642 16.3476 30.8743 16.3015 30.8845H16.2964Z" fill="#0E276C"/>
<path d="M21.9199 22.8507C22.4735 22.8406 22.9554 23.3114 22.9605 23.8682C22.9708 24.6175 22.4991 25.1794 21.8584 25.1895C21.2893 25.1945 20.828 24.7389 20.8229 24.177C20.8177 23.4228 21.2791 22.8659 21.9199 22.8558V22.8507Z" fill="#0E276C"/>
</g>
<defs>
<clipPath id="clip0_30_3686">
<rect width="27" height="35" fill="white"/>
</clipPath>
</defs>
</svg>
