<svg width="37" height="37" viewBox="0 0 37 37" fill="none" xmlns="http://www.w3.org/2000/svg">
<g clip-path="url(#clip0_19_2221)">
<path d="M37.0003 7.44434C36.9303 7.50851 36.8545 7.57269 36.7903 7.63687C29.7683 14.6611 22.7404 21.6913 15.7183 28.7214C15.6366 28.8031 15.555 28.8964 15.4208 29.0306C15.7591 29.3515 16.0974 29.6548 16.4123 29.9816C16.5056 30.0749 16.5931 30.2207 16.5931 30.3433C16.6048 31.8368 16.599 33.3303 16.5931 34.8239C16.5931 34.8705 16.5756 34.9172 16.564 34.9931C16.4415 34.9931 16.3248 35.0106 16.2082 35.0106C14.8259 35.0106 13.4379 35.0222 12.0556 34.9989C11.869 34.9989 11.6357 34.8939 11.5015 34.7597C10.79 34.0771 10.1018 33.3712 9.38443 32.6477C9.27944 32.7469 9.18029 32.8286 9.09281 32.9219C8.07799 33.9371 7.08067 34.9639 6.04836 35.9615C4.04789 37.8985 0.78764 37 0.116928 34.328C-0.215512 33.0036 0.157754 31.8543 1.10842 30.8917C2.08241 29.9057 3.06223 28.9314 4.04789 27.9513C4.1412 27.8579 4.24618 27.7763 4.45031 27.6071C4.16453 27.362 3.90791 27.1695 3.68045 26.9478C3.13805 26.4169 2.60148 25.8802 2.07074 25.3376C1.98326 25.2501 1.88994 25.1217 1.88411 25.0109C1.87244 23.459 1.87828 21.9071 1.87828 20.3202C2.01242 20.3144 2.12323 20.3027 2.23988 20.3027C3.63379 20.3027 5.03354 20.2969 6.42746 20.3144C6.60243 20.3144 6.81822 20.4136 6.95236 20.5361C7.27897 20.8336 7.57058 21.172 7.93219 21.5512C8.48625 20.9737 8.99366 20.4253 9.51857 19.9002C16.1382 13.3076 22.752 6.72091 29.36 0.134185C29.4008 0.0933459 29.4416 0.046673 29.4825 0C31.9845 0 34.4924 0 36.9944 0V7.44434H37.0003ZM19.0893 16.2422C19.6376 16.7848 20.1392 17.2748 20.6816 17.8174C17.9754 20.5244 15.2284 23.2723 12.5339 25.9618C13.0063 26.4344 13.4845 26.9128 13.9686 27.397C13.9511 27.4087 13.9744 27.397 13.9919 27.3795C20.8857 20.4836 27.7794 13.5818 34.6674 6.68007C34.7665 6.58089 34.819 6.38836 34.8248 6.23668C34.8365 4.99401 34.8307 3.75717 34.8307 2.51451C34.8307 2.40949 34.8307 2.30448 34.8307 2.16446C34.6907 2.16446 34.5857 2.16446 34.4807 2.16446C33.2151 2.16446 31.9495 2.15279 30.6898 2.17613C30.5148 2.17613 30.2932 2.27531 30.1648 2.39782C23.3352 9.18874 16.5115 15.9855 9.6877 22.7881C9.61188 22.8639 9.54773 22.9398 9.51857 22.9748C9.99681 23.459 10.4634 23.9316 10.93 24.4041C13.6595 21.6679 16.4123 18.9201 19.0893 16.2422ZM14.4352 32.8403C14.4352 32.2977 14.4527 31.8135 14.4235 31.3351C14.4177 31.1717 14.3419 30.9792 14.2311 30.8683C11.5015 28.1205 8.76037 25.3784 6.0192 22.6422C5.94921 22.5722 5.84423 22.4789 5.75674 22.473C5.19685 22.4555 4.63695 22.4672 4.04789 22.4672C4.04789 23.0506 4.03622 23.5874 4.05372 24.1299C4.05372 24.2291 4.1412 24.3458 4.22285 24.4275C6.95819 27.1695 9.69937 29.9115 12.4405 32.6477C12.5222 32.7294 12.633 32.8286 12.7322 32.8344C13.2804 32.8519 13.8345 32.8403 14.4352 32.8403ZM5.91422 29.2581C5.50596 29.6607 5.08603 30.0807 4.70693 30.4541C5.32516 31.0725 5.95504 31.7026 6.5616 32.3094C6.95236 31.9243 7.36645 31.5101 7.76888 31.1134C7.15649 30.5008 6.52661 29.8707 5.91422 29.2581ZM3.04473 32.0002C2.8581 32.1927 2.6773 32.3677 2.514 32.5602C1.81995 33.3537 2.21072 34.5672 3.2372 34.8005C4.05372 34.9872 4.5203 34.468 4.98105 33.9371C4.3395 33.2953 3.70961 32.6652 3.04473 32.006V32.0002Z" fill="#0E276C"/>
</g>
<defs>
<clipPath id="clip0_19_2221">
<rect width="37" height="37" fill="white"/>
</clipPath>
</defs>
</svg>
