<svg width="37" height="37" viewBox="0 0 37 37" fill="none" xmlns="http://www.w3.org/2000/svg">
<g clip-path="url(#clip0_30_532)">
<path d="M6.83916 8.56565C7.40823 7.99256 7.93629 7.45529 8.55663 6.83103C8.4746 6.77987 8.33618 6.7287 8.2439 6.63659C7.56204 5.96628 6.86992 5.31133 6.22395 4.6052C5.06016 3.33622 5.6036 1.29971 7.25443 0.818726C8.24902 0.527065 9.26925 0.30704 10.2895 0.107482C11.0124 -0.0357897 11.6942 0.153534 12.2223 0.675454C14.032 2.46635 15.8418 4.25725 17.6208 6.07886C18.318 6.79522 18.3898 7.69067 18.0207 8.60658C17.6259 9.59414 17.2106 10.5715 16.7902 11.5744C17.7746 12.4186 18.7589 13.2578 19.7023 14.0714C21.0865 12.6898 22.4605 11.3185 23.8755 9.90627C23.4858 9.52762 23.0347 9.0978 22.5938 8.65775C22.1836 8.25352 21.7684 7.85441 21.3787 7.43482C20.2867 6.24771 20.3021 4.5131 21.43 3.3618C22.2503 2.52264 23.0859 1.69371 23.9319 0.880128C25.1213 -0.266048 26.89 -0.306983 28.0743 0.849427C30.4121 3.13155 32.714 5.4546 35.0262 7.7623C35.4979 8.23817 35.7542 8.82661 35.8414 9.4918C36.2208 12.4852 36.595 15.4785 36.9693 18.4719C37.0667 19.2548 36.7078 19.966 36.0413 20.3088C35.3646 20.6568 34.5392 20.534 33.9752 19.9762C32.3757 18.39 30.7812 16.7987 29.1868 15.2124C29.1202 15.1459 29.0433 15.0794 29.0022 15.0385C27.7513 16.287 26.5055 17.5253 25.2392 18.7789C26.2133 19.6078 27.2079 20.4572 28.2025 21.3066C28.546 21.5983 28.8946 21.8899 29.2381 22.1816C29.7559 22.6268 29.8174 23.3483 29.3868 23.8497C28.9612 24.346 28.2281 24.3921 27.7103 23.952C23.6191 20.4675 19.528 16.988 15.4368 13.4983C14.4165 12.6284 14.1961 11.6972 14.7139 10.4538C15.0625 9.60949 15.406 8.76009 15.7649 7.91581C15.852 7.71113 15.852 7.57809 15.6829 7.40412C14.0731 5.81278 12.4735 4.2112 10.8739 2.60451C10.715 2.44589 10.5766 2.41007 10.3561 2.46635C9.57686 2.66079 8.79759 2.83477 7.94142 3.02921C8.66942 3.75069 9.35128 4.41588 10.0229 5.0913C11.1764 6.2426 11.1815 7.57809 10.0434 8.7345C9.56148 9.22061 9.07956 9.71182 8.58739 10.1877C7.56204 11.1855 6.16755 11.1804 5.14732 10.1775C4.51673 9.55832 3.89638 8.93406 3.27604 8.3098C3.19402 8.22794 3.10173 8.14607 2.96844 8.02326C2.76337 8.91871 2.56855 9.75788 2.38911 10.6022C2.37373 10.6789 2.45576 10.8017 2.52241 10.8734C4.1476 12.5005 5.77279 14.1277 7.41336 15.7446C7.49539 15.8265 7.70046 15.8521 7.81325 15.8111C8.71043 15.4581 9.6025 15.0794 10.4946 14.7161C11.6481 14.2454 12.617 14.4807 13.4271 15.4325C17.6669 20.4061 21.9017 25.3796 26.1415 30.3532C26.2184 30.4453 26.3004 30.5374 26.4183 30.6654C26.9003 30.1844 27.3566 29.6932 27.8487 29.248C28.0487 29.0689 28.3101 28.9103 28.5665 28.8591C29.0894 28.7465 29.5611 29.0126 29.7918 29.4578C30.0174 29.8927 29.9456 30.4402 29.5867 30.8137C29.1458 31.2743 28.6895 31.7143 28.2384 32.1646C28.1512 32.2516 28.0487 32.3181 27.9307 32.4153C28.5357 33.1266 29.0997 33.802 29.6841 34.4518C29.9148 34.7077 30.2481 34.7026 30.5044 34.4518C31.8271 33.147 33.1498 31.832 34.4571 30.5119C34.7596 30.21 34.7032 29.8825 34.3392 29.5652C33.2575 28.6288 32.1706 27.6925 31.0786 26.7663C30.4736 26.2495 30.3762 25.5331 30.853 25.001C31.3196 24.4791 32.0219 24.4893 32.6166 25.001C33.6625 25.9067 34.7135 26.8021 35.7645 27.7078C37.3589 29.0842 37.4204 30.9059 35.9285 32.3949C34.7237 33.5973 33.5189 34.7998 32.3142 35.9971C30.9094 37.394 29.0381 37.3224 27.7513 35.8232C24.8342 32.4256 21.9273 29.0177 19.0153 25.615C18.9127 25.4922 18.8102 25.3745 18.6308 25.1699C18.3744 25.4615 18.1642 25.7634 17.8925 25.9988C16.2007 27.4469 14.9549 29.1968 14.0423 31.2333C13.4373 32.5893 12.6888 33.889 12.0018 35.2091C10.9508 37.2201 8.6848 37.5731 7.08012 35.9767C5.69076 34.5951 4.30653 33.2136 2.9223 31.8269C1.30736 30.2151 1.67136 27.9432 3.70669 26.8994C5.90608 25.7685 8.10035 24.6377 10.2946 23.5018C10.4228 23.4352 10.5612 23.3687 10.6637 23.2664C11.8019 22.1407 12.94 21.0098 14.0987 19.8534C13.9449 19.6692 13.8013 19.4901 13.6527 19.3162C13.0169 18.5691 12.3761 17.8323 11.7506 17.0801C11.5866 16.8805 11.4533 16.8652 11.2277 16.9624C10.351 17.3411 9.4692 17.6941 8.58226 18.0574C7.52615 18.4924 6.60333 18.2877 5.79842 17.4792C4.14247 15.8162 2.48139 14.1533 0.810061 12.4954C0.102564 11.7944 -0.138395 10.9859 0.102564 10.0188C0.297382 9.23596 0.471693 8.44796 0.640877 7.66508C0.851075 6.71335 1.38426 6.04304 2.33272 5.76673C3.26579 5.50065 4.06557 5.77696 4.7423 6.4575C5.43955 7.15851 6.14192 7.85952 6.84941 8.56565H6.83916ZM26.1466 8.68845C28.91 11.4567 31.6579 14.2147 34.3905 16.9573C34.3905 16.9419 34.3905 16.8959 34.3905 16.8498C34.1034 14.5473 33.8266 12.2447 33.5189 9.9472C33.4831 9.69136 33.319 9.42528 33.1498 9.22572C32.832 8.85731 32.468 8.52983 32.1193 8.18188C30.2686 6.3347 28.4127 4.4824 26.5619 2.63521C26.1979 2.27191 25.9005 2.24633 25.5776 2.56869C24.7624 3.36692 23.9575 4.17027 23.1577 4.97873C22.9014 5.23969 22.8809 5.57229 23.1218 5.83325C23.5217 6.25795 23.9472 6.65706 24.4189 7.12781C24.6804 6.84638 24.9213 6.56496 25.1828 6.31423C25.6955 5.82301 26.4337 5.83325 26.89 6.31423C27.3412 6.78498 27.3104 7.49111 26.8285 7.99256C26.5824 8.24329 26.3414 8.49913 26.1518 8.69869L26.1466 8.68845ZM11.0482 25.7634C8.96677 26.8328 6.89555 27.8971 4.81921 28.9666C4.18861 29.2889 4.12709 29.6625 4.62439 30.1588C5.98299 31.5148 7.34158 32.8707 8.70018 34.2267C9.23849 34.764 9.59737 34.7128 9.94599 34.0476C10.9457 32.1441 11.9403 30.2407 12.9349 28.3372C13.0169 28.1786 13.099 28.0148 13.1707 27.8818C12.4581 27.1705 11.766 26.4798 11.0482 25.7634ZM23.3064 17.121C24.624 15.8111 25.9057 14.5319 27.1515 13.2885C26.6542 12.7922 26.121 12.26 25.634 11.779C24.3266 13.0582 22.9937 14.363 21.6453 15.6883C22.2195 16.1846 22.7937 16.681 23.3064 17.1262V17.121ZM15.6521 21.6853C14.7498 22.5858 13.8782 23.4557 13.0323 24.3C13.5501 24.8168 14.0936 25.3541 14.5806 25.8402C15.3958 25.0419 16.2366 24.2181 17.0979 23.379C16.6211 22.8161 16.1289 22.243 15.6521 21.6853Z" fill="#0E276C"/>
</g>
<defs>
<clipPath id="clip0_30_532">
<rect width="37" height="37" fill="white"/>
</clipPath>
</defs>
</svg>
