<svg width="38" height="38" viewBox="0 0 38 38" fill="none" xmlns="http://www.w3.org/2000/svg">
<g clip-path="url(#clip0_19_2226)">
<path d="M36.955 37.7547C36.8765 37.7302 36.7195 37.6958 36.5772 37.6271C32.0437 35.537 27.5151 33.442 22.9816 31.3617C22.0248 30.925 21.5489 30.1841 21.3772 29.1685C21.1122 27.5936 19.5176 26.6565 18.0261 27.1962C17.0841 27.5347 16.4953 28.2265 16.3628 29.2274C16.2156 30.351 15.6465 31.0967 14.6162 31.5628C10.2495 33.5597 5.89259 35.5714 1.53571 37.583C1.15302 37.7596 0.785037 37.8823 0.446496 37.5339C0.112861 37.1905 0.235521 36.8176 0.412151 36.4349C2.45321 32.0093 4.49918 27.5887 6.52061 23.1533C6.98181 22.1475 7.68833 21.5587 8.79227 21.387C10.0925 21.1809 10.9462 20.126 10.9216 18.8308C10.8971 17.5698 9.99433 16.5346 8.72358 16.3678C7.63436 16.2255 6.90821 15.671 6.45192 14.675C4.45992 10.2887 2.43849 5.92204 0.421964 1.55045C0.245334 1.16775 0.132487 0.794864 0.475934 0.46123C0.799756 0.142314 1.16283 0.240442 1.53081 0.412166C6.00544 2.48266 10.4801 4.55316 14.9596 6.61875C15.8673 7.03579 16.4119 7.69816 16.5787 8.69906C16.8142 10.1121 17.8446 10.9756 19.1791 10.9413C20.4891 10.9069 21.4508 10.0042 21.6568 8.60584C21.7991 7.62947 22.3094 6.93767 23.2072 6.52062C27.623 4.48938 32.0338 2.45813 36.4447 0.421979C36.8274 0.245349 37.1954 0.117782 37.5339 0.466136C37.8675 0.809584 37.7547 1.17756 37.5732 1.56026C35.5125 6.02508 33.4518 10.4899 31.4009 14.9596C30.9839 15.8673 30.3264 16.4168 29.3304 16.5934C27.8879 16.8486 27.0391 17.8397 27.0637 19.1742C27.0833 20.4744 27.9763 21.441 29.3844 21.6617C30.3755 21.8188 31.0722 22.3339 31.4941 23.2514C33.5303 27.677 35.5763 32.1025 37.6173 36.5281C37.9215 37.1856 37.6468 37.7498 36.9501 37.7596L36.955 37.7547ZM2.5219 2.52191C4.3618 6.52062 6.15263 10.4016 7.94346 14.2776C8.12991 14.68 8.48316 14.8173 8.90511 14.8713C10.9069 15.1264 12.3887 16.7799 12.4328 18.7915C12.477 20.8326 11.059 22.5596 9.05231 22.8736C8.50279 22.957 8.16916 23.222 7.93856 23.7273C6.21641 27.4954 4.47955 31.2537 2.74759 35.0169C2.68872 35.1396 2.64456 35.2721 2.57096 35.4487C2.68381 35.4095 2.73778 35.3947 2.78684 35.3702C6.57458 33.6235 10.3574 31.8719 14.15 30.1302C14.6014 29.9241 14.8026 29.5856 14.8713 29.1096C15.1657 27.0195 16.7995 25.577 18.8602 25.5721C20.9111 25.5672 22.5694 26.9852 22.8883 29.0262C22.9619 29.5022 23.1876 29.8162 23.6341 30.0222C27.412 31.7542 31.185 33.496 34.9581 35.2328C35.0856 35.2917 35.2132 35.3359 35.4291 35.4193C35.3457 35.2034 35.2966 35.0709 35.2377 34.9483C33.5646 31.3224 31.8817 27.6966 30.2234 24.061C29.9633 23.4918 29.6052 23.2073 28.9772 23.1239C27.0588 22.8834 25.5967 21.1613 25.5721 19.1889C25.5476 17.192 26.9852 15.4306 28.9085 15.151C29.5021 15.0676 29.8456 14.7928 30.0909 14.258C31.7983 10.5193 33.5303 6.78557 35.2524 3.0518C35.3162 2.90952 35.3702 2.76723 35.4536 2.57098C35.326 2.62004 35.2573 2.63967 35.1985 2.66911C31.4255 4.40597 27.6524 6.15264 23.8745 7.87969C23.3888 8.10539 23.2023 8.46846 23.1336 8.97382C22.8785 10.9462 21.1711 12.423 19.1546 12.4377C17.1577 12.4524 15.4355 11.0296 15.1411 9.07685C15.0528 8.50771 14.783 8.16426 14.2629 7.92876C11.4515 6.64819 8.65489 5.348 5.84843 4.05271C4.77393 3.55716 3.70434 3.06652 2.5219 2.52191Z" fill="#0E276C"/>
<path d="M36.9209 37.9997L36.813 37.9653C36.7197 37.9408 36.5971 37.9015 36.4793 37.8476L31.519 35.5612C28.6389 34.2316 25.7638 32.9068 22.8837 31.5821C21.9024 31.1307 21.3333 30.3555 21.1419 29.2074C21.0291 28.5254 20.6268 27.9416 20.0429 27.5981C19.4591 27.2547 18.7574 27.1958 18.1147 27.4264C17.2365 27.7453 16.7262 28.3586 16.6084 29.2565C16.4514 30.4487 15.8332 31.2779 14.7244 31.7833C10.6864 33.6281 6.65828 35.4876 2.63013 37.352L1.64885 37.8034C1.33975 37.9457 0.770606 38.2057 0.279967 37.7004C-0.20086 37.1999 0.0591791 36.6357 0.201464 36.3315L0.868734 34.889C2.689 30.9443 4.50928 27.0044 6.30992 23.0548C6.81528 21.9509 7.61993 21.3277 8.76802 21.1462C9.94065 20.9647 10.711 20.0325 10.6913 18.8353C10.6717 17.6921 9.83762 16.755 8.70915 16.6127C7.54633 16.4606 6.74168 15.862 6.24614 14.7777C4.2983 10.5239 2.34065 6.28475 0.383001 2.05054L0.201464 1.65312C0.0689919 1.36855 -0.20086 0.779781 0.304499 0.284235C0.795138 -0.201498 1.3839 0.0683538 1.63413 0.186107C6.10876 2.2566 10.5834 4.3271 15.0629 6.39269C16.0687 6.85389 16.6428 7.59476 16.8194 8.65454C17.0353 9.94492 17.9283 10.7398 19.1696 10.6907C20.3618 10.6613 21.2204 9.84679 21.4118 8.56623C21.5688 7.50154 22.1379 6.74105 23.1045 6.29457C27.5203 4.26332 31.9311 2.23207 36.3419 0.19592C36.651 0.0536347 37.2202 -0.211311 37.7108 0.289141C38.2015 0.789593 37.9414 1.35383 37.7991 1.65802C35.7385 6.12284 33.6778 10.5877 31.6269 15.0525C31.1657 16.0583 30.4297 16.6372 29.3749 16.8286C28.06 17.0641 27.2897 17.9374 27.3093 19.164C27.3289 20.3465 28.1385 21.21 29.4239 21.4161C30.5132 21.5878 31.2638 22.152 31.7152 23.1431C33.0007 25.9447 34.296 28.7413 35.5864 31.538L37.8384 36.4149C38.0297 36.832 38.0297 37.249 37.8384 37.5532C37.6618 37.8329 37.3478 37.9899 36.9503 37.9948H36.9111L36.9209 37.9997ZM0.961955 0.49521C0.839295 0.49521 0.741168 0.539367 0.647946 0.632589C0.45169 0.823938 0.45169 1.0251 0.647946 1.44705L0.829483 1.84447C2.78713 6.08359 4.74478 10.3227 6.68771 14.5667C7.11457 15.499 7.77203 15.9896 8.76802 16.1172C10.1369 16.2938 11.1525 17.4321 11.1771 18.8157C11.2065 20.2483 10.2448 21.4013 8.84162 21.6221C7.85544 21.7742 7.19307 22.2943 6.7564 23.2511C4.95576 27.2007 3.13549 31.1454 1.31522 35.0902L0.647946 36.5327C0.446784 36.9644 0.446784 37.1607 0.638133 37.3569C0.829483 37.5581 1.01102 37.5581 1.44769 37.3569L2.42897 36.9055C6.45711 35.046 10.4902 33.1816 14.5281 31.3368C15.4898 30.9001 16 30.2181 16.1325 29.1927C16.2748 28.1133 16.9028 27.343 17.9577 26.9652C18.7378 26.6855 19.5915 26.7591 20.298 27.1762C21.0095 27.5932 21.4952 28.3046 21.6326 29.1289C21.7994 30.12 22.2606 30.7578 23.0947 31.1405C25.9747 32.4653 28.8499 33.79 31.7299 35.1196L36.6903 37.406C36.7835 37.4502 36.8816 37.4747 36.9552 37.4943L36.9994 37.509C37.1515 37.5041 37.3428 37.4551 37.441 37.2981C37.544 37.1361 37.5293 36.8908 37.4115 36.6259L35.1595 31.7489C33.8691 28.9523 32.5738 26.1507 31.2884 23.3541C30.9057 22.5249 30.2776 22.049 29.3651 21.9067C27.8539 21.6663 26.8579 20.5967 26.8383 19.1788C26.8137 17.7117 27.7607 16.6274 29.3062 16.3527C30.204 16.1908 30.8026 15.7197 31.2 14.8562C33.2509 10.3865 35.3116 5.92168 37.3723 1.45686C37.5734 1.0251 37.5734 0.833751 37.3772 0.637495C37.1662 0.421614 36.9552 0.465772 36.5627 0.647308C32.1519 2.68346 27.741 4.71471 23.3253 6.74595C22.5108 7.11884 22.0496 7.74195 21.9122 8.64473C21.6915 10.151 20.6219 11.1519 19.199 11.1911C17.7418 11.2206 16.6084 10.2687 16.3484 8.74286C16.1963 7.84008 15.7253 7.23659 14.8667 6.84408C10.3773 4.77358 5.90269 2.70309 1.42806 0.632589C1.23181 0.539367 1.08461 0.49521 0.961955 0.49521ZM2.12968 35.8654L2.39953 35.1981C2.44369 35.0902 2.47803 35.0019 2.51728 34.9136L3.9156 31.8765C5.18145 29.1289 6.45221 26.3764 7.70824 23.6239C7.97319 23.0401 8.38533 22.7261 9.00844 22.6279C10.8876 22.3385 12.2221 20.7243 12.1829 18.7961C12.1436 16.8973 10.7502 15.3518 8.87106 15.1114C8.49817 15.0623 7.97809 14.9347 7.71806 14.3754C6.40314 11.5297 5.09314 8.68398 3.7586 5.78921L2.02174 2.01619L8.16944 4.85209C10.2301 5.80393 12.2957 6.76067 14.3613 7.69779C14.9697 7.97255 15.2837 8.38469 15.3818 9.03233C15.6566 10.833 17.261 12.1822 19.1205 12.1822H19.1549C21.0487 12.1675 22.6531 10.7692 22.8886 8.9342C22.972 8.28165 23.2468 7.88914 23.7669 7.64873C26.5193 6.38779 29.2669 5.12194 32.0145 3.85609L35.0908 2.43814C35.135 2.41852 35.184 2.39889 35.2478 2.37436L35.8906 2.13394L35.606 2.82575C35.5569 2.9435 35.5177 3.04653 35.4735 3.14466L34.1341 6.05415C32.8584 8.81645 31.5827 11.5837 30.3169 14.3509C30.0323 14.9691 29.6104 15.2929 28.948 15.3861C27.1719 15.6412 25.7981 17.3094 25.8226 19.1788C25.8472 21.0579 27.2161 22.6476 29.0118 22.8733C29.7085 22.9616 30.1501 23.2952 30.4494 23.9527C31.6563 26.6021 32.878 29.2418 34.0997 31.8863L35.4637 34.84C35.503 34.9283 35.5373 35.0166 35.5815 35.1294L35.866 35.8507L35.1448 35.571C35.0319 35.5268 34.9387 35.4925 34.8553 35.4533L31.519 33.9175C28.8597 32.691 26.1955 31.4644 23.5314 30.2427C23.0113 30.0072 22.7316 29.6294 22.6433 29.0602C22.3489 27.1467 20.7985 25.8171 18.8752 25.8171H18.8605C16.9274 25.822 15.3867 27.1909 15.112 29.1436C15.0286 29.7275 14.7489 30.1249 14.2534 30.3506C11.5107 31.6115 8.77293 32.8774 6.03026 34.1383L2.89017 35.5857C2.85092 35.6054 2.81166 35.6152 2.75769 35.6348L2.13949 35.8605L2.12968 35.8654ZM3.02755 3.022L4.20999 5.58805C5.54452 8.48282 6.85453 11.3285 8.16944 14.1742C8.2921 14.4441 8.5178 14.5716 8.93975 14.6256C11.0593 14.8955 12.6343 16.6421 12.6784 18.7862C12.7226 20.9647 11.2163 22.7849 9.08694 23.1137C8.62574 23.1873 8.35589 23.3933 8.15473 23.8251C6.89378 26.5776 5.62793 29.3301 4.36208 32.0777L3.02264 34.9822L5.81928 33.6919C8.55705 32.426 11.2997 31.1602 14.0424 29.9041C14.3907 29.7471 14.5625 29.4969 14.6213 29.0749C14.9305 26.872 16.6722 25.3314 18.8507 25.3265H18.8654C21.0389 25.3265 22.7856 26.8278 23.1192 28.9866C23.183 29.389 23.3645 29.6294 23.7276 29.7962C26.3918 31.0179 29.056 32.2445 31.7152 33.4711L34.978 34.9724L33.6483 32.0924C32.4266 29.4478 31.205 26.8033 29.998 24.1587C29.7674 23.6534 29.473 23.4326 28.9431 23.3639C26.907 23.1088 25.3516 21.313 25.3271 19.1886C25.3026 17.0445 26.8235 15.1997 28.8744 14.9053C29.3749 14.8317 29.6496 14.6207 29.8655 14.1497C31.1314 11.3825 32.407 8.61529 33.6827 5.84808L34.9878 3.022L32.2206 4.29766C29.473 5.56351 26.7205 6.83427 23.9729 8.09031C23.605 8.25712 23.4381 8.51225 23.3744 8.99308C23.1045 11.0734 21.294 12.6532 19.1549 12.6729H19.1205C17.0206 12.6729 15.2101 11.1421 14.901 9.10593C14.8274 8.63001 14.6164 8.35034 14.1651 8.14428C12.0946 7.20225 10.0339 6.25041 7.97319 5.29366L3.02755 3.022Z" fill="#0E276C"/>
<path d="M19.027 22.7656C16.9859 22.7803 15.2736 21.0974 15.2393 19.0466C15.2098 16.9908 16.9123 15.2539 18.9779 15.2343C21.0386 15.2147 22.7608 16.927 22.7608 18.9975C22.7608 21.0533 21.0828 22.746 19.027 22.7656ZM19.0221 21.2348C20.2781 21.225 21.2643 20.2486 21.2643 19.0073C21.2643 17.7709 20.2389 16.7406 18.9976 16.7357C17.7562 16.7357 16.7308 17.766 16.7357 19.0073C16.7357 20.2634 17.7464 21.2446 19.0221 21.2348Z" fill="#0E276C"/>
<path d="M18.9976 23.0109C16.824 23.0109 15.0332 21.2397 14.9989 19.0515C14.9841 17.9966 15.3865 16.9859 16.1421 16.2156C16.9025 15.4355 17.9084 15.0037 18.9829 14.9939C20.0524 14.9939 21.0484 15.3962 21.8187 16.1567C22.5891 16.9221 23.0159 17.9328 23.0159 19.0024C23.0159 21.1956 21.23 22.9962 19.0368 23.0158H19.0025L18.9976 23.0109ZM19.0172 15.4796H18.9878C18.0506 15.4894 17.1626 15.8672 16.4953 16.5541C15.833 17.2312 15.4748 18.1144 15.4895 19.0417C15.5189 20.965 17.089 22.5203 18.9976 22.5203H19.027C20.9552 22.5056 22.5204 20.9257 22.5204 18.9975C22.5204 18.0604 22.1475 17.1723 21.4704 16.5002C20.8031 15.8427 19.9347 15.4796 19.0172 15.4796ZM19.0025 21.4752C18.3254 21.4752 17.6925 21.2201 17.2215 20.7589C16.7554 20.2977 16.4953 19.6746 16.4904 19.0073C16.4904 18.3401 16.7504 17.712 17.2264 17.2312C17.7023 16.7553 18.3303 16.4903 18.9976 16.4903C19.6648 16.4903 20.2929 16.7553 20.7737 17.2361C21.2496 17.7169 21.5146 18.345 21.5096 19.0073C21.5096 20.3811 20.4155 21.4654 19.0221 21.4801H18.9976L19.0025 21.4752ZM19.0025 16.9761C18.4677 16.9761 17.9623 17.1871 17.5796 17.5747C17.1969 17.9623 16.986 18.4676 16.986 19.0024C16.986 19.5372 17.1969 20.0377 17.5698 20.4106C17.9525 20.7883 18.4726 20.9895 19.027 20.9846C20.1457 20.9748 21.0239 20.1014 21.0288 19.0024C21.0288 18.4676 20.8178 17.9623 20.4351 17.5796C20.0475 17.192 19.5422 16.981 19.0074 16.981L19.0025 16.9761Z" fill="#0E276C"/>
</g>
<defs>
<clipPath id="clip0_19_2226">
<rect width="38" height="38" fill="white"/>
</clipPath>
</defs>
</svg>
